<?xml version="1.0" standalone="no"?>
<!DOCTYPE svg PUBLIC "-//W3C//DTD SVG 20010904//EN"
 "http://www.w3.org/TR/2001/REC-SVG-20010904/DTD/svg10.dtd">
<svg version="1.0" xmlns="http://www.w3.org/2000/svg"
 width="259.000000pt" height="259.000000pt" viewBox="0 0 259.000000 259.000000"
 preserveAspectRatio="xMidYMid meet">
<metadata>
Created by potrace 1.11, written by Peter Selinger 2001-2013
</metadata>
<g transform="translate(0.000000,259.000000) scale(0.100000,-0.100000)"
fill="#000000" stroke="none">
<path d="M1182 2554 c-66 -32 -117 -98 -131 -169 -6 -27 -10 -124 -10 -215 0
-91 0 -190 -1 -220 l0 -55 -165 165 c-101 101 -183 174 -212 190 -115 60 -262
11 -332 -110 -8 -14 -16 -54 -19 -91 -7 -108 15 -144 206 -335 89 -89 162
-163 162 -166 0 -2 -98 -4 -217 -5 -255 0 -289 -4 -342 -37 -143 -91 -158
-293 -29 -401 65 -55 83 -58 340 -59 130 -1 239 -4 242 -7 3 -3 -70 -80 -163
-172 -140 -140 -170 -176 -185 -218 -61 -169 62 -343 236 -334 94 5 130 30
312 212 l166 167 1 -55 c0 -29 0 -135 1 -234 0 -199 10 -249 59 -308 108 -131
332 -107 409 44 27 51 28 68 29 324 l1 230 163 -162 c89 -88 181 -173 204
-187 121 -74 292 -14 350 123 22 51 19 142 -7 196 -13 27 -82 105 -186 208
-90 90 -164 166 -164 168 0 2 105 4 233 5 141 0 248 5 273 12 56 16 122 76
150 136 42 90 19 212 -53 277 -75 68 -109 75 -390 74 -117 -1 -213 0 -213 2 0
2 75 78 166 170 174 173 200 210 208 294 13 142 -115 272 -260 264 -83 -5
-127 -36 -306 -213 l-168 -166 0 234 c0 131 -5 251 -10 272 -17 59 -69 120
-129 151 -73 36 -145 36 -219 1z"/>
</g>
</svg>
