<svg id="Layer_1" data-name="Layer 1" xmlns="http://www.w3.org/2000/svg" viewBox="0 0 631.6 634.2">
  <defs>
    <style>
      .cls-1 {
        font-size: 55.4px;
        font-family: Novecentowide-Medium, Novecento wide;
        font-weight: 500;
      }

      .cls-1, .cls-2 {
        fill: #d8d8d8;
      }
    </style>
  </defs>
  <g>
    <text class="cls-1" transform="translate(45.8 283.2) rotate(-78.4)">C</text>
    <text class="cls-1" transform="translate(57.2 232.6) rotate(-67.5)">u</text>
    <text class="cls-1" transform="matrix(0.54, -0.84, 0.84, 0.54, 77.45, 186.53)">r</text>
    <text class="cls-1" transform="matrix(0.68, -0.74, 0.74, 0.68, 103.45, 147.75)">r</text>
    <text class="cls-1" transform="translate(135.7 114) rotate(-37.6)">e</text>
    <text class="cls-1" transform="translate(172.5 86.4) rotate(-27.2)">n</text>
    <text class="cls-1" transform="matrix(0.96, -0.29, 0.29, 0.96, 220.35, 63.41)">t</text>
    <text class="cls-1" transform="matrix(0.99, -0.13, 0.13, 0.99, 262.67, 51.57)">l</text>
    <text class="cls-1" transform="translate(298 46.8) rotate(0.9)">y</text>
    <text class="cls-1" transform="translate(346.5 48.9) rotate(8.2)"> </text>
    <text class="cls-1" transform="translate(371 52.2) rotate(16.2)">A</text>
    <text class="cls-1" transform="translate(413.9 65.2) rotate(25.8)">v</text>
    <text class="cls-1" transform="translate(454 85) rotate(35.3)">a</text>
    <text class="cls-1" transform="matrix(0.73, 0.69, -0.69, 0.73, 493.82, 115.04)">i</text>
    <text class="cls-1" transform="translate(513.3 133.6) rotate(50.7)">l</text>
    <text class="cls-1" transform="translate(540.5 167.9) rotate(60.7)">a</text>
    <text class="cls-1" transform="matrix(0.33, 0.95, -0.95, 0.33, 563.86, 211.7)">b</text>
    <text class="cls-1" transform="matrix(0.17, 0.99, -0.99, 0.17, 578.13, 256.17)">l</text>
    <text class="cls-1" transform="translate(584.2 298.4) rotate(89.1)">e</text>
    <text class="cls-1" transform="translate(583.2 344.9) rotate(97.3)"> </text>
    <text class="cls-1" transform="matrix(-0.25, 0.97, -0.97, -0.25, 579.96, 369.52)">f</text>
    <text class="cls-1" transform="translate(568.8 410.7) rotate(115)">o</text>
    <text class="cls-1" transform="matrix(-0.58, 0.81, -0.81, -0.58, 544.5, 459.76)">r</text>
    <text class="cls-1" transform="translate(515.9 497.1) rotate(133.3)"> </text>
    <text class="cls-1" transform="matrix(-0.78, 0.62, -0.62, -0.78, 499.13, 515.26)">n</text>
    <text class="cls-1" transform="translate(456.8 547.3) rotate(152)">e</text>
    <text class="cls-1" transform="translate(416.3 568.8) rotate(163.9)">w</text>
    <text class="cls-1" transform="translate(352.1 584.6) rotate(173.6)"> </text>
    <text class="cls-1" transform="translate(327.3 587.3) rotate(-179.1)">p</text>
    <text class="cls-1" transform="translate(283.1 585.9) rotate(-169.6)">r</text>
    <text class="cls-1" transform="translate(238.7 577.3) rotate(-159)">o</text>
    <text class="cls-1" transform="translate(188.5 556.6) rotate(-148.3)">j</text>
    <text class="cls-1" transform="translate(149.3 531.3) rotate(-138.6)">e</text>
    <text class="cls-1" transform="matrix(-0.62, -0.78, 0.78, -0.62, 116.48, 501.78)">c</text>
    <text class="cls-1" transform="translate(84.8 459.9) rotate(-118.4)">t</text>
    <text class="cls-1" transform="translate(64.9 421.4) rotate(-109.1)">s</text>
    <text class="cls-1" transform="matrix(-0.2, -0.98, 0.98, -0.2, 51.62, 379.16)">.</text>
    <circle class="cls-2" cx="314.5" cy="317.1" r="12.1"/>
    <path class="cls-2" d="M2433,4657.3a249.9,249.9,0,0,1-97.8-19.8,250.9,250.9,0,0,1-133.7-133.7,251.4,251.4,0,0,1,0-195.6,250.9,250.9,0,0,1,133.7-133.7,251.4,251.4,0,0,1,195.6,0,250.9,250.9,0,0,1,133.7,133.7,251.4,251.4,0,0,1,0,195.6,250.9,250.9,0,0,1-133.7,133.7A249.9,249.9,0,0,1,2433,4657.3Zm0-501.8a249.9,249.9,0,0,0-140.1,42.8,250.8,250.8,0,0,0-90.7,110.2,250.4,250.4,0,0,0,23.1,237.6,250.8,250.8,0,0,0,110.2,90.7,250.4,250.4,0,0,0,237.6-23.1,250.8,250.8,0,0,0,90.7-110.2,250.4,250.4,0,0,0-23.1-237.6,250.8,250.8,0,0,0-110.2-90.7A248.4,248.4,0,0,0,2433,4155.5Z" transform="translate(-2118.5 -4088.9)"/>
  </g>
</svg>
