<svg id="Layer_1" data-name="Layer 1" xmlns="http://www.w3.org/2000/svg" viewBox="0 0 974.4 7548.6"><defs><style>.cls-1{fill:none;stroke:#000;stroke-linecap:round;stroke-miterlimit:10;stroke-width:41px}</style></defs><path class="cls-1" d="M106.1 75.4c16.1 487.3 429.1 1033 492.1 1322 8.9 152-293.4 349-321.3 689.9-21.8 265.3 86.1 793.8 108.2 1059.1 6.1 72.9 3 314.8 3 314.8" transform="translate(-85.6 -28.8)"/><path class="cls-1" d="M155.5 72.5C165.9 542 587.6 1092.8 647.2 1392.4c7.9 180.6-292.1 362.1-320.9 692-23.6 265.1 86 793.8 108 1059.1 6.1 72.9 3.1 410.6 3.1 410.6" transform="translate(-85.6 -28.8)"/><path class="cls-1" d="M204.8 69.6c4.8 451.8 435.2 1007.7 491.4 1317.8 7 209.2-290.8 375.3-320.4 694.1-25.5 264.9 85.7 793.8 107.8 1059.1 6.1 72.9 3.2 496.4 3.2 496.4" transform="translate(-85.6 -28.8)"/><path class="cls-1" d="M254.2 66.7c-.9 434.1 438.2 995 491.1 1315.7 6 237.8-288.9 388.5-320 696.2-26.8 264.8 85.5 793.8 107.6 1059.1 6.9 82.8 6 122.9 3.3 402.1" transform="translate(-85.6 -28.8)"/><path class="cls-1" d="M303.6 63.8c-6.6 416.4 441.2 982.3 490.7 1313.6 5 266.4-287.5 401.7-319.5 698.3-28.6 264.5 85.3 793.8 107.3 1059.1 6.1 72.9 3.4 467.9 3.4 467.9" transform="translate(-85.6 -28.8)"/><path class="cls-1" d="M352.9 60.9c-12.3 398.7 444.3 969.7 490.4 1311.4 4 295-286.3 414.8-319.1 700.4-30.4 264.4 85.1 793.8 107.1 1059.1 6.1 72.9 3.6 323.7 3.6 323.7" transform="translate(-85.6 -28.8)"/><path class="cls-1" d="M402.3 58c-18 381 447.3 957 490.1 1309.3 3 323.6-285.1 428-318.7 702.5-32.3 264.2 84.8 793.8 106.9 1059.1 6.1 72.9 3.7 499.5 3.7 499.5" transform="translate(-85.6 -28.8)"/><path class="cls-1" d="M451.7 55.1C428 418.4 902.1 999.4 941.4 1362.3c2 352.2-284 441.1-318.2 704.6s84.6 793.8 106.7 1059.1c6.1 72.9 3.8 535.2 3.8 535.2" transform="translate(-85.6 -28.8)"/><path class="cls-1" d="M501 52.2c-29.3 345.6 453.4 931.7 489.4 1305.1 1 380.9-283.3 454.2-317.8 706.8-36.7 263.7 84.4 793.8 106.5 1059.1 6.1 72.9 6.1 102.9 3.9 471" transform="translate(-85.6 -28.8)"/><path class="cls-1" d="M550.4 49.3c-35 327.8 456.5 919 489.1 1303 0 409.5-282 467.3-317.3 708.9-38.5 263.4 84.2 793.8 106.3 1059.1 6.1 72.9 4 306.8 4 306.8M388 3773.3s-.7 85.1-.7 122.4c0 43.7-6.1 90.2-7.7 123-7.9 168.6-123.2 409-161.3 655.6-38.8 251.3-10.1 462.1 27.7 610 27.1 105.9 69.6 293.8 92.7 383.9 69.8 272.1-61.2 442.3 93.1 946 70.9 231.4-112.5 430.9-61.7 753.1" transform="translate(-85.6 -28.8)"/><path class="cls-1" d="M437.4 3736.4s-2.3 202.4-6 289.5c-1.4 33.4-6 68-12.6 101.6-31 158.7-113.8 370.3-145.7 577.3-38.1 246.7-7 456.4 31.5 607.4 9.3 36.5 20.1 81.2 31.1 127.9 21.6 91.5 42.3 192.1 56.3 255.2 56.5 256.9-48.5 435.3 75.1 880.1q8.4 30.5 17.6 62.4c66.1 229.3-113.4 431.5-63.2 750.5" transform="translate(-85.6 -28.8)"/><path class="cls-1" d="M485.8 3823.5s.9 116.4-2.6 209.7a775.5 775.5 0 01-11.5 105c-28.6 159.9-111.2 385.3-143.9 597.2-37.4 242.2-3.8 450.7 35.3 604.8 9.5 37.3 20.2 81.6 30.9 127.5 20.9 89.7 38.8 188.2 51.2 255 47 253-46.5 443 75.3 876.8 5.7 20.3 11.4 41 17.1 62.3 61.2 227.2-114.4 432-64.7 747.9" transform="translate(-85.6 -28.8)"/><path class="cls-1" d="M535.1 3730.5s0 210.1-.3 309.8c-.1 39.2-5.3 77.2-10.3 108.4-26.1 161.1-108.6 400.2-142.1 617.1-36.7 237.7-.6 445 39.2 602.2 9.6 38.1 20.3 82 30.7 127 20.3 87.9 35.3 184.3 46.1 254.7 38.1 248.8-44.5 450.6 75.5 873.4q8.7 30.4 16.5 62.2c56.3 225.1-115.4 432.6-66.1 745.2" transform="translate(-85.6 -28.8)"/><path class="cls-1" d="M586.5 3694.6s-.5 182.8-.9 352.9a805.6 805.6 0 01-8.2 111.8c-23.5 162.3-106.1 415.2-140.3 637-36 233.1 2.6 439.3 43 599.6 9.8 38.9 20.4 82.4 30.5 126.6 19.6 86.1 32 180.4 41 254.4 29.8 244.6-42.6 458.3 75.6 870 5.9 20.3 11.1 41 16 62 51.5 223-116.3 433.1-67.6 742.6" transform="translate(-85.6 -28.8)"/><path class="cls-1" d="M634.8 3764.7c0 161.4.5 160.3.5 270.1 0 45-1.4 106.5-5 135.2-20.7 163.5-103.5 430.1-138.5 656.9-35.3 228.6 5.8 433.5 46.8 597 10 39.7 20.5 82.8 30.2 126.1 19 84.3 28.9 176.5 35.9 254.1 21.9 240.2-40.6 466 75.8 866.6 6 20.3 11 41 15.4 61.9 46.6 220.9-117.3 433.7-69.1 740" transform="translate(-85.6 -28.8)"/><path class="cls-1" d="M684.2 3807.7s.5 95.9.5 213.9c0 52.2 4.8 106.7-1.5 158.9-19.9 164.6-100.9 445.1-136.7 676.8-34.6 224.1 8.9 427.8 50.6 594.4 10.1 40.5 20.6 83.2 30 125.6 18.3 82.6 25.8 172.5 30.9 253.8 14.6 235.9-38.6 473.6 76 863.2a630.8 630.8 0 0114.8 61.8c41.8 218.8-118.3 434.3-70.5 737.4" transform="translate(-85.6 -28.8)"/><path class="cls-1" d="M733.5 3763.8c0 175.5.3 178.5.3 305.3 0 50.8 4.9 102.3-2.7 162-21.4 167.1-93.4 420.1-129.9 656.8-33.9 219.5 12.1 422.1 54.4 591.8 10.3 41.3 20.7 83.6 29.8 125.2 17.7 80.8 23 168.6 25.8 253.5 7.6 231.5-36.7 481.3 76.2 859.8a510.2 510.2 0 0114.3 61.7c36.9 216.7-119.2 434.8-72 734.8" transform="translate(-85.6 -28.8)"/><path class="cls-1" d="M782.9 3801.8c1.4 146.4.6 63.3.6 194.5 0 53.7 4.1 180.4 2.4 205.4-11.4 167.3-92.8 475-130.1 716.7-33.2 215 15.3 416.4 58.3 589.2 10.5 42.1 20.8 84 29.5 124.7 17 79 20.3 164.7 20.7 253.2.9 227.2-34.7 489 76.3 856.5a416.9 416.9 0 0113.7 61.6c32.1 214.6-120.2 435.4-73.4 732.2" transform="translate(-85.6 -28.8)"/><path class="cls-1" d="M832.2 3881.9s8.7 239.4 3.6 320.4c-10.8 172.6-87.2 500-125.3 746.6-40.4 261.8 48.3 507.9 91.4 710.9 56 264.1-62.2 602.3 92.1 1106 70.9 231.4-112.5 468.9-61.7 791.1" transform="translate(-85.6 -28.8)"/></svg>