<svg id="Layer_1" data-name="Layer 1" xmlns="http://www.w3.org/2000/svg" viewBox="0 0 606 604.1"><defs><style>.cls-1{fill:#d8d8d8;}</style></defs><path class="cls-1" d="M529.6,200.4c-.5-8.3-6.9-14-15.2-14.9s-15.4,2.5-16.2,9.2,8.2,10.7,16.7,14.3,21.3,9.5,19.8,22.5c-1.3,11.2-12,18.3-26.7,16.7s-22.4-11.1-23.2-22.6l7.8-1.1c.1,7.8,5.7,15.4,16.5,16.6s16.6-3.4,17.4-10.4c1.1-9.7-10.2-13-19.4-17-7.3-3.3-18.2-8-16.9-19.6s11.9-17,25.3-15.4,20.8,9.6,21.8,20.5Z" transform="translate(-177.7 -178.4)"/><path class="cls-1" d="M607.9,225.1a26.2,26.2,0,0,0-16.6-19.4c-14.3-5.6-28.9.5-34.9,15.6s1,29.6,15,35.1a26.8,26.8,0,0,0,27.2-4.3l6.4,4.8c-9.5,9-23.4,11.8-36.4,6.7-18-7.1-27.1-26.4-19.7-45.3s27.3-26.8,45.2-19.8a34.7,34.7,0,0,1,22,27.6Z" transform="translate(-177.7 -178.4)"/><path class="cls-1" d="M634.6,301.7l2.8-29.3c-.9-.5-1.9-1.3-2.8-1.9L624.5,263l-14.9,20.1-6.4-4.7,40-54,16.5,12.2c12.6,9.4,15.3,21.6,7.5,32-5.7,7.7-13.8,10.2-22.7,7.2l-2.8,31.1Zm4.8-36.4c8.6,6.4,16.6,5,21.4-1.5s3.3-14.7-4.9-20.8l-10.7-8-16.6,22.3Z" transform="translate(-177.7 -178.4)"/><path class="cls-1" d="M719.5,292.7c12,15.1,10.1,36.5-5.8,49.1s-37.2,9.3-49.1-5.9-10-36.5,5.9-49S707.6,277.5,719.5,292.7Zm-48.8,38.4c9.3,12,25.3,14.2,37.9,4.2s14.3-25.9,4.9-37.9-25.2-14.3-38-4.2S661.2,319.1,670.7,331.1Z" transform="translate(-177.7 -178.4)"/><path class="cls-1" d="M713.7,408l-6.8,3-17.3-40.4,61.8-26.5,3.1,7.3-55,23.6Z" transform="translate(-177.7 -178.4)"/><path class="cls-1" d="M723.8,460l-7.3,1.4-8.1-43.1,66-12.5,1.5,7.8-58.8,11Z" transform="translate(-177.7 -178.4)"/><path class="cls-1" d="M779,530c-3.2,18.9-19.4,31.9-39.3,28.6s-30.2-20.7-27.1-39.3l4.8-28.4L783.7,502Zm-59.1-9.4c-2.3,13.8,5.3,27.4,21.1,30s28.3-7.5,30.7-21.9l3.4-20.1-51.7-8.8Z" transform="translate(-177.7 -178.4)"/><path class="cls-1" d="M750,620.7c-8.9,17.1-29.2,24.2-47.1,14.8s-23.8-30-14.8-47.1,29.1-24.1,47.1-14.7S759,603.6,750,620.7Zm-55.1-28.8c-7,13.5-2.6,28.9,11.7,36.4s29.6,2.3,36.6-11.1,2.7-28.8-11.7-36.4S702,578.4,694.9,591.9Z" transform="translate(-177.7 -178.4)"/><path class="cls-1" d="M657.5,729.5l-30-64.3,5-4.8,32.4,17.9c8.7,4.8,11.7,7,11.8,6.9h.1c.1,0-2.1-3.1-6.5-12L654,639.9l5-4.8L721.9,668l-5.9,5.6-42.4-22.3c-5.3-2.9-8.8-5.2-8.8-5.1h-.1c-.1.1,2.2,3.5,4.7,9.1l16.5,34.5-5,4.8-33.7-18.1a82.7,82.7,0,0,1-8.9-5.1h0c-.1.1,2,3.7,4.6,9.1l20.4,43.3Z" transform="translate(-177.7 -178.4)"/><path class="cls-1" d="M583.8,765.8l-28.5-60.9,6.7-3.1,44.1,23.8c8.6,4.8,15,8.6,15.1,8.5h.1c.1-.1-3.7-7.5-8.3-17.3l-14.9-31.9,7.1-3.3,28.5,60.9-6.7,3.1-44.1-23.7c-7.5-4-14.9-8.3-14.9-8.3h-.1c-.1,0,4,8.1,8,16.8l15,32Z" transform="translate(-177.7 -178.4)"/><path class="cls-1" d="M522.2,715.2a4.8,4.8,0,1,1-9.4,1.4,4.6,4.6,0,0,1,3.9-5.3A4.7,4.7,0,0,1,522.2,715.2Z" transform="translate(-177.7 -178.4)"/><path class="cls-1" d="M437.2,761c.6,8.2,7.1,13.8,15.4,14.6s15.4-2.8,16.1-9.5-8.4-10.5-17-14.1-21.4-9.1-20.1-22.1c1-11.2,11.6-18.5,26.3-17.1s22.6,10.6,23.6,22.1l-7.7,1.3c-.2-7.8-6-15.3-16.9-16.4s-16.4,3.8-17.1,10.7c-.9,9.8,10.4,12.9,19.6,16.8,7.4,3.1,18.4,7.6,17.3,19.2s-11.6,17.2-25,15.9-21-9.2-22.2-20.2Z" transform="translate(-177.7 -178.4)"/><path class="cls-1" d="M358.4,737.6a26.4,26.4,0,0,0,17,19.1c14.4,5.4,28.9-1,34.6-16.2s-1.5-29.5-15.6-34.8a26.4,26.4,0,0,0-27.1,4.8l-6.6-4.7c9.4-9.2,23.2-12.2,36.4-7.4,18,6.8,27.5,26,20.4,44.9s-26.7,27.4-44.8,20.6a34.7,34.7,0,0,1-22.5-27.2Z" transform="translate(-177.7 -178.4)"/><path class="cls-1" d="M330.3,661.6l-2.2,29.2,2.9,2,10.2,7.3,14.5-20.4,6.5,4.6-39.1,54.6-16.6-11.8c-12.8-9.2-15.7-21.4-8.2-31.9,5.6-7.8,13.7-10.4,22.6-7.6l2.3-31.2Zm-4,36.4c-8.8-6.2-16.7-4.7-21.4,1.9s-3.1,14.7,5.2,20.7l10.9,7.8,16.1-22.6Z" transform="translate(-177.7 -178.4)"/><path class="cls-1" d="M245.6,672.1c-12.2-15-10.7-36.4,5-49.2s37-10,49.2,5,10.6,36.3-5.1,49.1S257.8,687,245.6,672.1Zm48.2-39.3c-9.6-11.8-25.5-13.8-38-3.6s-13.8,26.3-4.2,38,25.4,13.9,38,3.5S303.5,644.6,293.8,632.8Z" transform="translate(-177.7 -178.4)"/><path class="cls-1" d="M249.4,556.6l6.7-3,18,40-61.2,27.6-3.3-7.2,54.6-24.6Z" transform="translate(-177.7 -178.4)"/><path class="cls-1" d="M238.4,504.8l7.2-1.5,8.9,43-65.8,13.6-1.6-7.7,58.6-12.1Z" transform="translate(-177.7 -178.4)"/><path class="cls-1" d="M181.9,435.9c2.9-19,18.8-32.3,38.8-29.3s30.5,20.1,27.7,38.7l-4.2,28.6-66.5-10Zm59.2,8.3c2.1-13.8-5.8-27.2-21.6-29.6s-28.1,8-30.3,22.4l-3,20.3L238,465Z" transform="translate(-177.7 -178.4)"/><path class="cls-1" d="M209.3,344.6c8.6-17.2,28.7-24.6,46.8-15.6s24.3,29.6,15.7,46.9-28.8,24.6-46.9,15.5S200.6,361.9,209.3,344.6Zm55.6,27.9c6.8-13.6,2-29-12.4-36.2s-29.6-1.8-36.4,11.8-2.2,28.8,12.4,36.1S258.1,386.1,264.9,372.5Z" transform="translate(-177.7 -178.4)"/><path class="cls-1" d="M299.9,234.2,331,297.9l-4.9,4.9-32.8-17.3c-8.8-4.6-11.9-6.7-11.9-6.7h-.1c-.1.1,2.2,3.1,6.7,11.9l16.9,33-4.9,4.8-63.4-31.7,5.8-5.8,42.7,21.6c5.3,2.8,8.9,5,8.9,5h.1c.1-.1-2.2-3.5-4.8-9l-17.2-34.2,4.9-4.9L311.1,287c5.5,2.7,8.8,5,8.9,4.9h.1c.1-.1-2.1-3.7-4.9-9l-21.1-43Z" transform="translate(-177.7 -178.4)"/><path class="cls-1" d="M372.9,196.6l29.5,60.3-6.6,3.3-44.5-23c-8.7-4.6-15.2-8.3-15.3-8.2h-.1c-.1,0,3.9,7.4,8.6,17.1L360,277.7l-7.1,3.5-29.5-60.4,6.6-3.2,44.5,22.9,15.1,8h.1c.1,0-4.1-8-8.4-16.6L365.8,200Z" transform="translate(-177.7 -178.4)"/><path class="cls-1" d="M435.3,246.1a4.8,4.8,0,1,1,9.4-1.6,4.7,4.7,0,0,1-3.9,5.4A4.8,4.8,0,0,1,435.3,246.1Z" transform="translate(-177.7 -178.4)"/><path class="cls-1" d="M480,682.5c-111.7,0-202.5-90.8-202.5-202.5S368.3,277.5,480,277.5,682.5,368.3,682.5,480,591.7,682.5,480,682.5Zm0-403c-110.6,0-200.5,89.9-200.5,200.5S369.4,680.5,480,680.5,680.5,590.6,680.5,480,590.6,279.5,480,279.5Z" transform="translate(-177.7 -178.4)"/><rect class="cls-1" x="299.3" y="221.3" width="6" height="153"/><rect class="cls-1" x="441.2" y="467.5" width="6" height="107.12" transform="translate(-416 288.3) rotate(-45)"/><rect class="cls-1" x="462.2" y="518" width="107.1" height="6" transform="translate(-395.1 338.9) rotate(-45)"/></svg>