<!-- 
    logo
-->
<svg xmlns="http://www.w3.org/2000/svg" xmlns:xlink="http://www.w3.org/1999/xlink">

  <symbol id="icon-logo" viewBox="0 0 165 165">
    <path d="M82.5 154.3a11.8 11.8 0 01-11.8-11.8v-31.4l-22.3 22.2a11.8 11.8 0 11-16.7-16.7l22.2-22.3H22.5a11.8 11.8 0 010-23.6h31.4L31.7 48.4a11.8 11.8 0 1116.7-16.7l22.3 22.2V22.5a11.8 11.8 0 0123.6 0v31.4l22.3-22.2a11.8 11.8 0 1116.7 16.7l-22.2 22.3h31.4a11.8 11.8 0 110 23.6h-31.4l22.2 22.3a11.8 11.8 0 11-16.7 16.7l-22.3-22.2v31.4a11.8 11.8 0 01-11.8 11.8z" fill="none"/><path class="logo-fill" d="M42.8 131.7l-.8.3zM34.9 130.1a7.4 7.4 0 010-10.3l30-30-30 30a7.4 7.4 0 000 10.3zM15.2 82.5a10.1 10.1 0 00.4 2.5 10.1 10.1 0 01-.4-2.5zM34.9 45.2a7.4 7.4 0 010-10.3 7.4 7.4 0 0110.3 0l30 30-30-30a7.4 7.4 0 00-10.3 0 7.4 7.4 0 000 10.3l30 30zM15.2 82.5a11 11 0 01.2-1.8 11 11 0 00-.2 1.8zM149.1 79.3l.3.7zM148.1 77.9c.2.1.3.3.5.5s-.3-.4-.5-.5zM119.8 34.9a7.4 7.4 0 0110.3 0 7.4 7.4 0 00-10.3 0l-30 30zM131.4 43.5l-.8 1.2zM132.2 40.1a7.1 7.1 0 01-.8 3.4 7.1 7.1 0 00.8-3.4zM15.6 80l.3-.7zM149.8 82.5a10.1 10.1 0 01-.4 2.5 10.1 10.1 0 00.4-2.5zM148.7 86.3l-.3.6zM149.1 85.7a2.1 2.1 0 01-.4.6 2.1 2.1 0 00.4-.6zM149.8 82.5a11 11 0 00-.2-1.8 11 11 0 01.2 1.8z"/><path class="logo-fill" d="M142.5 66.1H122l14.5-14.5a16.3 16.3 0 000-23.1l-.3-.2a16.3 16.3 0 00-11.3-4.5 16 16 0 00-11.5 4.8L98.9 43V22.5A16.5 16.5 0 0082.5 6.1a16.5 16.5 0 00-16.4 16.4V43L51.6 28.5a16 16 0 00-11.5-4.8 16.4 16.4 0 00-16.4 16.4 16 16 0 004.8 11.5L43 66.1H22.5a16.4 16.4 0 000 32.8H43l-14.5 14.5a16.2 16.2 0 00-.1 22.9h.1a16.3 16.3 0 0011.6 4.8 16 16 0 0011.5-4.8L66.1 122v20.5a16.4 16.4 0 0032.8 0V122l14.5 14.5a16 16 0 0011.5 4.8 16.5 16.5 0 0011.5-4.7h.1a16.3 16.3 0 000-23.1L122 98.9h20.5a16.4 16.4 0 000-32.8zm0 31.6h-23.4l16.5 16.5a15.1 15.1 0 010 21.4 14.7 14.7 0 01-10.7 4.5 15.1 15.1 0 01-10.7-4.5l-16.5-16.5v23.4a15.2 15.2 0 01-30.4 0v-23.4l-16.5 16.5a15.1 15.1 0 01-10.7 4.5 14.7 14.7 0 01-10.7-4.5 15.1 15.1 0 010-21.4l16.5-16.5H22.5a15.2 15.2 0 110-30.4h23.4L29.4 50.8a15.1 15.1 0 010-21.4 14.7 14.7 0 0110.7-4.5 15.1 15.1 0 0110.7 4.5l16.5 16.5V22.5A15.2 15.2 0 0182.5 7.3a15.2 15.2 0 0115.2 15.2v23.4l16.5-16.5a15.1 15.1 0 0110.7-4.5 14.7 14.7 0 0110.7 4.5 15.1 15.1 0 010 21.4l-16.5 16.5h23.4a15.2 15.2 0 010 30.4z"/><path class="logo-fill" d="M129.5 130.6a4.7 4.7 0 01-.9.6 4.7 4.7 0 00.9-.6zM100.1 89.8l30 30-30-30zM128 131.6l-1.1.4zM75.2 100.1l-30 30 30-30zM132.2 124.2z"/><path class="logo-fill" d="M82.5 15.2a7.3 7.3 0 017.3 7.3v42.4l30-30a7.4 7.4 0 0110.3 0 7.4 7.4 0 010 10.3l-30 30h42.4a7.3 7.3 0 017.3 7.3 7.3 7.3 0 01-7.3 7.3h-42.4l30 30a7.4 7.4 0 010 10.3 7.4 7.4 0 01-10.3 0l-30-30v42.4a7.3 7.3 0 01-7.3 7.3 7.3 7.3 0 01-7.3-7.3v-42.4l-30 30a7.4 7.4 0 01-10.3 0 7.4 7.4 0 010-10.3l30-30H22.5a7.3 7.3 0 01-7.3-7.3 7.3 7.3 0 017.3-7.3h42.4l-30-30a7.4 7.4 0 010-10.3 7.4 7.4 0 0110.3 0l30 30V22.5a7.3 7.3 0 017.3-7.3m0-6.3a13.6 13.6 0 00-13.6 13.6v27.1L49.7 30.4a13.6 13.6 0 00-19.3 0 13.7 13.7 0 000 19.3l19.2 19.2H22.5a13.6 13.6 0 000 27.2h27.1l-19.2 19.2a13.7 13.7 0 000 19.3 13.6 13.6 0 0019.3 0l19.2-19.2v27.1a13.6 13.6 0 0027.2 0v-27.1l19.2 19.2a13.6 13.6 0 0019.3 0 13.7 13.7 0 000-19.3l-19.2-19.2h27.1a13.6 13.6 0 000-27.2h-27.1l19.2-19.2a13.7 13.7 0 000-19.3 13.6 13.6 0 00-19.3 0L96.1 49.6V22.5A13.6 13.6 0 0082.5 8.9z"/>
  </symbol>




<!-- 
    Arrow Left
-->
<symbol id="icon-arrow-left" viewBox="0 0 165 165">
<defs>
<style>.cls-1{fill:none;stroke:#363636;stroke-linecap:square;stroke-miterlimit:10;stroke-width:10px}</style>
</defs>
<path class="cls-1" d="M105.6 36.3L59.4 82.5M59.4 82.5l46.2 46.2"/>
</symbol>


<!-- 
    Arrow Push
-->
<symbol id="icon-arrow-push" viewBox="0 0 165 165">
<defs>
<style>.cls-1{fill:none;stroke:#363636;stroke-linecap:square;stroke-miterlimit:10;stroke-width:10px}</style>
</defs>
<path class="cls-1" d="M114 115.8l1.2-65.4M115.2 50.4l-65.4-1.2M50.7 115.1l60.4-60.3"/>
</symbol>



<!-- 
    Arrow Right
-->
<symbol id="icon-arrow-right" viewBox="0 0 165 165">
<defs>
<style>.cls-1{fill:none;stroke:#363636;stroke-linecap:square;stroke-miterlimit:10;stroke-width:6px}</style>
</defs>
<path class="cls-1" d="M59.4 36.3l46.2 46.2M105.6 82.5l-46.2 46.2"/>
</symbol>


<!-- 
    Background Lines
-->
<symbol id="bg-lines" viewBox="0 0 974.4 7548.6">
<defs>
<style>.cls-1{fill:none;stroke:#363636;stroke-linecap:round;stroke-miterlimit:10;stroke-width:41px}</style>
</defs>
<path class="cls-1" d="M106.1 75.4c16.1 487.3 429.1 1033 492.1 1322 8.9 152-293.4 349-321.3 689.9-21.8 265.3 86.1 793.8 108.2 1059.1 6.1 72.9 3 314.8 3 314.8" transform="translate(-85.6 -28.8)"/><path class="cls-1" d="M155.5 72.5C165.9 542 587.6 1092.8 647.2 1392.4c7.9 180.6-292.1 362.1-320.9 692-23.6 265.1 86 793.8 108 1059.1 6.1 72.9 3.1 410.6 3.1 410.6" transform="translate(-85.6 -28.8)"/><path class="cls-1" d="M204.8 69.6c4.8 451.8 435.2 1007.7 491.4 1317.8 7 209.2-290.8 375.3-320.4 694.1-25.5 264.9 85.7 793.8 107.8 1059.1 6.1 72.9 3.2 496.4 3.2 496.4" transform="translate(-85.6 -28.8)"/><path class="cls-1" d="M254.2 66.7c-.9 434.1 438.2 995 491.1 1315.7 6 237.8-288.9 388.5-320 696.2-26.8 264.8 85.5 793.8 107.6 1059.1 6.9 82.8 6 122.9 3.3 402.1" transform="translate(-85.6 -28.8)"/><path class="cls-1" d="M303.6 63.8c-6.6 416.4 441.2 982.3 490.7 1313.6 5 266.4-287.5 401.7-319.5 698.3-28.6 264.5 85.3 793.8 107.3 1059.1 6.1 72.9 3.4 467.9 3.4 467.9" transform="translate(-85.6 -28.8)"/><path class="cls-1" d="M352.9 60.9c-12.3 398.7 444.3 969.7 490.4 1311.4 4 295-286.3 414.8-319.1 700.4-30.4 264.4 85.1 793.8 107.1 1059.1 6.1 72.9 3.6 323.7 3.6 323.7" transform="translate(-85.6 -28.8)"/><path class="cls-1" d="M402.3 58c-18 381 447.3 957 490.1 1309.3 3 323.6-285.1 428-318.7 702.5-32.3 264.2 84.8 793.8 106.9 1059.1 6.1 72.9 3.7 499.5 3.7 499.5" transform="translate(-85.6 -28.8)"/><path class="cls-1" d="M451.7 55.1C428 418.4 902.1 999.4 941.4 1362.3c2 352.2-284 441.1-318.2 704.6s84.6 793.8 106.7 1059.1c6.1 72.9 3.8 535.2 3.8 535.2" transform="translate(-85.6 -28.8)"/><path class="cls-1" d="M501 52.2c-29.3 345.6 453.4 931.7 489.4 1305.1 1 380.9-283.3 454.2-317.8 706.8-36.7 263.7 84.4 793.8 106.5 1059.1 6.1 72.9 6.1 102.9 3.9 471" transform="translate(-85.6 -28.8)"/><path class="cls-1" d="M550.4 49.3c-35 327.8 456.5 919 489.1 1303 0 409.5-282 467.3-317.3 708.9-38.5 263.4 84.2 793.8 106.3 1059.1 6.1 72.9 4 306.8 4 306.8M388 3773.3s-.7 85.1-.7 122.4c0 43.7-6.1 90.2-7.7 123-7.9 168.6-123.2 409-161.3 655.6-38.8 251.3-10.1 462.1 27.7 610 27.1 105.9 69.6 293.8 92.7 383.9 69.8 272.1-61.2 442.3 93.1 946 70.9 231.4-112.5 430.9-61.7 753.1" transform="translate(-85.6 -28.8)"/><path class="cls-1" d="M437.4 3736.4s-2.3 202.4-6 289.5c-1.4 33.4-6 68-12.6 101.6-31 158.7-113.8 370.3-145.7 577.3-38.1 246.7-7 456.4 31.5 607.4 9.3 36.5 20.1 81.2 31.1 127.9 21.6 91.5 42.3 192.1 56.3 255.2 56.5 256.9-48.5 435.3 75.1 880.1q8.4 30.5 17.6 62.4c66.1 229.3-113.4 431.5-63.2 750.5" transform="translate(-85.6 -28.8)"/><path class="cls-1" d="M485.8 3823.5s.9 116.4-2.6 209.7a775.5 775.5 0 01-11.5 105c-28.6 159.9-111.2 385.3-143.9 597.2-37.4 242.2-3.8 450.7 35.3 604.8 9.5 37.3 20.2 81.6 30.9 127.5 20.9 89.7 38.8 188.2 51.2 255 47 253-46.5 443 75.3 876.8 5.7 20.3 11.4 41 17.1 62.3 61.2 227.2-114.4 432-64.7 747.9" transform="translate(-85.6 -28.8)"/><path class="cls-1" d="M535.1 3730.5s0 210.1-.3 309.8c-.1 39.2-5.3 77.2-10.3 108.4-26.1 161.1-108.6 400.2-142.1 617.1-36.7 237.7-.6 445 39.2 602.2 9.6 38.1 20.3 82 30.7 127 20.3 87.9 35.3 184.3 46.1 254.7 38.1 248.8-44.5 450.6 75.5 873.4q8.7 30.4 16.5 62.2c56.3 225.1-115.4 432.6-66.1 745.2" transform="translate(-85.6 -28.8)"/><path class="cls-1" d="M586.5 3694.6s-.5 182.8-.9 352.9a805.6 805.6 0 01-8.2 111.8c-23.5 162.3-106.1 415.2-140.3 637-36 233.1 2.6 439.3 43 599.6 9.8 38.9 20.4 82.4 30.5 126.6 19.6 86.1 32 180.4 41 254.4 29.8 244.6-42.6 458.3 75.6 870 5.9 20.3 11.1 41 16 62 51.5 223-116.3 433.1-67.6 742.6" transform="translate(-85.6 -28.8)"/><path class="cls-1" d="M634.8 3764.7c0 161.4.5 160.3.5 270.1 0 45-1.4 106.5-5 135.2-20.7 163.5-103.5 430.1-138.5 656.9-35.3 228.6 5.8 433.5 46.8 597 10 39.7 20.5 82.8 30.2 126.1 19 84.3 28.9 176.5 35.9 254.1 21.9 240.2-40.6 466 75.8 866.6 6 20.3 11 41 15.4 61.9 46.6 220.9-117.3 433.7-69.1 740" transform="translate(-85.6 -28.8)"/><path class="cls-1" d="M684.2 3807.7s.5 95.9.5 213.9c0 52.2 4.8 106.7-1.5 158.9-19.9 164.6-100.9 445.1-136.7 676.8-34.6 224.1 8.9 427.8 50.6 594.4 10.1 40.5 20.6 83.2 30 125.6 18.3 82.6 25.8 172.5 30.9 253.8 14.6 235.9-38.6 473.6 76 863.2a630.8 630.8 0 0114.8 61.8c41.8 218.8-118.3 434.3-70.5 737.4" transform="translate(-85.6 -28.8)"/><path class="cls-1" d="M733.5 3763.8c0 175.5.3 178.5.3 305.3 0 50.8 4.9 102.3-2.7 162-21.4 167.1-93.4 420.1-129.9 656.8-33.9 219.5 12.1 422.1 54.4 591.8 10.3 41.3 20.7 83.6 29.8 125.2 17.7 80.8 23 168.6 25.8 253.5 7.6 231.5-36.7 481.3 76.2 859.8a510.2 510.2 0 0114.3 61.7c36.9 216.7-119.2 434.8-72 734.8" transform="translate(-85.6 -28.8)"/><path class="cls-1" d="M782.9 3801.8c1.4 146.4.6 63.3.6 194.5 0 53.7 4.1 180.4 2.4 205.4-11.4 167.3-92.8 475-130.1 716.7-33.2 215 15.3 416.4 58.3 589.2 10.5 42.1 20.8 84 29.5 124.7 17 79 20.3 164.7 20.7 253.2.9 227.2-34.7 489 76.3 856.5a416.9 416.9 0 0113.7 61.6c32.1 214.6-120.2 435.4-73.4 732.2" transform="translate(-85.6 -28.8)"/><path class="cls-1" d="M832.2 3881.9s8.7 239.4 3.6 320.4c-10.8 172.6-87.2 500-125.3 746.6-40.4 261.8 48.3 507.9 91.4 710.9 56 264.1-62.2 602.3 92.1 1106 70.9 231.4-112.5 468.9-61.7 791.1" transform="translate(-85.6 -28.8)"/>
</symbol>



<!-- 
    Behance
-->
<symbol id="icon-behance" viewBox="0 0 165 165">
<path d="M71.8 78.8s10.5-.8 10.5-13.1-8.6-18.3-19.5-18.3H27.1v68.7h35.7s21.9.7 21.9-20.2c0 0 .9-17.1-12.9-17.1zM60.3 59.6h2.5s4.9 0 4.9 7.2-2.8 8.2-6.1 8.2H42.8V59.6zm1.5 44.3h-19V85.6h20s7.3-.1 7.3 9.4-5.4 8.9-8.3 8.9zm52-39c-26.4 0-26.4 26.4-26.4 26.4s-1.8 26.3 26.4 26.3c0 0 23.5 1.3 23.5-18.3h-12.1s.4 7.4-11 7.4c0 0-12.1.8-12.1-12h35.6s3.9-29.8-23.9-29.8zM102 85.6S103.5 75 114.1 75s10.5 10.6 10.5 10.6zm25.4-25.7H99v-8.5h28.4v8.5z"/>
</symbol>



<!-- 
    Branding
-->
<symbol id="icon-branding" viewBox="0 0 165 165">
<path d="M77.5 144.5a1 1 0 00-1-1H53.1a1 1 0 00-1 1 .9.9 0 001 1h23.4a1 1 0 001-1zM85.1 144.5a1 1 0 00-1-1h-3.9a1 1 0 00-1 1 .9.9 0 001 1h3.9a1 1 0 001-1zM87.4 145.5h2.5a1 1 0 001-1 .9.9 0 00-1-1h-2.5a1 1 0 000 2zM106.3 148.3H82.9a1 1 0 00-1 1 .9.9 0 001 1h23.4a1 1 0 100-2zM79.1 148.3h-3.9a1 1 0 00-1 1 .9.9 0 001 1h3.9a1 1 0 001-1 .9.9 0 00-1-1zM72 148.3h-2.5a1 1 0 00-1 1 .9.9 0 001 1H72a1 1 0 000-2zM53.9 48.3a10.6 10.6 0 007.2-2.7 11 11 0 0015.1-.6 1 1 0 000-1.4 11.1 11.1 0 00-7.9-3.3 11 11 0 00-4 .8 11 11 0 00.8-4 11.1 11.1 0 00-3.3-7.9 1 1 0 00-1.4 0 11.1 11.1 0 00-3.3 7.9 11 11 0 00.8 4 11 11 0 00-4-.8 11.1 11.1 0 00-7.9 3.3 1 1 0 000 1.4 10.7 10.7 0 007.9 3.3zm20.2-3.9a9.2 9.2 0 01-11.5 0 9.2 9.2 0 0111.5 0zm-13-13a9.2 9.2 0 010 11.5 9.2 9.2 0 010-11.5zm-1.5 13a9.2 9.2 0 01-11.5 0 9.2 9.2 0 0111.5 0zM93.3 102.1a8.3 8.3 0 00-2-8 1 1 0 00-1.4 0 8 8 0 00-2 8 8.3 8.3 0 00-8 2 1 1 0 000 1.4 7.8 7.8 0 005.7 2.3 8.4 8.4 0 005-1.7 7.8 7.8 0 005 1.7 8.3 8.3 0 005.7-2.3 1 1 0 000-1.4 8 8 0 00-8-2zm-2.7-5.8a6 6 0 010 7 6 6 0 010-7zm-8.5 8.5a6 6 0 017 0 6.4 6.4 0 01-7 0zm10 0a6 6 0 017 0 6.4 6.4 0 01-7 0z"/><path d="M163.5 53a16.7 16.7 0 00-16.7-16.7h-.3v-2.7a1 1 0 00-1-1H140a78.3 78.3 0 00-110.9-9.7h-9a1 1 0 00-1 1V33a78.2 78.2 0 00.1 99v5.7a1 1 0 001 1h5.2a78.3 78.3 0 00115-6.7h10.5a1 1 0 001-1v-18a77.4 77.4 0 006.2-30.5 74.7 74.7 0 00-1.6-15.7 17.4 17.4 0 007-13.8zm-9.3 5.8a75.5 75.5 0 00-6.7-15.1 9.4 9.4 0 018.6 9.4 8.4 8.4 0 01-1.9 5.7zm-7.7-13.1a72.8 72.8 0 016.2 14.7 9.1 9.1 0 01-6.2 2.1zm-2 27.9a5.8 5.8 0 01-5.7 5.7h-22.2a5.8 5.8 0 01-5.7-5.7v-39h33.6zM3.4 82.5a77 77 0 0115.7-46.4v92.7A76.5 76.5 0 013.4 82.5zm17.7-57.7h80v63.5H74.3a1 1 0 00-1 1V131a1 1 0 001 1h26.8v4.8h-80zm7.1 113.9h103.1a76.2 76.2 0 01-103.1 0zm105.1-1.9H103V132h34.8zM75.2 130V90.3h74.5V130zM156 82.5a73.2 73.2 0 01-4.3 25.1V89.3a1 1 0 00-1-1H103V23.8a1 1 0 00-1-1H32.2a76.3 76.3 0 01105.2 9.8H110a1 1 0 00-1 1v40a7.6 7.6 0 007.6 7.6h22.2a7.6 7.6 0 007.6-7.6v-3.9h.3a16.6 16.6 0 007.7-1.9 66.9 66.9 0 011.6 14.7zm-9.2-14.7h-.3v-3.4a11 11 0 007.9-2.9h.1a11.1 11.1 0 003.7-8.3 11.3 11.3 0 00-11.3-11.3h-.3v-3.5h.3a14.7 14.7 0 11-.1 29.4z"/><path d="M122.6 52.3a8.1 8.1 0 005.1-1.8 8.2 8.2 0 0010.9-.6 1 1 0 000-1.4 8.1 8.1 0 00-8.2-2 8.3 8.3 0 00-2-8.2 1 1 0 00-1.4 0 8.1 8.1 0 00-2 8.2 8.3 8.3 0 00-8.2 2 1 1 0 000 1.4 8.2 8.2 0 005.8 2.4zm13.9-3.1a6.3 6.3 0 01-7.2 0 6 6 0 017.2 0zm-8.8-8.8a6.3 6.3 0 010 7.2 6.3 6.3 0 010-7.2zm-1.4 8.8a6.3 6.3 0 01-7.2 0 6 6 0 017.2 0zM121.9 63.6a1 1 0 00-1 1 .9.9 0 001 1h11.6a1 1 0 001-1 .9.9 0 00-1-1zM117.4 71.6H138a1 1 0 000-2h-20.6a1 1 0 00-1 1 1.1 1.1 0 001 1zM91.5 50.9a1 1 0 00-1-1h-59a1 1 0 00-1 1 .9.9 0 001 1h59a.9.9 0 001-1zM82.3 55.3a1 1 0 00-1-1H40.8a1 1 0 000 2h40.6a1.1 1.1 0 00.9-1zM145.3 123.2h-35.4a1 1 0 000 2h35.4a1 1 0 001-1 .9.9 0 00-1-1zM145.3 117.2H124a1 1 0 000 2h21.3a1 1 0 000-2z"/>
</symbol>



<!-- 
    CMS
-->
<symbol id="icon-cms" viewBox="0 0 165 165">
<path d="M163.5 82.5a80.6 80.6 0 00-12.2-42.8V23.6a6.7 6.7 0 00-6.7-6.7H130a81 81 0 00-95 0H20.4a6.7 6.7 0 00-6.7 6.7v16.1a81 81 0 10149.8 42.8zm-2 0a78.4 78.4 0 01-23.6 56.2h-23.8a4.9 4.9 0 001.1-3.1 5.1 5.1 0 00-5.1-5.1h-.9l-4.5-12.9h39.9a6.7 6.7 0 006.7-6.7V43.6a79 79 0 0110.2 38.9zM51.8 135.6a3.1 3.1 0 013.1-3.1H110a3.1 3.1 0 110 6.2H54.9a3.1 3.1 0 01-3.1-3.1zm-36.1-33.9h133.6v9.2a4.7 4.7 0 01-4.7 4.7H20.4a4.7 4.7 0 01-4.7-4.7zm86.9 15.9l4.5 12.9H57.9l4.5-12.9zM82.5 3.5a78.1 78.1 0 0144 13.4h-88a78.1 78.1 0 0144-13.4zM15.7 23.6a4.7 4.7 0 014.7-4.7h124.2a4.7 4.7 0 014.7 4.7v76.1H15.7zM3.5 82.5a79 79 0 0110.2-38.9v67.3a6.7 6.7 0 006.7 6.7h39.9l-4.5 12.9h-.9a5.1 5.1 0 00-5.1 5.1 4.9 4.9 0 001.1 3.1H27.1A78.4 78.4 0 013.5 82.5zm25.7 58.2h106.7a78.8 78.8 0 01-106.7 0z"/><path d="M80.2 146.8a.9.9 0 00-1-1H55a1 1 0 000 2h24.2a1.1 1.1 0 001-1zM88.1 146.8a.9.9 0 00-1-1h-4a1 1 0 000 2h4a1.1 1.1 0 001-1zM90.5 147.8h2.6a1 1 0 000-2h-2.6a1 1 0 000 2zM110 150.7H85.8a1 1 0 000 2H110a1 1 0 000-2zM81.9 150.7h-4a1 1 0 000 2h4a1 1 0 000-2zM74.5 150.7h-2.6a1 1 0 000 2h2.6a1 1 0 000-2zM82.5 113.4a4.9 4.9 0 10-4.9-4.9 4.9 4.9 0 004.9 4.9zm0-7.8a2.9 2.9 0 11-2.9 2.9 2.9 2.9 0 012.9-2.9zM140.8 26.4H24.2a.9.9 0 00-1 1v63.8a.9.9 0 001 1h116.6a.9.9 0 001-1V27.4a1 1 0 00-1-1zm-115.6 2h114.6v5.7H25.2zm0 7.7h81.5v54.1H25.2zm114.6 54.1h-31.1V36.1h31.1z"/><path d="M114.3 85.6h19.9a.9.9 0 001-1V68.4a.9.9 0 00-1-1h-19.9a.9.9 0 00-1 1v16.2a.9.9 0 001 1zm1-16.2h17.9v14.2h-17.9zM88.5 38.3H51.7a.9.9 0 00-1 1V87a.9.9 0 001 1h36.7a.9.9 0 001-1V39.3a.9.9 0 00-.9-1zm-1 47.7H52.7V40.3h34.7V86z"/><path d="M65.4 69.3v6.4a.9.9 0 001 1h16.3a.9.9 0 001-1V59.5a.9.9 0 00-1-1h-6.4a9.9 9.9 0 10-10.9 10.8zm16.3 5.4H67.4v-5.4c1.1-.4 8.1-1.2 8.9-8.9h5.4zM66.4 51.5c8.6 0 11 11.9 3.1 15.2a7.9 7.9 0 11-3.1-15.2zM39.1 30.2h-9.3a1 1 0 100 2h9.3a1 1 0 000-2zM52.1 30.2h-9.3a1 1 0 100 2h9.3a1 1 0 000-2zM65.2 30.2h-9.3a1 1 0 100 2h9.3a.9.9 0 001-1 1 1 0 00-1-1zM78.2 30.2h-9.3a1 1 0 100 2h9.3a1 1 0 000-2zM91.3 30.2H82a1 1 0 100 2h9.3a.9.9 0 001-1 1 1 0 00-1-1zM135.2 32.2a1 1 0 000-2h-27.5a1 1 0 100 2zM114.3 42.6h19.9a1 1 0 000-2h-19.9a1 1 0 000 2zM114.3 48.6h19.9a1 1 0 000-2h-19.9a1 1 0 000 2zM114.3 54.6h19.9a1 1 0 000-2h-19.9a1 1 0 000 2zM114.3 60.5h19.9a1 1 0 000-2h-19.9a1 1 0 000 2z"/>
</symbol>


<!-- 
    Dribbble
-->
<symbol id="icon-dribbble" viewBox="0 0 165 165">
<path d="M46.9 82.5a35.1 35.1 0 014.8-17.9 36.2 36.2 0 0112.9-12.9 35.8 35.8 0 0135.8 0 36.2 36.2 0 0112.9 12.9 35.8 35.8 0 010 35.8 36.2 36.2 0 01-12.9 12.9 35.8 35.8 0 01-35.8 0 36.2 36.2 0 01-12.9-12.9 35.1 35.1 0 01-4.8-17.9zm5.9 0a28.8 28.8 0 007.5 19.6 41.9 41.9 0 0110.8-12.8c5-4 9.8-6.5 14.5-7.6-.8-1.6-1.4-3.1-2.1-4.5A87.1 87.1 0 0157 81.1h-4.1v.7c0 .3-.1.5-.1.7zm1-7.3h4.6A78.9 78.9 0 0080.9 72a73 73 0 00-11.8-16 28.4 28.4 0 00-9.7 8 30.3 30.3 0 00-5.6 11.2zm10.6 30.7a28.5 28.5 0 0018.1 6.3 30.1 30.1 0 0010.5-2 105.4 105.4 0 00-5.6-23.6q-6.6 1.5-13.2 7.2a39.9 39.9 0 00-9.8 12.1zm10.8-52.1A74 74 0 0186.8 70c6.5-2.7 11.3-6.2 14.6-10.3a28.6 28.6 0 00-18.9-6.9 31.3 31.3 0 00-7.3 1zM89.4 75c.7 1.5 1.5 3.5 2.4 5.8 3.5-.3 7.3-.5 11.5-.5l8.7.2a28.5 28.5 0 00-7-17.2c-3 4.6-8.3 8.5-15.6 11.7zm4.2 10.8a105.7 105.7 0 014.9 21.6 30.2 30.2 0 009.2-9.3 28.6 28.6 0 004.2-12.3c-3.4-.3-6.6-.4-9.4-.4s-5.6.1-8.9.4z"/>
</symbol>



<!-- 
    eCommerce 
-->
<symbol id="icon-eCommerce" viewBox="0 0 165 165">
<path d="M163.5 82.5a80.7 80.7 0 00-16.4-48.9V12.1a.9.9 0 00-1-1h-25.3a80.8 80.8 0 00-76.4 0H19.1a.9.9 0 00-1 1v21.5a80.6 80.6 0 00-1.1 96.5v9.6a.9.9 0 001 1h8.2a80.9 80.9 0 00112.6 0h8.2a.9.9 0 001-1v-9.6a80.4 80.4 0 0015.5-47.6zm-2 0a78.3 78.3 0 01-13.5 44.1v-.5a.9.9 0 00-1-1h-3.6v-5.5a.9.9 0 00-1-1h-2.1v-66a7.3 7.3 0 006.7-7.3V37a77.7 77.7 0 0114.5 45.5zm-134.9-30a7.5 7.5 0 005-3.5 7.4 7.4 0 0012.8 0 7.4 7.4 0 0012.8 0A7.4 7.4 0 0070 49a7.4 7.4 0 0012.8 0 7.4 7.4 0 0012.8 0 7.4 7.4 0 0012.8 0 7.4 7.4 0 0012.8 0 7.4 7.4 0 0012.8 0 7.5 7.5 0 005 3.5v66.1H63V70.8a.9.9 0 00-1-1H34.8a.9.9 0 00-1 1v47.8h-7.1V52.5zm29.5-7.2a5.4 5.4 0 01-10.8 0V13.1H56v32.2zm2-32.2h10.7v32.2a5.4 5.4 0 11-10.8 0V13.1zm12.7 0h10.7v32.2a5.4 5.4 0 01-10.8 0V13.1zm12.7 0h10.7v32.2a5.4 5.4 0 01-10.8 0V13.1zm12.7 0h10.7v32.2a5.4 5.4 0 11-10.8 0V13.1zm12.7 0h10.7v32.2a5.4 5.4 0 11-10.8 0V13.1zM61 118.6H35.8V71.8H61zm-35.4 2h115.8v4.5H23.5v-4.5zm119.5-75.3a5.4 5.4 0 01-10.8 0V13.1H145v32.2zm-12.7 0a5.4 5.4 0 11-10.8 0V13.1h10.7v32.2zm-16.1-34.2H48.7a79 79 0 0167.6 0zM43.4 45.3a5.4 5.4 0 01-10.8 0V13.1h10.7v32.2zM19.9 13.1h10.7v32.2a5.4 5.4 0 01-10.8 0V13.1zM3.5 82.5A78.3 78.3 0 0117.9 37v8.3a7.4 7.4 0 006.7 7.3v66h-2.1a.9.9 0 00-1 1v5.5c-2.2.2-4.6-.6-4.6 1v.5A79 79 0 013.5 82.5zm25.6 58.2h106.8a78.9 78.9 0 01-106.8 0zm116.9-2H19v-11.6h127z"/><path d="M80.2 146.8a.9.9 0 00-1-1H55a1 1 0 000 2h24.2a1.1 1.1 0 001-1zM88.1 146.8a.9.9 0 00-1-1h-4a1 1 0 000 2h4a1.1 1.1 0 001-1zM90.5 147.8h2.6a1 1 0 000-2h-2.6a1 1 0 000 2zM110 150.7H85.8a1 1 0 000 2H110a1 1 0 000-2zM81.9 150.7h-4a1 1 0 000 2h4a1 1 0 000-2zM74.5 150.7h-2.6a1 1 0 000 2h2.6a1 1 0 000-2zM39.9 96.4h17a.9.9 0 001-1V75.9a.9.9 0 00-1-1h-17a.9.9 0 00-1 1v19.5a1 1 0 001 1zm1-19.5h15v17.5h-15zM39.9 115.5h17a.9.9 0 001-1v-11.4a.9.9 0 00-1-1h-17a.9.9 0 00-1 1v11.4a.9.9 0 001 1zm1-11.3h15v9.4h-15z"/><circle cx="55.8" cy="98.8" r="2.1"/><path d="M73.2 102.1h57a.9.9 0 001-1V63.6a.9.9 0 00-1-1h-57a.9.9 0 00-1 1v37.5a.9.9 0 001 1zm56-2h-26.5V64.6h26.5zm-55-35.5h26.5v35.5H74.2z"/>
</symbol>



<!-- 
    Hosting 
-->
<symbol id="icon-hosting" viewBox="0 0 165 165">
<path d="M158.2 53.6a48.4 48.4 0 00-48.5-47.5 81.3 81.3 0 00-58.6 1.7 16.6 16.6 0 00-7.9-2 16.8 16.8 0 00-16.8 16.8 6.6 6.6 0 00.1 1.4 80.3 80.3 0 00-25 58.5 81.5 81.5 0 0010.6 40.1v2.4H2.5a.9.9 0 00-1 1 14.7 14.7 0 0014.7 14.7h10a80.6 80.6 0 0056.3 22.8c57 0 95.8-57.4 75.7-109.9zm-29.1 43.2V64.2c2.5 3.3-1.1 3.1 2 9.8s3 8.2 5.8 8 4.8-2.7 5.8-5.9 1.3-1.5 2-5 3.9-5.5 2.4-9.6.1-2.9 2-7.4a22.2 22.2 0 001.5-6.4 1 1 0 00-1.3-1 26.1 26.1 0 012.4-2.2 3.2 3.2 0 00.9-4.3h1.4a46.5 46.5 0 01-24.9 56.6zm-9.5-50h-10.4c1.1-2.1 3.4-1.8 3.2-4.6l1.5-2c2.4.8 4.2-1.5 9-2.2.4 2.1 1 2.4 3.5 2.3a3.4 3.4 0 004 .1 3.7 3.7 0 012.7-.7c.8.1.2-.1 3.3 0h1.4a1.9 1.9 0 00.4 2.1c2.4 2.4.9 2.9 4.8 6s1.9 3.1 5.4 1.6c-1.1 7.6-4.4 5.7-4.1 9.5s2 4.3.7 6.4a25.7 25.7 0 00-1.8 3.7c-.6 1.6-.5 3.1-1.3 4.3s-1.3 6.6-5.1 6.9c-1.2.1-.3.7-3.8-6.8s2.1-5.8-3.8-12v-4.9a9.7 9.7 0 00-9.6-9.7zm7.5 9.5V125h-113V56.3a7.6 7.6 0 017.5-7.5h98a7.5 7.5 0 017.5 7.5zm-9.5-18.9c2.3-3.8 3.1-4.4 6.8-2.2a1.7 1.7 0 00-.8.6c-2.8.5-3 .3-6 1.6zm7.3.1c1.3.4 1.8.6 2.4-1.3s.2-.7.4-.8c1.8 2 3.5 1.6 4 .3 1.8 1.5 3.2.4 5.3.6a6.1 6.1 0 00-.5 1.2h-.1c-3-.1-2.8.1-3.2 0-3.9-.3-3.8 2.1-5.5 1.1s-1.2-.2-2.7-.5a2.8 2.8 0 00-.1-.6zm8.9-20.6c1 .4 1.3-.7 1.5-1a46.4 46.4 0 0117.9 22.4 10.8 10.8 0 01-1.8 0c-4.8-.6-5.2-1.1-5.7-.4s-.1 1.1 0 1.4.6 2.2 1.8 2.5a2.7 2.7 0 002.7-1.2c1 .7 1.3 1.7.3 2.4-3.3 2.6-3.6 4.3-5 3.1-3.4-2.9-1.3-2.8-5.6-6.2-.6-.5-.8-.8-1.4-.7s-.5-.9.4-2a1.6 1.6 0 00-1.1-2.8 9.4 9.4 0 00-2.9 0 1.8 1.8 0 01-2.5-1.3c-.4-1.1-1.5-.5-1.7-.5s-1.3.3-1.7 1.1c-1-1.9-2.9-2.3-4.1-2.8a1.9 1.9 0 00-1.3 0c-.9.2-1.1.4-1.1 1.3-3.3-1.3-5.6 2.4-7.1 5.1a11 11 0 01-3.1.4c0-.1 0 .2-.5-2.5.8-.1 1.7 0 2.7-.2s1.9-.9 2-1.5-.9-1.9-1.5-2.2a2.2 2.2 0 001.9-1.5c3.2-2.6 3.4-2.8 3.5-3s3.5-.1 4.8-.6a1.9 1.9 0 001-2.1l2.6-2.1a1 1 0 00-.7-1.8c-1.2.1-2.2.9-2.6.4s-.2-.4 0-.6a5.2 5.2 0 00.7-1.2 1 1 0 00-1.1-1.4 6.4 6.4 0 00-1 .4c-3.1 1.2-1.8 4-1.8 5.7-1.2-.8-2.5-1.7-4.3-.9l-.2-.4a1.7 1.7 0 01.8-.9 2.5 2.5 0 002-2.4c0-.4.1-.5.6-1 2.2-2.3 2.1-1.2 2.8-2h1.5a5.8 5.8 0 002.7.3 1.1 1.1 0 00-.1 1.7c1.5 1.1 2.9 2.6 3.7.8a3.5 3.5 0 002-1.8zm-9.7 5.2l.4.3a.9.9 0 00-.4.6zm8.2-8.1a1.1 1.1 0 00-1 .6c-1-.6-4.7-.4-5.2-.6a7.4 7.4 0 00-2.9-.2.9.9 0 00-.9.6 6.5 6.5 0 00-2.8 2.1c-1.9 2.1-.5 2.6-1.6 2.9a3.2 3.2 0 00-2.2 3.1 3.3 3.3 0 00.5 1.2c.5.7.9 1.2 1.9 1a1.9 1.9 0 00.2 1.3c-3.4 2.8-3.3 2.6-3.3 3.2a6.7 6.7 0 00-1.6.6c-.3.2-1.7.3-.9 1.9s.8 1 1.7 1.4c-1.2.2-5-.4-4.2 2.7s.1 3.7 2 4c-2.7 3.5-.2 2.8-2.6 4.3a6.1 6.1 0 00-2.2 3h-43A46.3 46.3 0 01132.3 14zM43.2 7.8a14.8 14.8 0 11-14.8 14.8A14.8 14.8 0 0143.2 7.8zM3.5 82.5a78.3 78.3 0 0123.4-56.1A16.8 16.8 0 0060 22.5 16.9 16.9 0 0053.2 9a78.4 78.4 0 0151-2.6A48.7 48.7 0 0062 46.8H21.6a9.6 9.6 0 00-9.5 9.5v62.1a79.8 79.8 0 01-8.6-35.9zm12.7 56.2A12.8 12.8 0 013.5 127h134.2a12.7 12.7 0 01-12.7 11.7zm66.3 22.8a78.7 78.7 0 01-53.4-20.8h106.7a78.6 78.6 0 01-53.3 20.8zm55.4-22.8h-5.6a14.8 14.8 0 007.4-12.7.9.9 0 00-1-1h-9.6V99A48.3 48.3 0 00158 59.2a78.9 78.9 0 01-20.1 79.5z"/><path d="M54.9 147.8h24.2a1 1 0 000-2H54.9a.9.9 0 00-1 1 1 1 0 001 1zM83.1 147.8h4a1 1 0 000-2h-4a1 1 0 000 2zM90.5 147.8h2.6a1 1 0 000-2h-2.6a1 1 0 000 2zM84.8 151.7a.9.9 0 001 1H110a1 1 0 000-2H85.8a.9.9 0 00-1 1zM76.9 151.7a.9.9 0 001 1h4a1 1 0 000-2h-4a1 1 0 00-1 1zM74.5 150.7h-2.6a1 1 0 000 2h2.6a1 1 0 000-2zM119.6 55.1h-98a1.1 1.1 0 00-1.1 1.1v61.4a.9.9 0 001 1h98.3a.9.9 0 001-1V56.3a1.3 1.3 0 00-1.2-1.2zm-.9 61.5H22.4V57.1h96.3z"/><path d="M25.4 90.6h29.5a.9.9 0 001-1V60.1a.9.9 0 00-1-1H25.4a.9.9 0 00-1 1v29.5a1 1 0 001 1zm1-29.5h27.5v27.5H26.4zM60.5 62.3h12.7a1 1 0 000-2H60.5a.9.9 0 00-1 1 1 1 0 001 1zM70.4 69.5a.9.9 0 001 1h11.1a1 1 0 000-2H71.4a1 1 0 00-1 1zM85.5 70.5h11.1a1 1 0 000-2H85.5a.9.9 0 00-1 1 1 1 0 001 1zM99.7 70.9h15a1 1 0 100-2h-15a1 1 0 000 2zM90 77.8a.9.9 0 00-1-1H71.4a1 1 0 000 2H89a1.1 1.1 0 001-1zM114.6 76.8H93a1 1 0 000 2h21.7a.9.9 0 001-1 1 1 0 00-1.1-1zM60.5 87h12.7a1 1 0 000-2H60.5a.9.9 0 00-1 1 1 1 0 001 1zM70.4 94.3a.9.9 0 001 1H89a1 1 0 000-2H71.4a.9.9 0 00-1 1zM102.7 95.3a1 1 0 000-2h-10a1 1 0 000 2zM114.6 93.3h-8.4a1 1 0 000 2h8.4a1 1 0 000-2zM26.6 103.5h34.6a1 1 0 000-2H26.6a1 1 0 100 2zM65.3 102.5a.9.9 0 001 1h16.5a1 1 0 100-2H66.3a1 1 0 00-1 1zM114.6 101.5H86.5a1 1 0 000 2h28.2a.9.9 0 001-1 1 1 0 00-1.1-1zM68.4 109.9H26.6a1 1 0 100 2h41.8a.9.9 0 001-1 1 1 0 00-1-1zM114.6 109.9H72.9a1 1 0 000 2h41.8a.9.9 0 001-1 1 1 0 00-1.1-1zM38.7 24l-4.2-1.9v-.2l4.2-1.9v-1.4l-5.6 2.7v1.5l5.6 2.6V24zM46.4 17h-1.2L40 28.2h1.2L46.4 17zM53.3 21.3l-5.7-2.7V20l4.2 1.9v.2L47.6 24v1.4l5.7-2.6v-1.5z"/><path d="M50.4 72.3l-1.7-.5-.3-.6.9-1.6a1.1 1.1 0 00-.2-1.2L46.7 66a1.1 1.1 0 00-1.2-.2l-1.5.9-.6-.3-.5-1.7a1 1 0 00-1-.7h-3.3a1.2 1.2 0 00-1 .7l-.5 1.7-.6.3-1.6-.9a1.1 1.1 0 00-1.2.2l-2.4 2.4a1.1 1.1 0 00-.2 1.2l.9 1.6-.3.6-1.7.5a1 1 0 00-.7 1v3.3a1.2 1.2 0 00.7 1l1.7.5.3.6-.9 1.6a1.1 1.1 0 00.2 1.2l2.4 2.4a1.1 1.1 0 001.2.2l1.6-.9.6.3.5 1.7a1 1 0 001 .7h3.3a1.2 1.2 0 001-.7l.5-1.7.6-.3 1.6.9a1.1 1.1 0 001.2-.2l2.4-2.4a1.1 1.1 0 00.2-1.2l-.9-1.6.3-.6 1.7-.5a1 1 0 00.7-1v-3.3a1.2 1.2 0 00-.8-1zm-1.3 3.5l-1.5.4a1 1 0 00-.7.7 6.9 6.9 0 01-.5 1.3.7.7 0 000 .9l.7 1.4-1.3 1.3-1.4-.7a.7.7 0 00-.9 0l-1.3.5a1.2 1.2 0 00-.7.7l-.4 1.5h-1.8l-.4-1.5a1 1 0 00-.7-.7l-1.3-.5a.8.8 0 00-.9 0l-1.4.7-1.3-1.3.7-1.4a.9.9 0 000-1 5 5 0 01-.5-1.3 1.2 1.2 0 00-.7-.7l-1.5-.4V74l1.5-.4a1 1 0 00.7-.7 6.9 6.9 0 01.5-1.3.7.7 0 000-.9l-.7-1.4 1.3-1.3 1.4.7a.9.9 0 001 0l1.3-.5a1.2 1.2 0 00.7-.7l.4-1.5h1.8l.4 1.5a1 1 0 00.7.7l1.3.5a.9.9 0 001 0L46 68l1.3 1.3-.7 1.4a.8.8 0 000 .9 5 5 0 01.5 1.3 1.2 1.2 0 00.7.7l1.5.4v1.8z"/><path d="M40.2 70a4.9 4.9 0 104.9 4.9 5 5 0 00-4.9-4.9zm0 7.7a2.9 2.9 0 112.9-2.9 2.9 2.9 0 01-2.9 2.9z"/>
</symbol>



<!-- 
    Linkedin
-->
<symbol id="icon-linkedin" viewBox="0 0 165 165">
<path d="M46.4 56a7.5 7.5 0 012.4-5.7 9.3 9.3 0 016.4-2.3 9.2 9.2 0 016.2 2.2 8.1 8.1 0 012.4 6 7.5 7.5 0 01-2.3 5.6 9.4 9.4 0 01-6.5 2.3 8.6 8.6 0 01-6.2-2.3 7.7 7.7 0 01-2.4-5.8zm.9 61V70.4h15.5V117zm24.1 0h15.4V91a9.7 9.7 0 01.6-3.8 10.3 10.3 0 012.9-4 7.7 7.7 0 015-1.6q7.8 0 7.8 10.5V117h15.5V90.3c0-6.9-1.6-12.1-4.9-15.6s-7.5-5.4-12.9-5.4-10.6 2.6-14 7.8v-6.7H71.4c0 1.5.1 6.2.1 13.9s-.1 18.7-.1 32.7z"/>
</symbol>



<!-- 
    Training 
-->
<symbol id="icon-training" viewBox="0 0 165 165">
<path d="M161.5 84.5a79.3 79.3 0 00-25.6-58.3A54.5 54.5 0 0090.4 1.5 53.6 53.6 0 0066.7 7a79 79 0 1094.8 77.5zm-1.9 0a76.6 76.6 0 01-23 54.8h-6.7V93a53.3 53.3 0 0014.8-37.2 54.9 54.9 0 00-5.2-23.3 78 78 0 0120.1 52zm-16.8-28.7A52.5 52.5 0 01128.3 92a.7.7 0 00-.3.6v46.6h-22.5l1.3-3.2 1.9-.8 4.5 2a.9.9 0 001.1-.2l4.4-4.4a.9.9 0 00.2-1.1L117 127c.3-.6.5-1.2.8-1.9l4.6-1.8a.9.9 0 00.6-.9v-6.2a.9.9 0 00-.6-.9l-4.6-1.8c-.2-.6-.5-1.2-.8-1.9l1.9-4.5a.9.9 0 00-.2-1.1l-4.4-4.4a.9.9 0 00-1.1-.2l-4.5 2-1.9-.8L105 98a.9.9 0 00-.9-.6h-6.2a.9.9 0 00-.9.6l-1.8 4.6-1.9.8-4.5-2a.9.9 0 00-1.1.2l-4.4 4.4a.9.9 0 00-.2 1.1l1.9 4.5a10.8 10.8 0 00-.8 1.9l-4.6 1.8a.9.9 0 00-.6.9v6.2a.9.9 0 00.6.9l4.6 1.8a15.4 15.4 0 00.8 1.9l-1.9 4.5a.9.9 0 00.2 1.1l4.4 4.4a.9.9 0 001.1.2l4.5-2 1.9.8 1.3 3.2H73.2v-17.5a1 1 0 00-1-1H49.8A11.7 11.7 0 0138.1 109V88.3a1 1 0 00-1-1H22.8L38 56c.1 0 .1-.2.1-.4a52.4 52.4 0 01104.7.2zm-46.1 79a.9.9 0 00-.6-.6l-2.4-1h-.8l-4.3 1.9-3.5-3.5 1.9-4.3a1.1 1.1 0 000-.8 24.4 24.4 0 01-1-2.4.9.9 0 00-.6-.6l-4.4-1.7v-4.9l4.4-1.7a.9.9 0 00.6-.6 24.4 24.4 0 011-2.4 1.1 1.1 0 000-.8l-1.9-4.3 3.5-3.5 4.3 1.9h.8l2.4-1a.9.9 0 00.6-.6l1.7-4.4h4.9l1.7 4.4a.9.9 0 00.6.6l2.4 1h.8l4.3-1.9 3.5 3.5-1.9 4.3a1.1 1.1 0 000 .8 24.4 24.4 0 011 2.4.9.9 0 00.6.6l4.4 1.7v4.9l-4.4 1.7a.9.9 0 00-.6.6 17.3 17.3 0 01-1 2.4 1.1 1.1 0 000 .8l1.9 4.3-3.5 3.5-4.3-1.9h-.8l-2.4 1a.9.9 0 00-.6.6l-1.7 4.4h-4.9zM5.4 84.5a77.4 77.4 0 0155.1-74 54.4 54.4 0 00-24.3 45L20.4 87.8a1.4 1.4 0 000 .9 1 1 0 00.8.5h14.9v19.9a13.7 13.7 0 0013.7 13.7h21.4v16.5H28.4a76.8 76.8 0 01-23-54.8zm25 56.8h104.1a76.9 76.9 0 01-104.1 0z"/><path d="M80.2 147.1a1 1 0 00-1-1H55.6a1 1 0 100 2h23.6a1 1 0 001-1zM87.9 147.1a1 1 0 00-1-1H83a1 1 0 000 2h3.9a1 1 0 001-1zM90.3 148.1h2.6a.9.9 0 001-1 1 1 0 00-1-1h-2.6a1 1 0 100 2zM109.4 151H85.7a.9.9 0 00-1 1 1 1 0 001 1h23.6a1 1 0 001-1 .8.8 0 00-.9-1zM81.9 151H78a.9.9 0 00-1 1 1 1 0 001 1h3.9a1 1 0 001-1 .9.9 0 00-1-1zM74.7 151h-2.6a.9.9 0 00-1 1 1 1 0 001 1h2.6a1 1 0 001-1 .9.9 0 00-1-1zM109.7 119.3a8.7 8.7 0 10-8.7 8.7 8.8 8.8 0 008.7-8.7zm-8.8 6.7a6.8 6.8 0 116.8-6.8 6.8 6.8 0 01-6.8 6.8zM59.5 92.5h59a5.4 5.4 0 005.4-5.4V28.2a5.4 5.4 0 00-5.4-5.4h-59a5.4 5.4 0 00-5.4 5.4v58.9a5.4 5.4 0 005.4 5.4zm-3.4-5.2V58.7h12.6a2.2 2.2 0 002.2-2.2 2.4 2.4 0 00-1.1-2 4.4 4.4 0 01-2.3-4.7 4.8 4.8 0 014.1-4 4.7 4.7 0 015.2 4.7 4.6 4.6 0 01-2.4 4.1 2.3 2.3 0 00-1.1 2.3 2.3 2.3 0 002.3 1.9h12.5v12.7c0 .1-.4.4-.5 0a6.9 6.9 0 00-5.8-3.4 6.7 6.7 0 00-.9 13.3 6.4 6.4 0 006.7-3.4c.1-.1.5 0 .5.2v12.6H59.5a3.7 3.7 0 01-3.4-3.5zm65.9 0a3.4 3.4 0 01-3.4 3.4H90V78a2.2 2.2 0 00-2.2-2.1 2.1 2.1 0 00-1.9 1.1 5.2 5.2 0 01-4.7 2.4 4.8 4.8 0 01-4-4.1 4.7 4.7 0 014.7-5.2 4.6 4.6 0 014.1 2.4 2.1 2.1 0 001.9 1.1 2.2 2.2 0 002.2-2.2V58.7h12.5c.2 0 .3.1.3.2s-.1.4-.1.4a6.7 6.7 0 00-3.4 5.8 6.4 6.4 0 002.2 4.9 6.6 6.6 0 107.7-10.7c-.1 0-.1-.1-.1-.2a.3.3 0 01.3-.3H122zm0-59.1v28.6h-12.6a2.2 2.2 0 00-2.2 2.2 2 2 0 001.1 1.9 4.5 4.5 0 012.3 4.7 4.7 4.7 0 01-9.3-.7 4.7 4.7 0 012.4-4.1 2.3 2.3 0 001.1-1.9 2.2 2.2 0 00-.1-.8 2.3 2.3 0 00-2.2-1.5H90V44.2c0-.2.1-.4.2-.4h.3a6.7 6.7 0 006.6 3.3 6.6 6.6 0 005.7-5.8 6.9 6.9 0 00-1.6-5.2 6.6 6.6 0 00-10.7 1.1s-.1.2-.4.1-.2-.2-.2-.3V24.8h28.6a3.3 3.3 0 013.5 3.4zm-65.9 0a3.4 3.4 0 013.4-3.4h28.6v12.5a2.3 2.3 0 001.5 2.2 2.1 2.1 0 002.7-1 4.6 4.6 0 014.1-2.4 4.8 4.8 0 013.5 1.6 4.5 4.5 0 011.1 3.7 4.8 4.8 0 01-4 4.1 4.8 4.8 0 01-4.7-2.3 2.2 2.2 0 00-2.3-1.1 2.4 2.4 0 00-1.9 2.3v12.5H75.6l-.4-.2a.4.4 0 01.1-.3 6.6 6.6 0 00-4-12.4 6.7 6.7 0 00-2.5 12.4c.1 0 .1.1.1.2a.3.3 0 01-.3.3H56.1z"/>
</symbol>



<!-- 
    Twitter 
-->
<symbol id="icon-twitter" viewBox="0 0 165 165">
<path d="M124.5 56.4a36.4 36.4 0 01-9.9 2.8 17.7 17.7 0 007.6-9.6 34 34 0 01-11 4.2 17.3 17.3 0 00-29.8 11.8 16 16 0 00.5 3.9 49 49 0 01-35.6-18 18.2 18.2 0 00-2.3 8.7 17.2 17.2 0 007.7 14.3 17.1 17.1 0 01-7.8-2.1v.2a17.3 17.3 0 0013.8 16.9 16.8 16.8 0 01-4.5.6 17.6 17.6 0 01-3.3-.3 17.5 17.5 0 0016.1 12 34.6 34.6 0 01-21.4 7.3 27.5 27.5 0 01-4.1-.2 48.6 48.6 0 0026.4 7.7c31.7 0 49.1-26.2 49.1-49 0-.8-.1-1.5-.1-2.2a35 35 0 008.6-9" fill="currentColor"/>
</symbol>





<!-- 
    Web Design 
-->
<symbol id="icon-web-design" viewBox="0 0 165 165">
<path d="M144.5 37.6v-6.9a1 1 0 00-1-1h-5.9a70.6 70.6 0 00-7.2-6.3v-13a1 1 0 00-1-1h-12.8a1 1 0 00-1 1v4.1l-4.8-2.1L105.2 2a1 1 0 00-.8-.5.8.8 0 00-.8.5l-3.9 6.9A83.1 83.1 0 0082.5 7a77.2 77.2 0 00-25.3 4.2H39a4.5 4.5 0 00-4.5 4.5v7.8a70.6 70.6 0 00-7.2 6.3h-5.9a1 1 0 00-1 1v6.9a78.2 78.2 0 10140.3 47.6 77.7 77.7 0 00-16.2-47.7zm-37.8 102H58.3v-3.8h48.4zm-7-5.8H65.3v-15.1h34.5v15.1zm-77.3-17.1v-12.6h120.2v12.6zm112.5-86.9h-4.4V26zm-4.4 8.7h5.3v57h-5.3zm-1.9-27.1v84.1h-10.8V91h2.9a1 1 0 001-1 .9.9 0 00-1-1h-2.9v-6.2h2.9a1 1 0 000-2h-2.9v-6.2h2.9a1 1 0 001-1 .9.9 0 00-1-1h-2.9v-6.2h2.9a1 1 0 001-1 .9.9 0 00-1-1h-2.9v-6.2h2.9a1 1 0 000-2h-2.9V50h2.9a1 1 0 001-1 .9.9 0 00-1-1h-2.9v-6.2h2.9a1 1 0 001-1 .9.9 0 00-1-1h-2.9v-6.2h2.9a1 1 0 000-2h-2.9v-6.2h2.9a1 1 0 000-2h-2.9v-6.2h2.9a1 1 0 000-2h-2.9v-4.5h10.8zm-20.1 84.1V49.2a4 4 0 003.1-3.9v-6.8h4.2v57zm-14.4 0v-57H97v6.8a4 4 0 003.1 3.9v46.2h-6zm-64.9 0v-57h5.3v57zm7.2 0V22.6h55.7v72.8H36.4zm67-89.4v8.3a1 1 0 001 1 .9.9 0 001-1V6.1l5.8 10.2a14.7 14.7 0 00-4.3 6.9h-4.8a15.5 15.5 0 00-4.3-6.9zM102 28v-2.9h4.6V28zm-1 2h6.5a2.1 2.1 0 012.1 2.1v13.3a2.1 2.1 0 01-2.1 2.1H101a2.1 2.1 0 01-2.1-2.1V32.2a2.9 2.9 0 01.2-.9A2 2 0 01101 30zm14.8 6.6h-4.2v-4.8h4.2zM97 32.1v4.5h-2.9v-4.8h3a.4.4 0 00-.1.3zm5 17.3h4.6v46.1H102zm13.8-32.8v13.2h-4.9a4 4 0 00-2.4-1.6v-4a.4.4 0 00-.1-.3 13.5 13.5 0 014.3-6.6 1 1 0 00.3-1.3l-.5-.9zM82.5 9a79.3 79.3 0 0116.1 1.7l-3.1 5.4a1 1 0 00.3 1.3 12.9 12.9 0 014.3 6.5c0 .1-.1.2-.1.3v4a3.7 3.7 0 00-2.4 1.7H94V15.8a4.5 4.5 0 00-4.5-4.5H64A71.6 71.6 0 0182.5 9zm-46.1 6.7a2.5 2.5 0 012.5-2.5h50.6a2.5 2.5 0 012.5 2.5v4.9H36.4zM34.5 26v3.8h-4.4zm-12.1 5.7h12.1v4.8h-6.3a1 1 0 00-1 1v58.9a1 1 0 001 1h108.6a1 1 0 001-1V37.5a1 1 0 00-1-1h-6.3v-4.8h12.1v70.5H22.4zM6.2 85.3a75.1 75.1 0 0114.3-44.4v76.8a1 1 0 001 1h41.9v15.1h-6a1 1 0 00-1 1v4.8H29A76 76 0 016.2 85.3zM31 141.5h103a76 76 0 01-103 0zm105-1.9h-27.4v-4.8a1 1 0 00-1-1h-6v-15.1h41.9a1 1 0 001-1V40.9a76.1 76.1 0 01-8.5 98.7z"/><path d="M80.3 147.4a1 1 0 00-1-1H55.9a1 1 0 00-1 1 .9.9 0 001 1h23.4a1.2 1.2 0 001-1zM87.9 147.4a1 1 0 00-1-1H83a1 1 0 00-1 1 .9.9 0 001 1h3.9a1.2 1.2 0 001-1zM90.2 148.3h2.5a1 1 0 001-1 .9.9 0 00-1-1h-2.5a1 1 0 100 2zM109.1 151.1H85.7a1 1 0 00-1 1 .9.9 0 001 1h23.4a1 1 0 000-2zM82 151.1h-3.9a1 1 0 00-1 1 .9.9 0 001 1H82a1 1 0 000-2zM74.8 151.1h-2.5a1 1 0 00-1 1 .9.9 0 001 1h2.5a1 1 0 000-2zM86.9 27.2H41.6a1 1 0 00-1 1v8.2a1 1 0 001 1h45.3a1 1 0 001-1v-8.2a1.1 1.1 0 00-1-1zm-1 8.2H42.6v-6.3h43.3z"/><path d="M46.7 33.3h5.9a1 1 0 100-2h-5.9a1 1 0 000 2zM56.5 33.3h5.9a1 1 0 100-2h-5.9a1 1 0 000 2zM66.2 33.3h5.9a1 1 0 100-2h-5.9a1 1 0 00-1 1 1.2 1.2 0 001 1zM76 33.3h5.9a1 1 0 100-2H76a1 1 0 00-1 1 1.2 1.2 0 001 1zM41.6 62.3h12a1 1 0 001-1v-9.7a1 1 0 00-1-1h-12a1 1 0 00-1 1v9.7a1.1 1.1 0 001 1zm1-9.7h10.1v7.7H42.6zM41.6 67.1h12a1 1 0 001-1 .9.9 0 00-1-1h-12a1 1 0 100 2zM41.6 71.5h7.8a1 1 0 001-1 .9.9 0 00-1-1h-7.8a1 1 0 100 2zM58.3 62.3h12a1 1 0 001-1v-9.7a1 1 0 00-1-1h-12a1 1 0 00-1 1v9.7a.9.9 0 001 1zm.9-9.7h10.1v7.7H59.2zM58.3 67.1h12a1 1 0 001-1 .9.9 0 00-1-1h-12a1 1 0 00-1 1 .9.9 0 001 1zM58.3 71.5h7.8a1 1 0 001-1 .9.9 0 00-1-1h-7.8a1 1 0 00-1 1 .9.9 0 001 1zM86.9 50.7h-12a1 1 0 00-1 1v9.7a1 1 0 001 1h12a1 1 0 001-1v-9.7a1 1 0 00-1-1zm-1 9.7h-10v-7.7H86v7.7zM86.9 65.1h-12a1 1 0 00-1 1 .9.9 0 001 1h12a1 1 0 000-2zM82.8 71.5a1 1 0 001-1 .9.9 0 00-1-1H75a1 1 0 00-1 1 .9.9 0 001 1zM86.9 76.4H41.6a1 1 0 00-1 1 .9.9 0 001 1h45.3a1 1 0 000-2zM82.8 82.3H41.6a1 1 0 00-1 1 .9.9 0 001 1h41.1a1 1 0 001-1 .9.9 0 00-.9-1zM60.8 88.1H41.6a1 1 0 00-1 1 .9.9 0 001 1h19.2a1 1 0 000-2zM43.1 15.9h-3.7a1 1 0 000 2h3.7a1 1 0 001-1 1.2 1.2 0 00-1-1zM50.3 15.9h-3.7a1 1 0 000 2h3.7a1 1 0 001-1 1.2 1.2 0 00-1-1zM57.5 15.9h-3.7a1 1 0 000 2h3.7a1 1 0 001-1 1.2 1.2 0 00-1-1zM89.2 15.9H63.7a1 1 0 000 2h25.4a1 1 0 001-1 1 1 0 00-.9-1z"/>
</symbol>
</svg>