<!-- 
    logo
-->
<svg xmlns="http://www.w3.org/2000/svg" xmlns:xlink="http://www.w3.org/1999/xlink">

  <symbol id="icon-logo" viewBox="0 0 165 165">
    <path d="M82.5 154.3a11.8 11.8 0 01-11.8-11.8v-31.4l-22.3 22.2a11.8 11.8 0 11-16.7-16.7l22.2-22.3H22.5a11.8 11.8 0 010-23.6h31.4L31.7 48.4a11.8 11.8 0 1116.7-16.7l22.3 22.2V22.5a11.8 11.8 0 0123.6 0v31.4l22.3-22.2a11.8 11.8 0 1116.7 16.7l-22.2 22.3h31.4a11.8 11.8 0 110 23.6h-31.4l22.2 22.3a11.8 11.8 0 11-16.7 16.7l-22.3-22.2v31.4a11.8 11.8 0 01-11.8 11.8z" fill="none"/><path class="logo-fill" d="M42.8 131.7l-.8.3zM34.9 130.1a7.4 7.4 0 010-10.3l30-30-30 30a7.4 7.4 0 000 10.3zM15.2 82.5a10.1 10.1 0 00.4 2.5 10.1 10.1 0 01-.4-2.5zM34.9 45.2a7.4 7.4 0 010-10.3 7.4 7.4 0 0110.3 0l30 30-30-30a7.4 7.4 0 00-10.3 0 7.4 7.4 0 000 10.3l30 30zM15.2 82.5a11 11 0 01.2-1.8 11 11 0 00-.2 1.8zM149.1 79.3l.3.7zM148.1 77.9c.2.1.3.3.5.5s-.3-.4-.5-.5zM119.8 34.9a7.4 7.4 0 0110.3 0 7.4 7.4 0 00-10.3 0l-30 30zM131.4 43.5l-.8 1.2zM132.2 40.1a7.1 7.1 0 01-.8 3.4 7.1 7.1 0 00.8-3.4zM15.6 80l.3-.7zM149.8 82.5a10.1 10.1 0 01-.4 2.5 10.1 10.1 0 00.4-2.5zM148.7 86.3l-.3.6zM149.1 85.7a2.1 2.1 0 01-.4.6 2.1 2.1 0 00.4-.6zM149.8 82.5a11 11 0 00-.2-1.8 11 11 0 01.2 1.8z"/><path class="logo-fill" d="M142.5 66.1H122l14.5-14.5a16.3 16.3 0 000-23.1l-.3-.2a16.3 16.3 0 00-11.3-4.5 16 16 0 00-11.5 4.8L98.9 43V22.5A16.5 16.5 0 0082.5 6.1a16.5 16.5 0 00-16.4 16.4V43L51.6 28.5a16 16 0 00-11.5-4.8 16.4 16.4 0 00-16.4 16.4 16 16 0 004.8 11.5L43 66.1H22.5a16.4 16.4 0 000 32.8H43l-14.5 14.5a16.2 16.2 0 00-.1 22.9h.1a16.3 16.3 0 0011.6 4.8 16 16 0 0011.5-4.8L66.1 122v20.5a16.4 16.4 0 0032.8 0V122l14.5 14.5a16 16 0 0011.5 4.8 16.5 16.5 0 0011.5-4.7h.1a16.3 16.3 0 000-23.1L122 98.9h20.5a16.4 16.4 0 000-32.8zm0 31.6h-23.4l16.5 16.5a15.1 15.1 0 010 21.4 14.7 14.7 0 01-10.7 4.5 15.1 15.1 0 01-10.7-4.5l-16.5-16.5v23.4a15.2 15.2 0 01-30.4 0v-23.4l-16.5 16.5a15.1 15.1 0 01-10.7 4.5 14.7 14.7 0 01-10.7-4.5 15.1 15.1 0 010-21.4l16.5-16.5H22.5a15.2 15.2 0 110-30.4h23.4L29.4 50.8a15.1 15.1 0 010-21.4 14.7 14.7 0 0110.7-4.5 15.1 15.1 0 0110.7 4.5l16.5 16.5V22.5A15.2 15.2 0 0182.5 7.3a15.2 15.2 0 0115.2 15.2v23.4l16.5-16.5a15.1 15.1 0 0110.7-4.5 14.7 14.7 0 0110.7 4.5 15.1 15.1 0 010 21.4l-16.5 16.5h23.4a15.2 15.2 0 010 30.4z"/><path class="logo-fill" d="M129.5 130.6a4.7 4.7 0 01-.9.6 4.7 4.7 0 00.9-.6zM100.1 89.8l30 30-30-30zM128 131.6l-1.1.4zM75.2 100.1l-30 30 30-30zM132.2 124.2z"/><path class="logo-fill" d="M82.5 15.2a7.3 7.3 0 017.3 7.3v42.4l30-30a7.4 7.4 0 0110.3 0 7.4 7.4 0 010 10.3l-30 30h42.4a7.3 7.3 0 017.3 7.3 7.3 7.3 0 01-7.3 7.3h-42.4l30 30a7.4 7.4 0 010 10.3 7.4 7.4 0 01-10.3 0l-30-30v42.4a7.3 7.3 0 01-7.3 7.3 7.3 7.3 0 01-7.3-7.3v-42.4l-30 30a7.4 7.4 0 01-10.3 0 7.4 7.4 0 010-10.3l30-30H22.5a7.3 7.3 0 01-7.3-7.3 7.3 7.3 0 017.3-7.3h42.4l-30-30a7.4 7.4 0 010-10.3 7.4 7.4 0 0110.3 0l30 30V22.5a7.3 7.3 0 017.3-7.3m0-6.3a13.6 13.6 0 00-13.6 13.6v27.1L49.7 30.4a13.6 13.6 0 00-19.3 0 13.7 13.7 0 000 19.3l19.2 19.2H22.5a13.6 13.6 0 000 27.2h27.1l-19.2 19.2a13.7 13.7 0 000 19.3 13.6 13.6 0 0019.3 0l19.2-19.2v27.1a13.6 13.6 0 0027.2 0v-27.1l19.2 19.2a13.6 13.6 0 0019.3 0 13.7 13.7 0 000-19.3l-19.2-19.2h27.1a13.6 13.6 0 000-27.2h-27.1l19.2-19.2a13.7 13.7 0 000-19.3 13.6 13.6 0 00-19.3 0L96.1 49.6V22.5A13.6 13.6 0 0082.5 8.9z"/>
  </symbol>




<!-- 
    Arrow Left
-->
<symbol id="icon-arrow-left" viewBox="0 0 165 165">
<defs>
<style>.cls-1{fill:none;stroke:#363636;stroke-linecap:square;stroke-miterlimit:10;stroke-width:10px}</style>
</defs>
<path class="cls-1" d="M105.6 36.3L59.4 82.5M59.4 82.5l46.2 46.2"/>
</symbol>


<!-- 
    Arrow Push
-->
<symbol id="icon-arrow-push" viewBox="0 0 165 165">
<defs>
<style>.cls-1{fill:none;stroke:#363636;stroke-linecap:square;stroke-miterlimit:10;stroke-width:10px}</style>
</defs>
<path class="cls-1" d="M114 115.8l1.2-65.4M115.2 50.4l-65.4-1.2M50.7 115.1l60.4-60.3"/>
</symbol>



<!-- 
    Arrow Right
-->
<symbol id="icon-arrow-right" viewBox="0 0 193 305">
<defs>
<style>.cls-1{fill:none;stroke:#363636;stroke-linecap:square;stroke-miterlimit:10;stroke-width:6px}</style>
</defs>
<path class="cls-1" d="M112.89 152.508L0 39.9406L40.055 0L193 152.508L40.069 305L0.0143577 265.059L112.89 152.508Z"/>
</symbol>


<!-- 
    Background Lines
-->
<symbol id="bg-lines" viewBox="0 0 974.4 7548.6">
<defs>
<!-- <style>.cls-1{fill:none;stroke:#363636;stroke-linecap:round;stroke-miterlimit:10;stroke-width:41px}</style> -->
</defs>
<g fill="none" fill-rule="evenodd"><g transform="translate(21 1)"><path d="M279.9 3727.7s-.9 27.733-2.9 89.467c-1 49.387-2 98.774-5 149.11-2 16.146-3 31.342-6 47.488-3 18.045-7 34.191-12 52.236-14 46.538-30 90.227-47 135.815-1 4.749-3 9.497-4 14.246-42 111.121-70 223.192-86 340.96-1 7.599-1 15.197-2 22.795-1 5.698-2 12.347-3 18.045v9.498c-21 206.096-18 405.544 23 614.489 6 31.342 14 58.884 22 89.277 4 14.246 8 26.593 12 40.839 3 7.598 5 14.246 8 21.844 14 41.79 29 80.729 45 121.568 11 30.392 24 58.885 32 91.176 0 .95 2 2.85 2 3.8 3 11.396 6 22.793 6 34.19 5 53.187 2 105.423 2 158.609-4 511.916-1 1023.832-2 1535.748M1 27c-2 31 0 62 3 94 2 19 5 37 8 56 5 26 10 49 17 74 2 7 3 15 5 23 1 1 2 3 2 4 21 84 51 160 82 239 4 10 10 20 13 31 5 14 14 26 17 40 36 79 71 157 110 235 5 10 9 21 14 31 39 76 74 149 113 225l12 27c12 22 22 43 31 65 7 16 15 31 22 47 1 2 0 3 1 5 16 37 32 73 37 114 1 9 0 17-1 26-3 21-10 39-18 58-3 6-5 11-8 17-10 17-18 33-28 50-11 17-20 31-31 48-28 41-52 75-79 116-24 38-45 73-67 112-5 8-8 17-12 25-38 73-64 150-74 231-11 148 4 294 21 443 17 158 41 307 64 465 3 16 5 32 7 48 1 7 9 69 9 72 3 16 7 169 8 231 1 111 1 133.2 1 133.2" stroke="#383838" stroke-width="42"/><path d="M328.9 3690.7s-.9 178.05-7.9 298.535c-1 16.256-3 32.511-6 48.767-4 21.994-9 42.074-15 63.111-5 17.213-10 33.468-16 50.68-3 5.738-4 11.475-7 17.213-2 7.65-5 14.343-7 21.993-24 68.848-49 132.916-67 205.59 0 .955-2 2.868-2 3.824-2 11.475-5 21.037-7 32.512 0 .956-2 2.869-2 3.825-43 191.246-50 372.929-39 561.306 2 34.424 7 67.892 10 102.317 0 2.868 2 5.737 2 8.606 14 119.528 46 231.407 88 344.242 1 2.869 3 4.781 4 7.65 1 6.694 4 11.475 7 18.168 16 44.943 34 87.017 45 134.829 1 5.737 2 11.474 2 17.212 1 569.912 0 1137.912.1 1707.92M50.1 24.1C44 162 86 296 135 425c80 216 186 414 289 621 29 60 58 119 82 181 2 4 4 9 6 13 1 2 0 3 1 5 11 28 21 57 24 87 1 11 1 21-1 32-2 8-2 15-4 23-3 10-6 20-10 30-6 15-12 29-19 44-16 31-33 58-53 88-92 137-186 255-221 418 0 1-8 32-9 47-1 13-3 26-3 39-1 26-3 51-2 77 1 14 0 29 1 43 2 26 2 53 4 79 1 10 1 19 2 29 1 8 2 17 2 25 18 208 50 407 80 617 3 16 9 63 10 71 18 131 12 258 15 387 1 77 0 121.4 0 121.4" stroke="#383838" stroke-width="42"/><path d="M377.9 3776.8s-.9 112.671-7.9 241.493c-3 46.145-14 90.367-28 135.551-32 97.097-69 187.465-95 288.407-10 40.377-18 77.87-25 118.247-8 49.03-14 96.136-18 145.165-1 14.42-2 27.88-3 42.3-2 26.918-2 52.874-3 79.792-2 82.677 1 164.392 10 248.03 2 14.42 4 27.88 5 42.3 4 29.802 10 57.681 15 87.483 5 25.957 11 49.03 17 74.025 4 13.459 7 26.918 11 40.377 7 20.188 12 40.377 19 60.565 21 58.643 43 115.363 64 174.006 10 28.84 17 56.72 22 86.522 3 69.218 1 137.474 1 206.692-4 503.75-1 1007.502-1.7 1511.445M99.3 21.2C94 163 138 299 188 431c2 4 4 9 6 13 40 106 88 205 138 307 45 94 93 184 138 278 47 98 100 190 116 299 1 9 0 18 0 27-3 30-10 60-22 88-14 33-30 63-50 94-23 34-42 64-66 98-51 72-95 137-130 214-3 9-7 17-11 25-8 22-16 43-23 66-7 27-12 53-16 80-1 6-1 13-2 19-6 137 8 272 22 410 0 3 6 44 6 49 0 3 53 363 73 517 2 22 5 43 5 65 3 65 3 130 4 195 2 112 1.9 307.2 1.9 307.2" stroke="#383838" stroke-width="42"/><path d="M426.9 3686.9s-.9 105.667-2.9 187.992c-1 60.049-2 119.13-6 179.178-3 35.836-11 68.766-21 103.633-4 13.56-8 26.15-12 39.71-11 30.993-21 61.018-33 92.01-11 30.025-20 60.05-31 91.043-1 2.905-1 6.78-2 9.685-60 182.084-77 369.98-72 558.843 1 35.836 4 71.671 7 108.476 4 40.678 10 79.42 17 120.098 6 32.93 13 61.986 21 94.916 5 18.402 10 35.835 15 54.238 13 41.646 26 81.356 41 122.035 13 33.898 25 67.797 38 102.664 1 2.906 1 5.811 2 8.717 12 31.961 19 64.891 23 98.79 1 7.748 0 15.497 0 23.245-3 566.591-1 1131.245-1.6 1698.127M148.4 18.3C143 146 180 270 224 390c2 4 4 9 6 13 62 163 139 314 219 471 6 14 13 26 19 40 41 80 79 158 116 240 1 2 0 3 1 5 23 51 41 103 49 159 2 15 1 29 0 43-3 52-22 100-47 146-6 10-10 19-17 28-2 3-2 6-4 9-12 17-21 33-33 51-103 146-211 284-219 461-4 214 27 422 57 637 13 100 28 193 42 293 2 17 4 33 6 50 0 3 3 50 3 70 4 98 4 195 5 293 0 71-.1 93.1-.1 93.1" stroke="#383838" stroke-width="42"/><path d="M475.8 3646.9s-.8 274.993-8.8 423.164c-2 50.69-16 98.456-31 147.196-34 102.355-72 197.887-98 304.14-5 21.446-9 40.943-14 63.363l-3 14.622c-26 147.196-32 288.544-21 433.79 4 47.766 10 93.582 19 142.322 5 25.345 10 48.74 16 74.086 5 18.521 9 35.093 14 53.614 26 91.632 60 175.466 90 265.148 12 37.043 21 74.085 21 112.103-1 573.187 0 1146.375-1.5 1719.952M197.5 15.4C193 95 208 173 230 251c1 5 2 9 3 14 57 186 140 352 228 524 10 21 20 40 30 61 66 131 135 256 179 397 1 5 2 9 3 14 0 1 2 3 2 4 4 18 7 34 9 52 1 6 0 12 0 18 2 20-1 40-4 61-1 8-3 15-5 23-5 15-9 29-14 44-5 13-11 24-16 37-9 20-20 38-31 57-44 70-89 128-137 198-58 86-102 172-112 273-1 9-1 19-2 28-4 127 9 251 23 378 4 36 9 70 14 106 1 8 4 33 5 38 17 124 53 376 54 381 4 29 7 58 10 87 4 49 3 98 4 147 3 140 2.8 349.3 2.8 349.3" stroke="#383838" stroke-width="42"/><path d="M524.8 3716.9s-.8 223.632-7.8 380.497c-1 17.648-4 34.315-7 51.962-8 45.1-21 86.276-35 128.434-36 101.963-71 197.063-96 304.908-3 12.745-6 24.51-8 37.255-3 19.609-7 37.256-10 56.864-2 14.706-4 28.432-6 43.138-2 16.667-3 32.354-5 48.04-1 14.707-2 28.432-3 43.139-2 23.53-2 48.04-3 71.57-1 36.275 0 73.53 2 109.806 0 13.725 1 28.431 2 42.157 6 65.688 14 127.454 30 193.141 4 15.687 7 29.413 11 45.1 24 90.197 56 172.551 85 259.808 12 33.334 22 65.688 29 100.982 2 7.844 2 14.706 4 22.55 2 12.745 2 25.49 2 38.236-2 575.5-1 1151.002-1.4 1726.013M246.6 12.5C240 146 283 274 330 397c2 4 4 9 6 13 1 2 0 3 1 5 5 10 9 21 14 31 1 2 0 3 1 5 23 53 48 104 72 157 2 4 4 8 7 12 6 12 10 23 16 35 12 21 21 42 32 63 37 70 71 137 107 207 10 21 20 40 30 61 18 38 36 75 52 114 5 10 9 21 14 31 1 2 0 3 1 5 25 62 48 127 51 194 1 26-2 50-6 76-2 11-4 21-7 31-17 61-45 112-80 166-2 3-4 5-6 7-2 4-5 8-7 12-65 95-134 173-179 275-2 6-4 11-7 17-1 2 0 3-1 5-14 32-21 64-26 99-2 13-2 26-3 39-4 162 17 320 37 483 9 69 18 134 28 204 7 43 12 82 19 125 10 67 21 131 23 198 7 182 5.8 365.4 5.8 365.4" stroke="#383838" stroke-width="42"/><path d="M573.7 3756.7s-.7 113.756-3.7 234.123c-1 45.384-1 90.769-4 136.153-3 31.571-8 61.17-16 91.755l-15 53.277c-5 15.786-10 30.585-15 46.37-12 34.532-24 67.09-35 101.622-4 8.88-7 17.759-10 26.638-39 114.447-67 229.881-77 350.248-1 14.799-2 28.612-3 43.41-1 15.787-1 32.559-2 48.345 0 32.558-1 65.116 1 97.674 0 15.786 1 32.559 2 48.344 1 15.786 3 31.572 5 48.345 3 23.678 7 46.37 10 70.049 2 12.826 5 23.679 8 36.505 25 132.206 72 247.64 112 372.94 15 45.383 28 90.768 27 137.138-2 581.115 0 1161.244-1.2 1741.964M295.8 9.6C291 66 300 120 311 177c6 27 13 51 20 77 5 16 10 31 15 47 14 41 29 81 47 121 1 2 0 3 1 5 41 93 84 181 131 272 6 13 13 26 20 39 12 22 22 45 34 67 8 15 15 28 23 43 4 7 7 14 10 21 31 58 58 113 85 172 4 9 8 17 12 26 38 92 78 187 74 288-2 29-5 56-12 85-4 15-8 29-13 43-8 20-17 39-26 59-7 14-14 27-22 41-45 74-96 133-147 206-2 4-5 8-7 12-2 2-4 4-6 7-41 65-74 127-85 202-1 6-1 12-2 18-7 85 1 168 8 253 5 66 12 130 20 197 22 174 48 338 71 512 1 8 4 40 4 43 10 132 5 264 8 396 1 61-.3 153.4-.3 153.4" stroke="#383838" stroke-width="42"/><path d="M622.7 3716.9s-.7 224.541-5.7 381.452c0 23.835-2 47.67-4 71.504-1 7.945-2 14.897-3 22.841-7 34.76-14 66.539-24 100.304-22 69.518-45 135.063-69 203.587-45 133.076-72 269.132-76 408.167v71.504c1 14.896 1 28.8 2 43.696 4 46.676 8 90.373 17 137.05 17 88.386 39 166.841 67 250.262 33 99.31 73 195.642 81 298.925 0 96.331-1 191.67-2 288.001-1 489.602 0 979.203-.1 1468.507M344.9 6.7C341 76 353 142 369 210c0 1 2 3 2 4 18 72 43 137 72 203 1 2 0 3 1 5 17 37 33 72 51 109 6 13 12 26 19 39 6 14 13 26 20 40 4 7 6 14 10 21 17 29 30 58 46 87 5 11 10 20 15 31 21 39 40 76 61 115 2 5 4 9 6 14 45 87 87 171 120 263 4 14 9 27 13 41 10 30 16 58 22 89 5 31 6 60 5 90-2 39-9 77-20 115-4 14-9 27-14 40-21 49-45 92-77 137-20 26-36 50-57 75-3 4-5 8-8 12-61 78-119 153-138 252-17 88-7 171-1 257 3 39 7 77 11 116 3 25 10 79 10 82 1 8 6 46 6 49 0 5 21 160 21 165 5 34 9 65 14 99 2 10 3 18 5 28 5 36 16 115 16 120 2 17 9 68 10 76 0 3 6 49 7 69 2 40 2 79 3 119 3 147 3 293 2.7 440.2" stroke="#383838" stroke-width="42"/><path d="M671.6 3756.8s1.4 232.013-7.6 413.867c-2 39.968-9 77.937-20 117.905-4 15.987-9 30.975-13 46.962-6 18.985-12 36.97-18 55.955-19 55.955-38 108.912-57 164.867-26 78.937-46 156.874-57 239.807-7 55.955-10 110.91-10 166.866 1 22.981 1 44.964 3 67.945 3 41.966 9 81.934 16 123.9 5 27.978 11 51.959 17 79.936 0 1 2 2.998 2 3.997 11 51.958 26 98.92 43 147.88 5 16.987 10 33.973 16 50.96 1 2.997 3 5.995 4 8.992 2 7.994 5 15.988 7 23.981 27 80.935 54 160.87 60 244.803 0 101.918-1 203.836-1 305.754-2 487.607-1 974.215-1 1461.623M394 3.8C389 71 402 135 417 202c0 1 2 3 2 4 18 73 44 139 74 206 1 2 0 3 1 5 35 77 71 151 111 227 16 29 30 56 45 85 7 12 13 24 19 36 10 17 18 34 27 51 6 11 11 20 16 31 53 102 102 201 138 310 1 3 1 7 2 10l3 9c0 1 2 3 2 4 1 5 2 9 3 14 0 1 2 3 2 4 26 100 28 203-6 300-1 3-1 6-2 9-11 28-22 56-38 83-9 17-18 32-28 48-2 3-4 5-6 7-7 11-14 21-21 32-45 60-88 109-131 171-11 17-19 32-29 49-6 11-11 22-16 34-4 10-8 20-11 31-3 10-6 19-8 30s-3 21-5 32c-1 11-1 21-2 32-2 67 3 132 9 199 21 250 61 491 94 742 3 24 4 47 5 70 5 182 4.6 455.3 4.6 455.3" stroke="#383838" stroke-width="42"/><path d="M720.5 3836.6s1.5 177.368-7.5 371.426c-1 19.104-5 38.209-8 57.313-1 8.044-3 16.088-5 24.131 0 1.006-2 3.017-2 4.022-2 8.044-3 16.088-5 24.132-28 105.576-68 201.097-100 304.662-28 91.5-49 181.993-54 276.508-1 31.17-1 61.335-1 92.505 1 42.23 5 83.455 12 125.686 23 147.806 73 280.53 118 420.292 1 3.017 1 7.039 2 10.055 17 51.28 29 102.56 35 156.856 1 15.082 1 29.159 1 44.241 0 98.538-1 198.08-1 296.618-3 486.655-1 971.299-.9 1457.853M443.1.9C437 120 473 235 516 345c29 71 61 138 96 207 107 211 233 403 298 634 6 25 12 48 15 73 1 8 2 15 3 23v9c5 43 3 84-3 127-4 36-12 70-24 105-1 3-3 5-4 8-1 2 0 3-1 5-1 3-3 5-4 8-1 2 0 3-1 5-43 105-119 183-189 274-37 49-69 96-83 156 0 1-2 3-2 4-6 24-8 47-9 71-2 159 20 313 39 473 17 136 37 265 55 401 5 36 9 70 13 106 1 11 1 23 2 34 1 32 1 65 2 97 2 149 1.6 207.2 1.6 207.2" stroke="#383838" stroke-width="42"/><circle fill="#383838" cx="280" cy="3411.8" r="21"/><circle fill="#383838" cx="329" cy="3502.4" r="21"/><circle fill="#383838" cx="377.9" cy="3582.4" r="21"/><circle fill="#383838" cx="427" cy="3492" r="21"/><circle fill="#383838" cx="475.8" cy="3542.3" r="21"/><circle fill="#383838" cx="524.9" cy="3432.4" r="21"/><circle fill="#383838" cx="573.8" cy="3582.4" r="21"/><circle fill="#383838" cx="622.8" cy="3611.8" r="21"/><circle fill="#383838" cx="671.7" cy="3522.2" r="21"/><circle fill="#383838" cx="720.5" cy="3371.6" r="21"/><circle fill="#383838" cx="280" cy="3727.8" r="21"/><circle fill="#383838" cx="328.9" cy="3690.7" r="21"/><circle fill="#383838" cx="377.9" cy="3776.8" r="21"/><circle fill="#383838" cx="426.9" cy="3686.9" r="21"/><circle fill="#383838" cx="475.8" cy="3646.9" r="21"/><circle fill="#383838" cx="524.8" cy="3716.8" r="21"/><circle fill="#383838" cx="573.7" cy="3756.8" r="21"/><circle fill="#383838" cx="622.7" cy="3716.9" r="21"/><circle fill="#383838" cx="671.7" cy="3756.8" r="21"/><circle fill="#383838" cx="720.6" cy="3836.6" r="21"/></g><path d="M304 7320c0 11.6-9.4 21-21 21s-21-9.4-21-21 9.4-21 21-21 21 9.4 21 21ZM353 7340c0 11.6-9.4 21-21 21s-21-9.4-21-21 9.4-21 21-21 21 9.4 21 21ZM381 7381c-11.6 0-21-9.4-21-21s9.4-21 21-21 21 9.4 21 21-9.4 21-21 21ZM451 7381c0 11.6-9.4 21-21 21s-21-9.4-21-21 9.4-21 21-21 21 9.4 21 21ZM479 7422c-11.6 0-21-9.4-21-21s9.4-21 21-21 21 9.4 21 21-9.4 21-21 21ZM529 7441c-11.6 0-21-9.4-21-21s9.4-21 21-21 21 9.4 21 21-9.4 21-21 21ZM599 7442c0 11.6-9.4 21-21 21s-21-9.4-21-21 9.4-21 21-21 21 9.4 21 21ZM648 7463c0 11.6-9.4 21-21 21s-21-9.4-21-21 9.4-21 21-21 21 9.4 21 21ZM697 7483c0 11.6-9.4 21-21 21s-21-9.4-21-21 9.4-21 21-21 21 9.4 21 21Z" fill="#383838"/><path d="M746 7504c0 11.6-9.4 21-21 21s-21-9.4-21-21 9.4-21 21-21 21 9.4 21 21Z" fill="#1A262D"/></g>"/>
</symbol>



<!-- 
    Behance
-->
<symbol id="icon-behance" viewBox="0 0 165 165">
<path d="M71.8 78.8s10.5-.8 10.5-13.1-8.6-18.3-19.5-18.3H27.1v68.7h35.7s21.9.7 21.9-20.2c0 0 .9-17.1-12.9-17.1zM60.3 59.6h2.5s4.9 0 4.9 7.2-2.8 8.2-6.1 8.2H42.8V59.6zm1.5 44.3h-19V85.6h20s7.3-.1 7.3 9.4-5.4 8.9-8.3 8.9zm52-39c-26.4 0-26.4 26.4-26.4 26.4s-1.8 26.3 26.4 26.3c0 0 23.5 1.3 23.5-18.3h-12.1s.4 7.4-11 7.4c0 0-12.1.8-12.1-12h35.6s3.9-29.8-23.9-29.8zM102 85.6S103.5 75 114.1 75s10.5 10.6 10.5 10.6zm25.4-25.7H99v-8.5h28.4v8.5z"/>
</symbol>



<!-- 
    Dribbble
-->
<symbol id="icon-dribbble" viewBox="0 0 165 165">
<path d="M46.9 82.5a35.1 35.1 0 014.8-17.9 36.2 36.2 0 0112.9-12.9 35.8 35.8 0 0135.8 0 36.2 36.2 0 0112.9 12.9 35.8 35.8 0 010 35.8 36.2 36.2 0 01-12.9 12.9 35.8 35.8 0 01-35.8 0 36.2 36.2 0 01-12.9-12.9 35.1 35.1 0 01-4.8-17.9zm5.9 0a28.8 28.8 0 007.5 19.6 41.9 41.9 0 0110.8-12.8c5-4 9.8-6.5 14.5-7.6-.8-1.6-1.4-3.1-2.1-4.5A87.1 87.1 0 0157 81.1h-4.1v.7c0 .3-.1.5-.1.7zm1-7.3h4.6A78.9 78.9 0 0080.9 72a73 73 0 00-11.8-16 28.4 28.4 0 00-9.7 8 30.3 30.3 0 00-5.6 11.2zm10.6 30.7a28.5 28.5 0 0018.1 6.3 30.1 30.1 0 0010.5-2 105.4 105.4 0 00-5.6-23.6q-6.6 1.5-13.2 7.2a39.9 39.9 0 00-9.8 12.1zm10.8-52.1A74 74 0 0186.8 70c6.5-2.7 11.3-6.2 14.6-10.3a28.6 28.6 0 00-18.9-6.9 31.3 31.3 0 00-7.3 1zM89.4 75c.7 1.5 1.5 3.5 2.4 5.8 3.5-.3 7.3-.5 11.5-.5l8.7.2a28.5 28.5 0 00-7-17.2c-3 4.6-8.3 8.5-15.6 11.7zm4.2 10.8a105.7 105.7 0 014.9 21.6 30.2 30.2 0 009.2-9.3 28.6 28.6 0 004.2-12.3c-3.4-.3-6.6-.4-9.4-.4s-5.6.1-8.9.4z"/>
</symbol>



<!-- 
    Linkedin
-->
<symbol id="icon-linkedin" viewBox="0 0 165 165">
<path d="M46.4 56a7.5 7.5 0 012.4-5.7 9.3 9.3 0 016.4-2.3 9.2 9.2 0 016.2 2.2 8.1 8.1 0 012.4 6 7.5 7.5 0 01-2.3 5.6 9.4 9.4 0 01-6.5 2.3 8.6 8.6 0 01-6.2-2.3 7.7 7.7 0 01-2.4-5.8zm.9 61V70.4h15.5V117zm24.1 0h15.4V91a9.7 9.7 0 01.6-3.8 10.3 10.3 0 012.9-4 7.7 7.7 0 015-1.6q7.8 0 7.8 10.5V117h15.5V90.3c0-6.9-1.6-12.1-4.9-15.6s-7.5-5.4-12.9-5.4-10.6 2.6-14 7.8v-6.7H71.4c0 1.5.1 6.2.1 13.9s-.1 18.7-.1 32.7z"/>
</symbol>



<!-- 
    Training 
-->
<symbol id="icon-training" viewBox="0 0 165 165">
<path d="M161.5 84.5a79.3 79.3 0 00-25.6-58.3A54.5 54.5 0 0090.4 1.5 53.6 53.6 0 0066.7 7a79 79 0 1094.8 77.5zm-1.9 0a76.6 76.6 0 01-23 54.8h-6.7V93a53.3 53.3 0 0014.8-37.2 54.9 54.9 0 00-5.2-23.3 78 78 0 0120.1 52zm-16.8-28.7A52.5 52.5 0 01128.3 92a.7.7 0 00-.3.6v46.6h-22.5l1.3-3.2 1.9-.8 4.5 2a.9.9 0 001.1-.2l4.4-4.4a.9.9 0 00.2-1.1L117 127c.3-.6.5-1.2.8-1.9l4.6-1.8a.9.9 0 00.6-.9v-6.2a.9.9 0 00-.6-.9l-4.6-1.8c-.2-.6-.5-1.2-.8-1.9l1.9-4.5a.9.9 0 00-.2-1.1l-4.4-4.4a.9.9 0 00-1.1-.2l-4.5 2-1.9-.8L105 98a.9.9 0 00-.9-.6h-6.2a.9.9 0 00-.9.6l-1.8 4.6-1.9.8-4.5-2a.9.9 0 00-1.1.2l-4.4 4.4a.9.9 0 00-.2 1.1l1.9 4.5a10.8 10.8 0 00-.8 1.9l-4.6 1.8a.9.9 0 00-.6.9v6.2a.9.9 0 00.6.9l4.6 1.8a15.4 15.4 0 00.8 1.9l-1.9 4.5a.9.9 0 00.2 1.1l4.4 4.4a.9.9 0 001.1.2l4.5-2 1.9.8 1.3 3.2H73.2v-17.5a1 1 0 00-1-1H49.8A11.7 11.7 0 0138.1 109V88.3a1 1 0 00-1-1H22.8L38 56c.1 0 .1-.2.1-.4a52.4 52.4 0 01104.7.2zm-46.1 79a.9.9 0 00-.6-.6l-2.4-1h-.8l-4.3 1.9-3.5-3.5 1.9-4.3a1.1 1.1 0 000-.8 24.4 24.4 0 01-1-2.4.9.9 0 00-.6-.6l-4.4-1.7v-4.9l4.4-1.7a.9.9 0 00.6-.6 24.4 24.4 0 011-2.4 1.1 1.1 0 000-.8l-1.9-4.3 3.5-3.5 4.3 1.9h.8l2.4-1a.9.9 0 00.6-.6l1.7-4.4h4.9l1.7 4.4a.9.9 0 00.6.6l2.4 1h.8l4.3-1.9 3.5 3.5-1.9 4.3a1.1 1.1 0 000 .8 24.4 24.4 0 011 2.4.9.9 0 00.6.6l4.4 1.7v4.9l-4.4 1.7a.9.9 0 00-.6.6 17.3 17.3 0 01-1 2.4 1.1 1.1 0 000 .8l1.9 4.3-3.5 3.5-4.3-1.9h-.8l-2.4 1a.9.9 0 00-.6.6l-1.7 4.4h-4.9zM5.4 84.5a77.4 77.4 0 0155.1-74 54.4 54.4 0 00-24.3 45L20.4 87.8a1.4 1.4 0 000 .9 1 1 0 00.8.5h14.9v19.9a13.7 13.7 0 0013.7 13.7h21.4v16.5H28.4a76.8 76.8 0 01-23-54.8zm25 56.8h104.1a76.9 76.9 0 01-104.1 0z"/><path d="M80.2 147.1a1 1 0 00-1-1H55.6a1 1 0 100 2h23.6a1 1 0 001-1zM87.9 147.1a1 1 0 00-1-1H83a1 1 0 000 2h3.9a1 1 0 001-1zM90.3 148.1h2.6a.9.9 0 001-1 1 1 0 00-1-1h-2.6a1 1 0 100 2zM109.4 151H85.7a.9.9 0 00-1 1 1 1 0 001 1h23.6a1 1 0 001-1 .8.8 0 00-.9-1zM81.9 151H78a.9.9 0 00-1 1 1 1 0 001 1h3.9a1 1 0 001-1 .9.9 0 00-1-1zM74.7 151h-2.6a.9.9 0 00-1 1 1 1 0 001 1h2.6a1 1 0 001-1 .9.9 0 00-1-1zM109.7 119.3a8.7 8.7 0 10-8.7 8.7 8.8 8.8 0 008.7-8.7zm-8.8 6.7a6.8 6.8 0 116.8-6.8 6.8 6.8 0 01-6.8 6.8zM59.5 92.5h59a5.4 5.4 0 005.4-5.4V28.2a5.4 5.4 0 00-5.4-5.4h-59a5.4 5.4 0 00-5.4 5.4v58.9a5.4 5.4 0 005.4 5.4zm-3.4-5.2V58.7h12.6a2.2 2.2 0 002.2-2.2 2.4 2.4 0 00-1.1-2 4.4 4.4 0 01-2.3-4.7 4.8 4.8 0 014.1-4 4.7 4.7 0 015.2 4.7 4.6 4.6 0 01-2.4 4.1 2.3 2.3 0 00-1.1 2.3 2.3 2.3 0 002.3 1.9h12.5v12.7c0 .1-.4.4-.5 0a6.9 6.9 0 00-5.8-3.4 6.7 6.7 0 00-.9 13.3 6.4 6.4 0 006.7-3.4c.1-.1.5 0 .5.2v12.6H59.5a3.7 3.7 0 01-3.4-3.5zm65.9 0a3.4 3.4 0 01-3.4 3.4H90V78a2.2 2.2 0 00-2.2-2.1 2.1 2.1 0 00-1.9 1.1 5.2 5.2 0 01-4.7 2.4 4.8 4.8 0 01-4-4.1 4.7 4.7 0 014.7-5.2 4.6 4.6 0 014.1 2.4 2.1 2.1 0 001.9 1.1 2.2 2.2 0 002.2-2.2V58.7h12.5c.2 0 .3.1.3.2s-.1.4-.1.4a6.7 6.7 0 00-3.4 5.8 6.4 6.4 0 002.2 4.9 6.6 6.6 0 107.7-10.7c-.1 0-.1-.1-.1-.2a.3.3 0 01.3-.3H122zm0-59.1v28.6h-12.6a2.2 2.2 0 00-2.2 2.2 2 2 0 001.1 1.9 4.5 4.5 0 012.3 4.7 4.7 4.7 0 01-9.3-.7 4.7 4.7 0 012.4-4.1 2.3 2.3 0 001.1-1.9 2.2 2.2 0 00-.1-.8 2.3 2.3 0 00-2.2-1.5H90V44.2c0-.2.1-.4.2-.4h.3a6.7 6.7 0 006.6 3.3 6.6 6.6 0 005.7-5.8 6.9 6.9 0 00-1.6-5.2 6.6 6.6 0 00-10.7 1.1s-.1.2-.4.1-.2-.2-.2-.3V24.8h28.6a3.3 3.3 0 013.5 3.4zm-65.9 0a3.4 3.4 0 013.4-3.4h28.6v12.5a2.3 2.3 0 001.5 2.2 2.1 2.1 0 002.7-1 4.6 4.6 0 014.1-2.4 4.8 4.8 0 013.5 1.6 4.5 4.5 0 011.1 3.7 4.8 4.8 0 01-4 4.1 4.8 4.8 0 01-4.7-2.3 2.2 2.2 0 00-2.3-1.1 2.4 2.4 0 00-1.9 2.3v12.5H75.6l-.4-.2a.4.4 0 01.1-.3 6.6 6.6 0 00-4-12.4 6.7 6.7 0 00-2.5 12.4c.1 0 .1.1.1.2a.3.3 0 01-.3.3H56.1z"/>
</symbol>



<!-- 
    Twitter 
-->
<symbol id="icon-twitter" viewBox="0 0 165 165">
<path d="M124.5 56.4a36.4 36.4 0 01-9.9 2.8 17.7 17.7 0 007.6-9.6 34 34 0 01-11 4.2 17.3 17.3 0 00-29.8 11.8 16 16 0 00.5 3.9 49 49 0 01-35.6-18 18.2 18.2 0 00-2.3 8.7 17.2 17.2 0 007.7 14.3 17.1 17.1 0 01-7.8-2.1v.2a17.3 17.3 0 0013.8 16.9 16.8 16.8 0 01-4.5.6 17.6 17.6 0 01-3.3-.3 17.5 17.5 0 0016.1 12 34.6 34.6 0 01-21.4 7.3 27.5 27.5 0 01-4.1-.2 48.6 48.6 0 0026.4 7.7c31.7 0 49.1-26.2 49.1-49 0-.8-.1-1.5-.1-2.2a35 35 0 008.6-9" fill="currentColor"/>
</symbol>



<!-- 
    Big Arrow Down 
-->
<symbol id="icon-big-arrow-down" viewBox="0 0 76 124">
<path d="M74.5092 86.5146L38.0238 123H38L1.09033 86.5146L11.9085 75.6784L28.6456 92.4576V1H46.954V92.4576L63.6911 75.6784L74.5092 86.5146Z"/>
</symbol>
</svg>


