<?xml version="1.0" encoding="UTF-8" standalone="no"?>
<svg width="107px" height="176px" viewBox="0 0 107 176" version="1.1" xmlns="http://www.w3.org/2000/svg" xmlns:xlink="http://www.w3.org/1999/xlink">
    <!-- Generator: Sketch 3.7.2 (28276) - http://www.bohemiancoding.com/sketch -->
    <title>Group 3</title>
    <desc>Created with Sketch.</desc>
    <defs></defs>
    <g id="Page-1" stroke="none" stroke-width="1" fill="none" fill-rule="evenodd">
        <g id="Group-3" fill="#FECD04">
            <g id="Group" transform="translate(0.000000, 58.000000)">
                <g id="Right-Angle-Arrow" transform="translate(72.000000, 0.000000)">
                    <polyline id="Rectangle-2" points="34.8476563 30.290255 29.7360956 35.5264745 0.544321462 5.62278224 5.65588213 0.386562719 34.8476563 30.290255"></polyline>
                    <polyline id="Rectangle-2" points="34.8476563 30.4828704 29.7360956 25.2466509 0.544321462 55.1503432 5.65588213 60.3865627 34.8476563 30.4828704"></polyline>
                </g>
                <g id="Right-Angle-Arrow" transform="translate(17.500000, 30.500000) scale(-1, 1) translate(-17.500000, -30.500000) ">
                    <polyline id="Rectangle-2" points="34.8476563 30.290255 29.7360956 35.5264745 0.544321462 5.62278224 5.65588213 0.386562719 34.8476563 30.290255"></polyline>
                    <polyline id="Rectangle-2" points="34.8476563 30.4828704 29.7360956 25.2466509 0.544321462 55.1503432 5.65588213 60.3865627 34.8476563 30.4828704"></polyline>
                </g>
            </g>
            <g id="Group-2" transform="translate(23.000000, 0.000000)">
                <g id="Right-Angle-Arrow" transform="translate(30.500000, 158.500000) rotate(-270.000000) translate(-30.500000, -158.500000) translate(13.000000, 128.000000)">
                    <polyline id="Rectangle-2" points="34.8476563 30.290255 29.7360956 35.5264745 0.544321462 5.62278224 5.65588213 0.386562719 34.8476563 30.290255"></polyline>
                    <polyline id="Rectangle-2" points="34.8476563 30.4828704 29.7360956 25.2466509 0.544321462 55.1503432 5.65588213 60.3865627 34.8476563 30.4828704"></polyline>
                </g>
                <g id="Right-Angle-Arrow" transform="translate(30.500000, 17.500000) scale(1, -1) rotate(-270.000000) translate(-30.500000, -17.500000) translate(13.000000, -13.000000)">
                    <polyline id="Rectangle-2" points="34.8476563 30.290255 29.7360956 35.5264745 0.544321462 5.62278224 5.65588213 0.386562719 34.8476563 30.290255"></polyline>
                    <polyline id="Rectangle-2" points="34.8476563 30.4828704 29.7360956 25.2466509 0.544321462 55.1503432 5.65588213 60.3865627 34.8476563 30.4828704"></polyline>
                </g>
            </g>
        </g>
    </g>
</svg>