<?xml version="1.0" encoding="UTF-8" standalone="no"?>
<svg width="973px" height="7525px" viewBox="0 0 973 7525" version="1.1" xmlns="http://www.w3.org/2000/svg" xmlns:xlink="http://www.w3.org/1999/xlink">
    <!-- Generator: Sketch 3.7.2 (28276) - http://www.bohemiancoding.com/sketch -->
    <title>Group 2</title>
    <desc>Created with Sketch.</desc>
    <defs></defs>
    <g id="Page-1" stroke="none" stroke-width="1" fill="none" fill-rule="evenodd">
        <g id="Group-2" transform="translate(21.000000, 1.000000)">
            <g id="about-me-lines">
                <g id="about-me-bg-01">
                    <g id="Layer_3">
                        <path d="M279.9,3727.7 C279.9,3727.7 279,3755.43274 277,3817.16658 C276,3866.55365 275,3915.94073 272,3966.27755 C270,3982.42332 269,3997.61934 266,4013.76512 C263,4031.81039 259,4047.95617 254,4066.00144 C240,4112.53926 224,4156.22783 207,4201.81589 C206,4206.56465 204,4211.31341 203,4216.06216 C161,4327.18308 133,4439.25374 117,4557.02291 C116,4564.62092 116,4572.21893 115,4579.81695 C114,4585.51545 113,4592.16371 112,4597.86222 L112,4607.35974 C91,4813.45579 94,5012.90358 135,5221.84888 C141,5253.19068 149,5280.73347 157,5311.12552 C161,5325.37179 165,5337.71855 169,5351.96483 C172,5359.56284 174,5366.2111 177,5373.80911 C191,5415.59817 206,5454.53798 222,5495.37728 C233,5525.76933 246,5554.26187 254,5586.55342 C254,5587.50317 256,5589.40267 256,5590.35242 C259,5601.74944 262,5613.14646 262,5624.54347 C267,5677.72955 264,5729.96588 264,5783.15196 C260,6295.06795 263,6806.98395 262,7318.89995" id="Shape" stroke="#383838" stroke-width="42"></path>
                        <path d="M1,27 C-1,58 1,89 4,121 C6,140 9,158 12,177 C17,203 22,226 29,251 C31,258 32,266 34,274 C35,275 36,277 36,278 C57,362 87,438 118,517 C122,527 128,537 131,548 C136,562 145,574 148,588 C184,667 219,745 258,823 C263,833 267,844 272,854 C311,930 346,1003 385,1079 L397,1106 C409,1128 419,1149 428,1171 C435,1187 443,1202 450,1218 C451,1220 450,1221 451,1223 C467,1260 483,1296 488,1337 C489,1346 488,1354 487,1363 C484,1384 477,1402 469,1421 C466,1427 464,1432 461,1438 C451,1455 443,1471 433,1488 C422,1505 413,1519 402,1536 C374,1577 350,1611 323,1652 C299,1690 278,1725 256,1764 C251,1772 248,1781 244,1789 C206,1862 180,1939 170,2020 C159,2168 174,2314 191,2463 C208,2621 232,2770 255,2928 C258,2944 260,2960 262,2976 C263,2983 271,3045 271,3048 C274,3064 278,3217 279,3279 C280,3390 280,3412.2 280,3412.2" id="Shape" stroke="#383838" stroke-width="42"></path>
                        <path d="M328.9,3690.7 C328.9,3690.7 328,3868.74982 321,3989.23466 C320,4005.49055 318,4021.74644 315,4038.00233 C311,4059.99559 306,4080.0764 300,4101.11344 C295,4118.32556 290,4134.58145 284,4151.79357 C281,4157.53094 280,4163.26831 277,4169.00569 C275,4176.65552 272,4183.34912 270,4190.99895 C246,4259.84743 221,4323.91476 203,4396.58816 C203,4397.54439 201,4399.45685 201,4400.41308 C199,4411.88782 196,4421.45011 194,4432.92486 C194,4433.88109 192,4435.79354 192,4436.74977 C149,4627.99555 142,4809.67904 153,4998.05613 C155,5032.48037 160,5065.94838 163,5100.37262 C163,5103.2413 165,5106.10999 165,5108.97868 C179,5228.50729 211,5340.38607 253,5453.22107 C254,5456.08976 256,5458.00222 257,5460.8709 C258,5467.56451 261,5472.34565 264,5479.03925 C280,5523.98201 298,5566.05608 309,5613.86753 C310,5619.6049 311,5625.34227 311,5631.07964 C312,6200.99206 311,6768.99201 311.1,7339.00005" id="Shape" stroke="#383838" stroke-width="42"></path>
                        <path d="M50.1,24.1 C44,162 86,296 135,425 C215,641 321,839 424,1046 C453,1106 482,1165 506,1227 C508,1231 510,1236 512,1240 C513,1242 512,1243 513,1245 C524,1273 534,1302 537,1332 C538,1343 538,1353 536,1364 C534,1372 534,1379 532,1387 C529,1397 526,1407 522,1417 C516,1432 510,1446 503,1461 C487,1492 470,1519 450,1549 C358,1686 264,1804 229,1967 C229,1968 221,1999 220,2014 C219,2027 217,2040 217,2053 C216,2079 214,2104 215,2130 C216,2144 215,2159 216,2173 C218,2199 218,2226 220,2252 C221,2262 221,2271 222,2281 C223,2289 224,2298 224,2306 C242,2514 274,2713 304,2923 C307,2939 313,2986 314,2994 C332,3125 326,3252 329,3381 C330,3458 329,3502.4 329,3502.4" id="Shape" stroke="#383838" stroke-width="42"></path>
                        <path d="M377.9,3776.8 C377.9,3776.8 377,3889.47101 370,4018.29282 C367,4064.43795 356,4108.66036 342,4153.84413 C310,4250.94116 273,4341.3087 247,4442.25116 C237,4482.62815 229,4520.12106 222,4560.49805 C214,4609.52724 208,4656.63372 204,4705.66292 C203,4720.08327 202,4733.54227 201,4747.96262 C199,4774.88061 199,4800.83724 198,4827.75523 C196,4910.43191 199,4992.14724 208,5075.78528 C210,5090.20563 212,5103.66463 213,5118.08498 C217,5147.88704 223,5175.76639 228,5205.56845 C233,5231.52508 239,5254.59764 245,5279.59292 C249,5293.05191 252,5306.51091 256,5319.9699 C263,5340.15839 268,5360.34689 275,5380.53538 C296,5439.17814 318,5495.89819 339,5554.54096 C349,5583.38166 356,5611.26101 361,5641.06307 C364,5710.28075 362,5778.53709 362,5847.75477 C358,6351.50573 361,6855.25668 360.3,7359.1999" id="Shape" stroke="#383838" stroke-width="42"></path>
                        <path d="M99.3,21.2 C94,163 138,299 188,431 C190,435 192,440 194,444 C234,550 282,649 332,751 C377,845 425,935 470,1029 C517,1127 570,1219 586,1328 C587,1337 586,1346 586,1355 C583,1385 576,1415 564,1443 C550,1476 534,1506 514,1537 C491,1571 472,1601 448,1635 C397,1707 353,1772 318,1849 C315,1858 311,1866 307,1874 C299,1896 291,1917 284,1940 C277,1967 272,1993 268,2020 C267,2026 267,2033 266,2039 C260,2176 274,2311 288,2449 C288,2452 294,2493 294,2498 C294,2501 347,2861 367,3015 C369,3037 372,3058 372,3080 C375,3145 375,3210 376,3275 C378,3387 377.9,3582.2 377.9,3582.2" id="Shape" stroke="#383838" stroke-width="42"></path>
                        <path d="M426.9,3686.9 C426.9,3686.9 426,3792.56684 424,3874.89206 C423,3934.94104 422,3994.0215 418,4054.07048 C415,4089.90616 407,4122.83625 397,4157.7034 C393,4171.26285 389,4183.85377 385,4197.41321 C374,4228.40624 364,4258.43073 352,4289.42375 C341,4319.44824 332,4349.47274 321,4380.46576 C320,4383.37136 320,4387.24548 319,4390.15108 C259,4572.23509 242,4760.1303 247,4948.99404 C248,4984.82972 251,5020.66541 254,5057.46962 C258,5098.14797 264,5136.88925 271,5177.56759 C277,5210.49768 284,5239.55364 292,5272.48373 C297,5290.88583 302,5308.31941 307,5326.72152 C320,5368.36839 333,5408.0782 348,5448.75655 C361,5482.65517 373,5516.55379 386,5551.42094 C387,5554.32654 387,5557.23213 388,5560.13773 C400,5592.09928 407,5625.02937 411,5658.92799 C412,5666.67625 411,5674.4245 411,5682.17276 C408,6248.76397 410,6813.41813 409.4,7380.2999" id="Shape" stroke="#383838" stroke-width="42"></path>
                        <path d="M148.4,18.3 C143,146 180,270 224,390 C226,394 228,399 230,403 C292,566 369,717 449,874 C455,888 462,900 468,914 C509,994 547,1072 584,1154 C585,1156 584,1157 585,1159 C608,1210 626,1262 634,1318 C636,1333 635,1347 634,1361 C631,1413 612,1461 587,1507 C581,1517 577,1526 570,1535 C568,1538 568,1541 566,1544 C554,1561 545,1577 533,1595 C430,1741 322,1879 314,2056 C310,2270 341,2478 371,2693 C384,2793 399,2886 413,2986 C415,3003 417,3019 419,3036 C419,3039 422,3086 422,3106 C426,3204 426,3301 427,3399 C427,3470 426.9,3492.1 426.9,3492.1" id="Shape" stroke="#383838" stroke-width="42"></path>
                        <path d="M475.8,3646.9 C475.8,3646.9 475,3921.89347 467,4070.06436 C465,4120.7544 451,4168.52001 436,4217.26043 C402,4319.61532 364,4415.14655 338,4521.40068 C333,4542.84646 329,4562.34263 324,4584.76323 C323,4589.63727 322,4594.51131 321,4599.38535 C295,4746.58143 289,4887.92866 300,5033.17512 C304,5080.94073 310,5126.75673 319,5175.49716 C324,5200.84218 329,5224.23758 335,5249.5826 C340,5268.10396 344,5284.6757 349,5303.19707 C375,5394.82906 409,5478.66259 439,5568.34497 C451,5605.38769 460,5642.43041 460,5680.44794 C459,6253.63532 460,6826.8227 458.5,7400.4" id="Shape" stroke="#383838" stroke-width="42"></path>
                        <path d="M197.5,15.4 C193,95 208,173 230,251 C231,256 232,260 233,265 C290,451 373,617 461,789 C471,810 481,829 491,850 C557,981 626,1106 670,1247 C671,1252 672,1256 673,1261 C673,1262 675,1264 675,1265 C679,1283 682,1299 684,1317 C685,1323 684,1329 684,1335 C686,1355 683,1375 680,1396 C679,1404 677,1411 675,1419 C670,1434 666,1448 661,1463 C656,1476 650,1487 645,1500 C636,1520 625,1538 614,1557 C570,1627 525,1685 477,1755 C419,1841 375,1927 365,2028 C364,2037 364,2047 363,2056 C359,2183 372,2307 386,2434 C390,2470 395,2504 400,2540 C401,2548 404,2573 405,2578 C422,2702 458,2954 459,2959 C463,2988 466,3017 469,3046 C473,3095 472,3144 473,3193 C476,3333 475.8,3542.3 475.8,3542.3" id="Shape" stroke="#383838" stroke-width="42"></path>
                        <path d="M524.8,3716.9 C524.8,3716.9 524,3940.53172 517,4097.39746 C516,4115.04485 513,4131.71184 510,4149.35923 C502,4194.45813 489,4235.63539 475,4277.79306 C439,4379.75579 404,4474.85564 379,4582.70084 C376,4595.44618 373,4607.21111 371,4619.95645 C368,4639.56467 364,4657.21206 361,4676.82028 C359,4691.52644 357,4705.2522 355,4719.95836 C353,4736.62534 352,4752.31192 350,4767.99849 C349,4782.70466 348,4796.43041 347,4811.13657 C345,4834.66643 345,4859.1767 344,4882.70656 C343,4918.98177 344,4956.23738 346,4992.51258 C346,5006.23833 347,5020.9445 348,5034.67025 C354,5100.35778 362,5162.12366 378,5227.81119 C382,5243.49776 385,5257.22352 389,5272.91009 C413,5363.10789 445,5445.4624 474,5532.71897 C486,5566.05294 496,5598.4065 503,5633.70129 C505,5641.54458 505,5648.40745 507,5656.25074 C509,5668.99608 509,5681.74142 509,5694.48676 C507,6269.98794 508,6845.48912 507.6,7420.5001" id="Shape" stroke="#383838" stroke-width="42"></path>
                        <path d="M246.6,12.5 C240,146 283,274 330,397 C332,401 334,406 336,410 C337,412 336,413 337,415 C342,425 346,436 351,446 C352,448 351,449 352,451 C375,504 400,555 424,608 C426,612 428,616 431,620 C437,632 441,643 447,655 C459,676 468,697 479,718 C516,788 550,855 586,925 C596,946 606,965 616,986 C634,1024 652,1061 668,1100 C673,1110 677,1121 682,1131 C683,1133 682,1134 683,1136 C708,1198 731,1263 734,1330 C735,1356 732,1380 728,1406 C726,1417 724,1427 721,1437 C704,1498 676,1549 641,1603 C639,1606 637,1608 635,1610 C633,1614 630,1618 628,1622 C563,1717 494,1795 449,1897 C447,1903 445,1908 442,1914 C441,1916 442,1917 441,1919 C427,1951 420,1983 415,2018 C413,2031 413,2044 412,2057 C408,2219 429,2377 449,2540 C458,2609 467,2674 477,2744 C484,2787 489,2826 496,2869 C506,2936 517,3000 519,3067 C526,3249 524.8,3432.4 524.8,3432.4" id="Shape" stroke="#383838" stroke-width="42"></path>
                        <path d="M573.7,3756.7 C573.7,3756.7 573,3870.45645 570,3990.8232 C569,4036.20739 569,4081.59157 566,4126.97576 C563,4158.54737 558,4188.14575 550,4218.73074 C545,4236.48977 540,4254.2488 535,4272.00783 C530,4287.79364 525,4302.59283 520,4318.37863 C508,4352.91008 496,4385.4683 485,4419.99974 C481,4428.87926 478,4437.75877 475,4446.63829 C436,4561.08536 408,4676.51905 398,4796.88581 C397,4811.685 396,4825.49758 395,4840.29677 C394,4856.08257 394,4872.85499 393,4888.64079 C393,4921.19901 392,4953.75723 394,4986.31545 C394,5002.10125 395,5018.87367 396,5034.65948 C397,5050.44528 399,5066.23108 401,5083.0035 C404,5106.6822 408,5129.3743 411,5153.053 C413,5165.87897 416,5176.73171 419,5189.55767 C444,5321.76378 491,5437.19747 531,5562.49729 C546,5607.88147 559,5653.26566 558,5699.63646 C556,6280.75136 558,6860.87965 556.8,7441.5999" id="Shape" stroke="#383838" stroke-width="42"></path>
                        <path d="M295.8,9.6 C291,66 300,120 311,177 C317,204 324,228 331,254 C336,270 341,285 346,301 C360,342 375,382 393,422 C394,424 393,425 394,427 C435,520 478,608 525,699 C531,712 538,725 545,738 C557,760 567,783 579,805 C587,820 594,833 602,848 C606,855 609,862 612,869 C643,927 670,982 697,1041 C701,1050 705,1058 709,1067 C747,1159 787,1254 783,1355 C781,1384 778,1411 771,1440 C767,1455 763,1469 758,1483 C750,1503 741,1522 732,1542 C725,1556 718,1569 710,1583 C665,1657 614,1716 563,1789 C561,1793 558,1797 556,1801 C554,1803 552,1805 550,1808 C509,1873 476,1935 465,2010 C464,2016 464,2022 463,2028 C456,2113 464,2196 471,2281 C476,2347 483,2411 491,2478 C513,2652 539,2816 562,2990 C563,2998 566,3030 566,3033 C576,3165 571,3297 574,3429 C575,3490 573.7,3582.4 573.7,3582.4" id="Shape" stroke="#383838" stroke-width="42"></path>
                        <path d="M622.7,3716.9 C622.7,3716.9 622,3941.44144 617,4098.3523 C617,4122.18687 615,4146.02143 613,4169.85599 C612,4177.80084 611,4184.75259 610,4192.69745 C603,4227.45618 596,4259.2356 586,4293.00123 C564,4362.5187 541,4428.06375 517,4496.58811 C472,4629.66442 445,4765.72004 441,4904.75499 L441,4976.25867 C442,4991.15527 442,5005.05877 443,5019.95537 C447,5066.63139 451,5110.32808 460,5157.0041 C477,5245.3906 499,5323.84604 527,5407.267 C560,5506.57768 600,5602.90903 608,5706.19214 C608,5802.52349 607,5897.86174 606,5994.19309 C605,6483.79472 606,6973.39635 605.9,7462.70005" id="Shape" stroke="#383838" stroke-width="42"></path>
                        <path d="M344.9,6.7 C341,76 353,142 369,210 C369,211 371,213 371,214 C389,286 414,351 443,417 C444,419 443,420 444,422 C461,459 477,494 495,531 C501,544 507,557 514,570 C520,584 527,596 534,610 C538,617 540,624 544,631 C561,660 574,689 590,718 C595,729 600,738 605,749 C626,788 645,825 666,864 C668,869 670,873 672,878 C717,965 759,1049 792,1141 C796,1155 801,1168 805,1182 C815,1212 821,1240 827,1271 C832,1302 833,1331 832,1361 C830,1400 823,1438 812,1476 C808,1490 803,1503 798,1516 C777,1565 753,1608 721,1653 C701,1679 685,1703 664,1728 C661,1732 659,1736 656,1740 C595,1818 537,1893 518,1992 C501,2080 511,2163 517,2249 C520,2288 524,2326 528,2365 C531,2390 538,2444 538,2447 C539,2455 544,2493 544,2496 C544,2501 565,2656 565,2661 C570,2695 574,2726 579,2760 C581,2770 582,2778 584,2788 C589,2824 600,2903 600,2908 C602,2925 609,2976 610,2984 C610,2987 616,3033 617,3053 C619,3093 619,3132 620,3172 C623,3319 623,3465 622.7,3612.2" id="Shape" stroke="#383838" stroke-width="42"></path>
                        <path d="M671.6,3756.8 C671.6,3756.8 673,3988.81319 664,4170.66677 C662,4210.63459 655,4248.60402 644,4288.57184 C640,4304.55897 635,4319.5469 631,4335.53403 C625,4354.51874 619,4372.50426 613,4391.48898 C594,4447.44393 575,4500.40129 556,4556.35623 C530,4635.29268 510,4713.22993 499,4796.16315 C492,4852.1181 489,4907.07385 489,4963.0288 C490,4986.0103 490,5007.9926 492,5030.97409 C495,5072.94031 501,5112.90813 508,5154.87434 C513,5182.85181 519,5206.8325 525,5234.80998 C525,5235.80917 527,5237.80756 527,5238.80676 C538,5290.76492 553,5337.72711 570,5386.68769 C575,5403.67401 580,5420.66034 586,5437.64666 C587,5440.64425 589,5443.64183 590,5446.63942 C592,5454.63298 595,5462.62655 597,5470.62011 C624,5551.55495 651,5631.49059 657,5715.42301 C657,5817.34095 656,5919.25889 656,6021.17683 C654,6508.78423 655,6995.39244 655,7482.8" id="Shape" stroke="#383838" stroke-width="42"></path>
                        <path d="M394,3.8 C389,71 402,135 417,202 C417,203 419,205 419,206 C437,279 463,345 493,412 C494,414 493,415 494,417 C529,494 565,568 605,644 C621,673 635,700 650,729 C657,741 663,753 669,765 C679,782 687,799 696,816 C702,827 707,836 712,847 C765,949 814,1048 850,1157 C851,1160 851,1164 852,1167 L855,1176 C855,1177 857,1179 857,1180 C858,1185 859,1189 860,1194 C860,1195 862,1197 862,1198 C888,1298 890,1401 856,1498 C855,1501 855,1504 854,1507 C843,1535 832,1563 816,1590 C807,1607 798,1622 788,1638 C786,1641 784,1643 782,1645 C775,1656 768,1666 761,1677 C716,1737 673,1786 630,1848 C619,1865 611,1880 601,1897 C595,1908 590,1919 585,1931 C581,1941 577,1951 574,1962 C571,1972 568,1981 566,1992 C564,2003 563,2013 561,2024 C560,2035 560,2045 559,2056 C557,2123 562,2188 568,2255 C589,2505 629,2746 662,2997 C665,3021 666,3044 667,3067 C672,3249 671.6,3522.3 671.6,3522.3" id="Shape" stroke="#383838" stroke-width="42"></path>
                        <path d="M720.5,3836.6 C720.5,3836.6 722,4013.96756 713,4208.02617 C712,4227.13038 708,4246.2346 705,4265.33881 C704,4273.3827 702,4281.42658 700,4289.47046 C700,4290.47594 698,4292.48691 698,4293.4924 C696,4301.53628 695,4309.58016 693,4317.62404 C665,4423.19996 625,4518.72104 593,4622.286 C565,4713.78514 544,4804.27879 539,4898.79438 C538,4929.96442 538,4960.12897 538,4991.299 C539,5033.52937 543,5074.75426 550,5116.98463 C573,5264.79093 623,5397.51495 668,5537.27737 C669,5540.29383 669,5544.31577 670,5547.33222 C687,5598.61196 699,5649.8917 705,5704.18789 C706,5719.27016 706,5733.34695 706,5748.42923 C706,5846.96676 705,5946.50978 705,6045.04731 C702,6531.70206 704,7016.34584 704.1,7502.90005" id="Shape" stroke="#383838" stroke-width="42"></path>
                        <path d="M443.1,0.9 C437,120 473,235 516,345 C545,416 577,483 612,552 C719,763 845,955 910,1186 C916,1211 922,1234 925,1259 C926,1267 927,1274 928,1282 L928,1291 C933,1334 931,1375 925,1418 C921,1454 913,1488 901,1523 C900,1526 898,1528 897,1531 C896,1533 897,1534 896,1536 C895,1539 893,1541 892,1544 C891,1546 892,1547 891,1549 C848,1654 772,1732 702,1823 C665,1872 633,1919 619,1979 C619,1980 617,1982 617,1983 C611,2007 609,2030 608,2054 C606,2213 628,2367 647,2527 C664,2663 684,2792 702,2928 C707,2964 711,2998 715,3034 C716,3045 716,3057 717,3068 C718,3100 718,3133 719,3165 C721,3314 720.6,3372.2 720.6,3372.2" id="Shape" stroke="#383838" stroke-width="42"></path>
                        <circle id="Oval" fill="#383838" cx="280" cy="3411.8" r="21"></circle>
                        <circle id="Oval" fill="#383838" cx="329" cy="3502.4" r="21"></circle>
                        <circle id="Oval" fill="#383838" cx="377.9" cy="3582.4" r="21"></circle>
                        <circle id="Oval" fill="#383838" cx="427" cy="3492" r="21"></circle>
                        <circle id="Oval" fill="#383838" cx="475.8" cy="3542.3" r="21"></circle>
                        <circle id="Oval" fill="#383838" cx="524.9" cy="3432.4" r="21"></circle>
                        <circle id="Oval" fill="#383838" cx="573.8" cy="3582.4" r="21"></circle>
                        <circle id="Oval" fill="#383838" cx="622.8" cy="3611.8" r="21"></circle>
                        <circle id="Oval" fill="#383838" cx="671.7" cy="3522.2" r="21"></circle>
                        <circle id="Oval" fill="#383838" cx="720.5" cy="3371.6" r="21"></circle>
                        <circle id="Oval" fill="#383838" cx="280" cy="3727.8" r="21"></circle>
                        <circle id="Oval" fill="#383838" cx="328.9" cy="3690.7" r="21"></circle>
                        <circle id="Oval" fill="#383838" cx="377.9" cy="3776.8" r="21"></circle>
                        <circle id="Oval" fill="#383838" cx="426.9" cy="3686.9" r="21"></circle>
                        <circle id="Oval" fill="#383838" cx="475.8" cy="3646.9" r="21"></circle>
                        <circle id="Oval" fill="#383838" cx="524.8" cy="3716.8" r="21"></circle>
                        <circle id="Oval" fill="#383838" cx="573.7" cy="3756.8" r="21"></circle>
                        <circle id="Oval" fill="#383838" cx="622.7" cy="3716.9" r="21"></circle>
                        <circle id="Oval" fill="#383838" cx="671.7" cy="3756.8" r="21"></circle>
                        <circle id="Oval" fill="#383838" cx="720.6" cy="3836.6" r="21"></circle>
                    </g>
                </g>
            </g>
            <g id="Group" transform="translate(241.000000, 7298.000000)">
                <path d="M42,21 C42,32.6 32.6,42 21,42 C9.4,42 0,32.6 0,21 C0,9.4 9.4,0 21,0 C32.6,0 42,9.4 42,21 L42,21 Z" id="Shape" fill="#383838"></path>
                <path d="M91,41 C91,52.6 81.6,62 70,62 C58.4,62 49,52.6 49,41 C49,29.4 58.4,20 70,20 C81.6,20 91,29.4 91,41 L91,41 Z" id="Shape" fill="#383838"></path>
                <path d="M119,82 C107.4,82 98,72.6 98,61 C98,49.4 107.4,40 119,40 C130.6,40 140,49.4 140,61 C140,72.6 130.6,82 119,82 Z" id="Shape" fill="#383838"></path>
                <path d="M189,82 C189,93.6 179.6,103 168,103 C156.4,103 147,93.6 147,82 C147,70.4 156.4,61 168,61 C179.6,61 189,70.4 189,82 L189,82 Z" id="Shape" fill="#383838"></path>
                <path d="M217,123 C205.4,123 196,113.6 196,102 C196,90.4 205.4,81 217,81 C228.6,81 238,90.4 238,102 C238,113.6 228.6,123 217,123 Z" id="Shape" fill="#383838"></path>
                <path d="M267,142 C255.4,142 246,132.6 246,121 C246,109.4 255.4,100 267,100 C278.6,100 288,109.4 288,121 C288,132.6 278.6,142 267,142 Z" id="Shape" fill="#383838"></path>
                <path d="M337,143 C337,154.6 327.6,164 316,164 C304.4,164 295,154.6 295,143 C295,131.4 304.4,122 316,122 C327.6,122 337,131.4 337,143 L337,143 Z" id="Shape" fill="#383838"></path>
                <path d="M386,164 C386,175.6 376.6,185 365,185 C353.4,185 344,175.6 344,164 C344,152.4 353.4,143 365,143 C376.6,143 386,152.4 386,164 L386,164 Z" id="Shape" fill="#383838"></path>
                <path d="M435,184 C435,195.6 425.6,205 414,205 C402.4,205 393,195.6 393,184 C393,172.4 402.4,163 414,163 C425.6,163 435,172.4 435,184 L435,184 Z" id="Shape" fill="#383838"></path>
                <path d="M484,205 C484,216.6 474.6,226 463,226 C451.4,226 442,216.6 442,205 C442,193.4 451.4,184 463,184 C474.6,184 484,193.4 484,205 L484,205 Z" id="Shape" fill="#1A262D"></path>
            </g>
        </g>
    </g>
</svg>