<svg xmlns="http://www.w3.org/2000/svg">
  <symbol id="behance-fill" viewBox="0 0 32.3 32.3">
    <path fill="#1769ff" d="M11.6 8.6l1.9.2a4.3 4.3 0 0 1 1.5.6 2.8 2.8 0 0 1 1 1.1 4 4 0 0 1 .3 1.7 3.3 3.3 0 0 1-.5 1.9 3.7 3.7 0 0 1-1.5 1.2 3.5 3.5 0 0 1 2 1.4A4.1 4.1 0 0 1 17 19a4.1 4.1 0 0 1-.4 1.9 3.7 3.7 0 0 1-1.2 1.4 5.1 5.1 0 0 1-1.7.8l-1.9.3H4.7V8.6h6.9zm10 12.2a2.6 2.6 0 0 0 1.9.6A2.6 2.6 0 0 0 25 21a1.8 1.8 0 0 0 .8-.9h2.6a4.9 4.9 0 0 1-1.9 2.8 5.5 5.5 0 0 1-3.1.8 6.1 6.1 0 0 1-2.3-.4 4.9 4.9 0 0 1-1.7-1.3 5.1 5.1 0 0 1-1.1-1.8A6.6 6.6 0 0 1 18 18a6.1 6.1 0 0 1 .4-2.2 5.2 5.2 0 0 1 2.9-3 5.4 5.4 0 0 1 2.2-.4 5 5 0 0 1 2.4.5 4.8 4.8 0 0 1 1.7 1.4 5.6 5.6 0 0 1 .9 2 8.1 8.1 0 0 1 .2 2.4H21a3 3 0 0 0 .7 2.1h-.1zm-10.2 0h.9l.8-.3a1.5 1.5 0 0 0 .5-.6 2 2 0 0 0 .2-1 1.9 1.9 0 0 0-.6-1.6 2.8 2.8 0 0 0-1.7-.5H7.9v4h3.5zM25 15.1a2.2 2.2 0 0 0-1.7-.6 2.5 2.5 0 0 0-1.2.2l-.7.6a2.1 2.1 0 0 0-.4.8 3.5 3.5 0 0 0-.1.7h4.8a2.9 2.9 0 0 0-.7-1.7zm-13.8-.6a2.3 2.3 0 0 0 1.4-.4 1.5 1.5 0 0 0 .6-1.3 1.9 1.9 0 0 0-.2-.8l-.5-.5-.7-.3H7.9v3.4h3.3zm9.1-5h6V11h-6V9.5z"/>
  </symbol>
  <symbol id="behance" viewBox="0 0 32.3 32.3">
    <path fill="#565656" d="M11.5 9l1.9.2a4.3 4.3 0 0 1 1.5.6 2.8 2.8 0 0 1 1 1.1 4 4 0 0 1 .3 1.7 3.3 3.3 0 0 1-.5 1.9 3.7 3.7 0 0 1-1.5 1.2 3.5 3.5 0 0 1 2 1.4 4.1 4.1 0 0 1 .7 2.4 4.1 4.1 0 0 1-.4 1.9 3.7 3.7 0 0 1-1.2 1.4 5.1 5.1 0 0 1-1.7.8l-1.9.3H4.6V9h6.9zm10 12.2a2.6 2.6 0 0 0 1.9.6 2.6 2.6 0 0 0 1.5-.4 1.8 1.8 0 0 0 .8-.9h2.6a4.9 4.9 0 0 1-1.9 2.8 5.5 5.5 0 0 1-3.1.8 6.1 6.1 0 0 1-2.3-.4 4.9 4.9 0 0 1-1.7-1.1 5.1 5.1 0 0 1-1.1-1.8 6.6 6.6 0 0 1-.4-2.3 6.1 6.1 0 0 1 .4-2.2 5.2 5.2 0 0 1 2.9-3 5.4 5.4 0 0 1 2.2-.4 5 5 0 0 1 2.4.5 4.8 4.8 0 0 1 1.7 1.4 5.6 5.6 0 0 1 .9 2 8.1 8.1 0 0 1 .2 2.4h-7.6a3 3 0 0 0 .7 2.1h-.1zm-10.2 0h.9l.8-.3a1.5 1.5 0 0 0 .5-.6 2 2 0 0 0 .2-1 1.9 1.9 0 0 0-.6-1.6 2.8 2.8 0 0 0-1.7-.5H7.8v4h3.5zm13.6-5.6a2.2 2.2 0 0 0-1.7-.6 2.5 2.5 0 0 0-1.2.2l-.7.6a2.1 2.1 0 0 0-.4.8 3.5 3.5 0 0 0-.1.7h4.8a2.9 2.9 0 0 0-.7-1.7zM11.1 15a2.3 2.3 0 0 0 1.4-.4 1.5 1.5 0 0 0 .6-1.3 1.9 1.9 0 0 0-.2-.8l-.5-.5-.7-.3H7.8V15h3.3zm9.1-5h6v1.5h-6V10z"/>
  </symbol>
  <symbol id="flickr-fill" viewBox="0 0 32.3 32.3">
    <path fill="#0063dc" d="M4.1 16.7a5.6 5.6 0 1 0 5.6-5.6 5.6 5.6 0 0 0-5.6 5.6zm12.9 0a5.6 5.6 0 1 0 5.6-5.6 5.6 5.6 0 0 0-5.6 5.6z"/>
  </symbol>
  <symbol id="flickr" viewBox="0 0 32.3 32.3">
    <path fill="#565656" d="M4.3 16.1a5.6 5.6 0 1 0 5.6-5.6 5.6 5.6 0 0 0-5.6 5.6zm12.9 0a5.6 5.6 0 1 0 5.6-5.6 5.6 5.6 0 0 0-5.7 5.6z"/>
  </symbol>
  <symbol id="google-fill" viewBox="0 0 32.3 32.3">
    <path fill="#dc4e41" d="M11.6 15.3v2.6h4.3a4.1 4.1 0 0 1-4.3 3.3 4.8 4.8 0 0 1 0-9.6 4.3 4.3 0 0 1 3 1.2l2.1-2a7.3 7.3 0 0 0-5.1-2 7.6 7.6 0 1 0 0 15.3c4.4 0 7.3-3.1 7.3-7.5a7 7 0 0 0-.1-1.3zm16.4 0h-2.2v-2.2h-2.2v2.2h-2.2v2.2h2.2v2.2h2.2v-2.2H28"/>
  </symbol>
  <symbol id="google" viewBox="0 0 32.3 32.3">
    <path fill="#565656" d="M12 15.7v2.6h4.3a4.1 4.1 0 0 1-4.3 3.4 4.8 4.8 0 0 1 0-9.7 4.3 4.3 0 0 1 3 1.2l2.1-2a7.3 7.3 0 0 0-5.1-2 7.6 7.6 0 1 0 0 15.3c4.4 0 7.3-3.1 7.3-7.5a7 7 0 0 0-.1-1.3zm16.4 0h-2.2v-2.1H24v2.2h-2.2V18H24v2.2h2.2v-2.3h2.2"/>
  </symbol>
  <symbol id="linkedin" viewBox="0 0 32.3 32.3">
    <path fill="#565656" d="M25 24.9h-3.6v-5.6c0-1.3 0-3-1.9-3s-2.1 1.4-2.1 2.9v5.7h-3.5V13.4h3.4V15a3.7 3.7 0 0 1 3.4-1.9c3.6 0 4.3 2.4 4.3 5.5v6.3zm-15.1-13A2.1 2.1 0 1 1 12 9.8a2.1 2.1 0 0 1-2.1 2.1zm1.8 13H8.1V13.4h3.6zM26.8 4.4H6.3a1.7 1.7 0 0 0-1.7 1.8v20.5a1.7 1.7 0 0 0 1.8 1.7h20.4a1.8 1.8 0 0 0 1.8-1.7V6.2a1.8 1.8 0 0 0-1.8-1.7z"/>
  </symbol>
  <symbol id="linkedin-fill" viewBox="0 0 32.3 32.3">
    <path fill="#0077b5" d="M24.9 25.5h-3.6v-5.6c0-1.3 0-3-1.9-3s-2.1 1.4-2.1 2.9v5.7h-3.5V14h3.4v1.6a3.7 3.7 0 0 1 3.4-1.9c3.6 0 4.3 2.4 4.3 5.5v6.3zM9.8 12.4a2.1 2.1 0 1 1 2.1-2.1 2.1 2.1 0 0 1-2.1 2.1zm1.8 13H8V14h3.6zM26.7 5H6.2a1.7 1.7 0 0 0-1.8 1.7v20.6A1.7 1.7 0 0 0 6.2 29h20.5a1.8 1.8 0 0 0 1.8-1.7V6.7A1.8 1.8 0 0 0 26.7 5z"/>
  </symbol>
  <symbol id="twitter" viewBox="0 0 32.3 32.3">
    <path fill="#565656" d="M28 8.8a10 10 0 0 1-2.8.8 5 5 0 0 0 2.2-2.7A10.2 10.2 0 0 1 24.2 8a4.9 4.9 0 0 0-8.5 3.4 5 5 0 0 0 .1 1.1A13.9 13.9 0 0 1 5.7 7.4 4.8 4.8 0 0 0 5 9.8a4.9 4.9 0 0 0 2.2 4.1 4.9 4.9 0 0 1-2.2-.6 4.9 4.9 0 0 0 3.9 4.8l-1.3.2h-.9a4.9 4.9 0 0 0 4.6 3.4 9.9 9.9 0 0 1-6.1 2.1H4.1A14 14 0 0 0 25.6 12v-.6a9.9 9.9 0 0 0 2.5-2.5z"/>
  </symbol>
  <symbol id="twitter-fill" viewBox="0 0 32.3 32.3">
    <path fill="#1da1f2" d="M28 9.3a10 10 0 0 1-2.8.8 5 5 0 0 0 2.2-2.7 10.2 10.2 0 0 1-3.1 1.2 4.9 4.9 0 0 0-8.5 3.4 5 5 0 0 0 .1 1.1A13.9 13.9 0 0 1 5.7 7.9a4.8 4.8 0 0 0-.7 2.5 4.9 4.9 0 0 0 2.2 4.1 4.9 4.9 0 0 1-2.2-.6 4.9 4.9 0 0 0 3.9 4.8l-1.3.2h-.9a4.9 4.9 0 0 0 4.6 3.4 9.9 9.9 0 0 1-6.1 2.1H4.1a14 14 0 0 0 21.5-11.9v-.6a9.9 9.9 0 0 0 2.5-2.5z"/>
  </symbol>
</svg>
