<?xml version="1.0" encoding="UTF-8" standalone="no"?>
<svg width="23px" height="23px" viewBox="0 0 23 23" version="1.1" xmlns="http://www.w3.org/2000/svg" xmlns:xlink="http://www.w3.org/1999/xlink">
    <!-- Generator: Sketch 3.7.2 (28276) - http://www.bohemiancoding.com/sketch -->
    <title>logo</title>
    <desc>Created with Sketch.</desc>
    <defs></defs>
    <g id="Page-1" stroke="none" stroke-width="1" fill="none" fill-rule="evenodd">
        <g id="logo" fill="#383838">
            <g id="Group">
                <path d="M11.5,0.177 C12.065,0.177 12.625,0.407 13.027,0.847 C13.402,1.25 13.579,1.734 13.579,2.287 L13.579,6.465 C13.672,6.375 13.731,6.325 13.785,6.271 C14.698,5.361 15.602,4.443 16.519,3.537 C16.953,3.107 17.504,2.885 18.051,2.885 C18.467,2.885 18.878,3.012 19.244,3.27 C20.292,4.01 20.424,5.51 19.511,6.434 C18.593,7.362 17.667,8.276 16.741,9.194 C16.681,9.254 16.611,9.294 16.541,9.34 C16.555,9.363 16.564,9.39 16.578,9.413 L19.18,9.413 C19.695,9.413 20.205,9.413 20.72,9.417 C21.918,9.427 22.83,10.345 22.826,11.527 C22.816,12.673 21.896,13.574 20.712,13.583 C20.202,13.587 19.69,13.587 19.18,13.587 L16.514,13.587 C16.726,13.795 16.889,13.954 17.051,14.117 C17.851,14.914 18.656,15.711 19.451,16.512 C20.309,17.372 20.341,18.667 19.523,19.492 C19.107,19.912 18.583,20.12 18.05,20.12 C17.508,20.12 16.957,19.903 16.514,19.464 C15.604,18.564 14.702,17.654 13.798,16.744 C13.744,16.684 13.718,16.604 13.676,16.53 L13.581,16.598 L13.581,16.838 C13.581,18.142 13.586,19.45 13.581,20.754 C13.577,21.818 12.821,22.664 11.765,22.819 C11.675,22.831 11.579,22.836 11.489,22.836 C10.613,22.836 9.795,22.252 9.529,21.378 C9.461,21.151 9.434,20.902 9.429,20.666 C9.419,19.39 9.425,18.116 9.425,16.841 L9.425,16.601 L9.325,16.528 C9.285,16.601 9.262,16.688 9.208,16.745 C8.298,17.66 7.395,18.579 6.478,19.485 C6.038,19.919 5.493,20.128 4.955,20.128 C4.268,20.128 3.595,19.783 3.193,19.131 C2.696,18.317 2.818,17.271 3.509,16.573 C4.427,15.65 5.354,14.731 6.275,13.807 C6.33,13.752 6.385,13.687 6.47,13.597 L6.186,13.597 C5.413,13.597 4.641,13.602 3.868,13.602 C3.338,13.602 2.806,13.602 2.278,13.598 C1.46,13.59 0.822,13.228 0.434,12.498 C0.064,11.81 0.086,11.1 0.494,10.428 C0.904,9.758 1.527,9.438 2.309,9.433 C2.832,9.433 3.356,9.429 3.881,9.429 L6.465,9.429 C6.175,9.139 5.927,8.882 5.67,8.629 C4.96,7.919 4.252,7.211 3.547,6.501 C2.702,5.649 2.671,4.359 3.475,3.535 C3.891,3.109 4.428,2.897 4.965,2.897 C5.499,2.897 6.037,3.109 6.471,3.535 C7.389,4.441 8.293,5.36 9.206,6.27 C9.264,6.33 9.323,6.384 9.431,6.483 L9.431,6.198 C9.431,4.894 9.427,3.586 9.431,2.282 C9.436,1.399 9.956,0.642 10.755,0.332 C10.995,0.226 11.248,0.177 11.501,0.177 L11.5,0.177 Z M9.575,6.98 C9.521,6.918 9.475,6.85 9.417,6.79 C8.369,5.74 7.317,4.69 6.263,3.645 C5.906,3.292 5.436,3.11 4.961,3.11 C4.583,3.11 4.208,3.224 3.883,3.46 C2.938,4.143 2.848,5.465 3.697,6.32 C4.73,7.362 5.776,8.4 6.814,9.435 C6.868,9.49 6.918,9.553 6.999,9.639 L2.304,9.639 C1.612,9.639 1.056,9.919 0.686,10.507 C0.306,11.11 0.284,11.753 0.623,12.377 C0.971,13.02 1.54,13.347 2.267,13.351 C2.887,13.355 3.51,13.355 4.129,13.355 L6.953,13.355 C6.963,13.373 6.971,13.392 6.985,13.415 C6.895,13.491 6.805,13.568 6.723,13.65 L3.7,16.67 C3.226,17.146 3.018,17.716 3.145,18.377 C3.285,19.097 3.715,19.587 4.415,19.799 C4.618,19.861 4.817,19.889 5.007,19.889 C5.477,19.889 5.91,19.699 6.285,19.327 C7.338,18.281 8.387,17.231 9.439,16.18 C9.493,16.127 9.547,16.077 9.642,15.987 L9.642,20.692 C9.642,21.248 9.827,21.732 10.242,22.104 C10.618,22.434 11.029,22.606 11.462,22.606 C11.716,22.606 11.972,22.546 12.236,22.434 C12.968,22.114 13.338,21.519 13.343,20.718 C13.353,19.248 13.343,17.775 13.343,16.304 L13.343,15.991 C13.447,16.091 13.505,16.141 13.563,16.201 C14.617,17.251 15.665,18.301 16.718,19.347 C17.078,19.705 17.553,19.891 18.028,19.891 C18.408,19.891 18.791,19.773 19.112,19.537 C20.047,18.854 20.138,17.541 19.297,16.69 C18.257,15.638 17.209,14.6 16.16,13.556 C16.106,13.501 16.056,13.446 15.98,13.361 L18.926,13.361 C19.512,13.361 20.1,13.361 20.682,13.357 C21.767,13.353 22.585,12.533 22.576,11.474 C22.566,10.46 21.744,9.649 20.691,9.649 C20.101,9.645 19.508,9.645 18.911,9.645 L16.023,9.645 C16.013,9.627 16.005,9.605 15.993,9.585 C16.055,9.532 16.123,9.482 16.177,9.423 C17.225,8.383 18.273,7.34 19.313,6.29 C20.058,5.533 20.053,4.374 19.323,3.65 C18.96,3.292 18.499,3.115 18.033,3.115 C17.546,3.115 17.058,3.31 16.669,3.695 C15.629,4.731 14.589,5.773 13.546,6.809 C13.492,6.863 13.433,6.913 13.334,7.003 L13.334,2.317 C13.334,1.865 13.212,1.457 12.927,1.1 C12.574,0.652 12.027,0.407 11.472,0.407 C11.269,0.407 11.065,0.439 10.872,0.507 C10.125,0.765 9.632,1.457 9.628,2.273 C9.623,3.753 9.628,5.229 9.628,6.71 C9.628,6.796 9.618,6.877 9.618,6.963 C9.614,6.968 9.591,6.977 9.573,6.981 L9.575,6.98 Z M11.5,0.04 C11.224,0.04 10.958,0.09 10.7,0.19 C10.28,0.353 9.923,0.634 9.674,1 C9.421,1.367 9.29,1.806 9.286,2.268 C9.281,3.183 9.281,4.116 9.286,5.018 L9.286,6.153 C9.001,5.868 8.716,5.583 8.436,5.297 C7.822,4.68 7.19,4.043 6.56,3.423 C6.118,2.988 5.55,2.748 4.96,2.748 C4.37,2.748 3.805,2.988 3.375,3.428 C2.96,3.853 2.738,4.41 2.752,4.998 C2.765,5.588 3.014,6.148 3.448,6.583 L4.668,7.806 L5.572,8.711 C5.742,8.884 5.915,9.061 6.1,9.246 C6.114,9.26 6.123,9.273 6.136,9.282 L3.877,9.282 C3.267,9.282 2.77,9.282 2.305,9.288 C1.45,9.293 0.805,9.65 0.375,10.348 C-0.059,11.058 -0.081,11.818 0.312,12.552 C0.718,13.308 1.396,13.716 2.272,13.722 C2.742,13.725 3.249,13.725 3.862,13.725 L6.155,13.725 L5.273,14.603 C4.663,15.216 4.031,15.845 3.413,16.47 C2.68,17.208 2.543,18.326 3.077,19.195 C3.484,19.861 4.189,20.259 4.957,20.259 C5.557,20.259 6.132,20.019 6.575,19.579 C7.388,18.779 8.201,17.955 8.992,17.162 L9.295,16.858 L9.295,17.822 C9.295,18.755 9.295,19.72 9.299,20.67 C9.299,20.95 9.335,21.2 9.402,21.422 C9.682,22.336 10.542,22.975 11.49,22.975 C11.59,22.975 11.69,22.965 11.785,22.952 C12.919,22.789 13.71,21.888 13.719,20.756 C13.722,19.842 13.722,18.914 13.722,18.016 L13.722,16.858 C14.635,17.782 15.53,18.678 16.424,19.566 C16.876,20.014 17.459,20.263 18.056,20.263 C18.643,20.263 19.199,20.023 19.628,19.593 C20.048,19.168 20.273,18.607 20.255,18.018 C20.242,17.43 19.989,16.864 19.55,16.424 C18.9,15.774 18.235,15.112 17.594,14.474 L17.151,14.03 C17.056,13.935 16.957,13.84 16.848,13.736 L19.18,13.736 C19.772,13.736 20.26,13.736 20.712,13.732 C21.962,13.727 22.948,12.762 22.957,11.545 C22.961,10.945 22.735,10.382 22.324,9.961 C21.908,9.536 21.334,9.301 20.714,9.301 C20.259,9.296 19.771,9.296 19.174,9.296 L16.843,9.296 C17.037,9.102 17.231,8.906 17.43,8.712 C18.144,8.006 18.88,7.272 19.6,6.544 C20.064,6.074 20.295,5.43 20.24,4.784 C20.186,4.134 19.847,3.551 19.32,3.171 C18.944,2.904 18.5,2.763 18.05,2.763 C17.448,2.763 16.874,3.008 16.422,3.456 C15.802,4.072 15.175,4.701 14.57,5.308 C14.285,5.593 14,5.883 13.71,6.168 L13.71,2.3 C13.71,1.702 13.512,1.186 13.124,0.765 C12.707,0.303 12.115,0.04 11.5,0.04 L11.5,0.04 Z M9.53,7.145 L9.62,7.109 L9.683,7.087 L9.769,7.055 L9.773,6.965 C9.773,6.937 9.777,6.91 9.777,6.887 C9.782,6.829 9.787,6.77 9.787,6.707 L9.787,2.267 C9.791,1.517 10.237,0.873 10.939,0.627 C11.119,0.565 11.305,0.533 11.499,0.533 C12.023,0.533 12.529,0.773 12.846,1.176 C13.099,1.498 13.226,1.869 13.226,2.308 C13.221,3.358 13.226,4.426 13.226,5.458 L13.226,7.301 L13.451,7.093 C13.487,7.061 13.514,7.033 13.541,7.011 C13.591,6.966 13.631,6.931 13.668,6.893 C14.706,5.857 15.746,4.815 16.788,3.779 C17.138,3.431 17.588,3.241 18.058,3.241 C18.506,3.241 18.931,3.417 19.252,3.739 C19.934,4.413 19.93,5.491 19.242,6.189 C18.488,6.959 17.707,7.729 16.957,8.479 C16.671,8.759 16.391,9.041 16.111,9.321 C16.074,9.357 16.034,9.389 15.993,9.425 C15.97,9.443 15.953,9.462 15.93,9.48 L15.848,9.55 L15.898,9.644 L15.922,9.689 L15.932,9.702 L15.967,9.774 L18.94,9.774 C19.627,9.774 20.192,9.774 20.72,9.779 C21.692,9.783 22.46,10.526 22.47,11.472 C22.474,11.942 22.302,12.377 21.98,12.699 C21.656,13.029 21.204,13.215 20.707,13.215 C20.187,13.215 19.627,13.219 18.947,13.219 L15.678,13.219 L15.89,13.446 C15.917,13.478 15.94,13.5 15.962,13.526 C16.002,13.573 16.039,13.609 16.075,13.65 C16.405,13.98 16.74,14.312 17.075,14.642 C17.775,15.339 18.502,16.064 19.211,16.779 C19.591,17.163 19.785,17.675 19.745,18.182 C19.705,18.68 19.455,19.119 19.045,19.422 C18.75,19.635 18.403,19.748 18.037,19.748 C17.575,19.748 17.145,19.571 16.82,19.245 C16.138,18.565 15.442,17.873 14.773,17.203 C14.407,16.836 14.036,16.469 13.67,16.103 C13.634,16.066 13.594,16.026 13.544,15.98 C13.517,15.953 13.484,15.926 13.449,15.89 L13.219,15.677 L13.219,17.596 C13.219,18.618 13.223,19.673 13.214,20.71 C13.21,21.47 12.866,22.004 12.188,22.303 C11.945,22.413 11.706,22.466 11.471,22.466 C11.073,22.466 10.689,22.308 10.341,22 C9.971,21.674 9.785,21.235 9.785,20.69 L9.785,15.677 L9.559,15.889 C9.529,15.919 9.497,15.949 9.475,15.969 C9.429,16.016 9.389,16.047 9.353,16.083 L8.323,17.116 C7.627,17.806 6.908,18.526 6.199,19.229 C5.851,19.579 5.453,19.749 5.015,19.749 C4.838,19.749 4.653,19.723 4.463,19.664 C3.813,19.464 3.415,19.021 3.289,18.346 C3.176,17.749 3.347,17.214 3.809,16.756 C4.256,16.309 4.703,15.866 5.149,15.416 C5.711,14.856 6.271,14.299 6.831,13.736 C6.885,13.683 6.944,13.633 7.003,13.583 C7.03,13.556 7.063,13.533 7.089,13.506 L7.169,13.434 L7.119,13.339 L7.099,13.293 L7.093,13.28 L7.057,13.207 L4.147,13.207 C3.424,13.207 2.832,13.207 2.285,13.204 C1.595,13.199 1.083,12.896 0.758,12.304 C0.441,11.719 0.458,11.134 0.816,10.569 C1.15,10.035 1.656,9.767 2.316,9.763 L7.32,9.763 L7.112,9.537 C7.085,9.505 7.062,9.477 7.04,9.455 C7,9.41 6.963,9.369 6.923,9.328 C6.579,8.99 6.24,8.646 5.897,8.306 C5.21,7.624 4.5,6.914 3.805,6.212 C3.421,5.822 3.222,5.306 3.267,4.79 C3.307,4.292 3.561,3.853 3.977,3.554 C4.267,3.346 4.614,3.234 4.975,3.234 C5.431,3.234 5.861,3.409 6.182,3.726 L9.069,6.606 L9.335,6.873 C9.365,6.905 9.398,6.945 9.429,6.986 C9.449,7.009 9.461,7.031 9.479,7.049 L9.529,7.143 L9.53,7.145 Z" id="Shape"></path>
                <path d="M16.04,9.644 L16.285,9.644 C17.763,9.644 19.235,9.639 20.715,9.644 C21.762,9.648 22.585,10.454 22.598,11.468 C22.608,12.528 21.784,13.348 20.705,13.352 C19.235,13.356 17.767,13.352 16.299,13.352 L15.995,13.352 C16.075,13.438 16.125,13.497 16.175,13.546 C17.22,14.592 18.272,15.629 19.312,16.68 C20.152,17.53 20.062,18.844 19.127,19.527 C18.394,20.062 17.377,19.985 16.727,19.342 C15.674,18.296 14.627,17.245 13.573,16.195 C13.513,16.141 13.456,16.085 13.353,15.987 L13.353,16.299 C13.353,17.769 13.356,19.241 13.353,20.713 C13.347,21.513 12.977,22.107 12.245,22.429 C11.525,22.745 10.839,22.623 10.247,22.099 C9.832,21.727 9.647,21.247 9.647,20.685 L9.647,15.981 C9.551,16.071 9.493,16.121 9.443,16.176 C8.39,17.226 7.343,18.276 6.289,19.323 C5.759,19.848 5.123,20.006 4.419,19.793 C3.719,19.581 3.289,19.093 3.149,18.373 C3.022,17.706 3.229,17.14 3.704,16.665 C4.712,15.66 5.72,14.65 6.727,13.645 C6.809,13.565 6.904,13.487 6.989,13.41 C6.979,13.393 6.971,13.374 6.959,13.352 L6.723,13.352 C5.241,13.352 3.753,13.356 2.273,13.347 C1.543,13.343 0.98,13.017 0.627,12.374 C0.287,11.749 0.311,11.106 0.69,10.504 C1.062,9.914 1.618,9.639 2.31,9.634 L7.005,9.634 C6.923,9.544 6.873,9.484 6.819,9.431 C5.78,8.395 4.735,7.358 3.7,6.317 C2.85,5.461 2.942,4.135 3.886,3.457 C4.614,2.93 5.63,3.007 6.266,3.641 C7.32,4.686 8.37,5.736 9.422,6.787 C9.482,6.847 9.527,6.914 9.582,6.977 C9.604,6.967 9.622,6.963 9.645,6.954 C9.649,6.868 9.655,6.787 9.655,6.701 C9.655,5.221 9.649,3.745 9.655,2.265 C9.658,1.45 10.145,0.757 10.895,0.499 C11.633,0.245 12.469,0.485 12.952,1.092 C13.237,1.452 13.359,1.858 13.359,2.312 C13.355,3.769 13.359,5.222 13.359,6.68 L13.359,6.997 C13.459,6.907 13.517,6.857 13.572,6.802 C14.612,5.766 15.65,4.724 16.694,3.687 C17.449,2.931 18.61,2.913 19.346,3.642 C20.078,4.367 20.083,5.526 19.336,6.282 C18.303,7.332 17.25,8.372 16.201,9.415 C16.141,9.475 16.074,9.523 16.015,9.578 C16.02,9.605 16.033,9.628 16.042,9.646 L16.04,9.644 Z M10.583,13.719 L10.583,20.522 C10.583,20.645 10.587,20.762 10.605,20.885 C10.709,21.555 11.473,21.875 12.029,21.487 C12.344,21.26 12.421,20.934 12.421,20.572 L12.421,13.723 C12.516,13.813 12.579,13.868 12.633,13.923 C14.21,15.498 15.787,17.078 17.369,18.653 C17.757,19.043 18.331,19.047 18.697,18.667 C19.054,18.291 19.027,17.739 18.625,17.331 C17.057,15.766 15.489,14.199 13.925,12.633 C13.867,12.573 13.808,12.506 13.722,12.411 L20.676,12.411 C20.78,12.411 20.889,12.407 20.988,12.384 C21.438,12.266 21.715,11.836 21.648,11.364 C21.584,10.931 21.204,10.604 20.743,10.604 L13.76,10.604 C13.75,10.582 13.737,10.559 13.728,10.537 C13.8,10.482 13.878,10.432 13.94,10.369 C15.504,8.807 17.067,7.249 18.626,5.689 C19.036,5.276 19.06,4.714 18.686,4.339 C18.31,3.963 17.749,3.985 17.343,4.393 C15.77,5.963 14.198,7.535 12.625,9.11 C12.575,9.16 12.521,9.21 12.425,9.295 L12.425,2.49 C12.425,2.368 12.422,2.25 12.405,2.128 C12.291,1.448 11.527,1.128 10.971,1.518 C10.656,1.743 10.579,2.068 10.579,2.431 L10.579,9.282 C10.484,9.192 10.421,9.139 10.367,9.084 C8.79,7.507 7.212,5.927 5.63,4.352 C5.242,3.962 4.668,3.957 4.302,4.337 C3.945,4.713 3.972,5.267 4.374,5.673 C5.942,7.24 7.51,8.806 9.074,10.373 C9.132,10.431 9.191,10.499 9.281,10.593 L2.328,10.593 C2.224,10.593 2.116,10.599 2.016,10.623 C1.564,10.739 1.289,11.169 1.356,11.64 C1.42,12.075 1.799,12.4 2.26,12.4 L9.245,12.4 C9.255,12.424 9.268,12.446 9.277,12.47 C9.205,12.523 9.127,12.573 9.064,12.636 C7.501,14.198 5.938,15.756 4.379,17.318 C3.966,17.73 3.944,18.296 4.319,18.668 C4.699,19.043 5.254,19.02 5.661,18.613 C7.233,17.043 8.806,15.471 10.378,13.895 C10.432,13.855 10.486,13.805 10.581,13.719 L10.583,13.719 Z" id="Shape"></path>
            </g>
        </g>
    </g>
</svg>