<svg width="23" height="23" viewBox="0 0 23 23" xmlns="http://www.w3.org/2000/svg"><title>logo2</title><g fill="#FECD04" fill-rule="evenodd"><path d="M11.5.177c.565 0 1.125.23 1.527.67.375.403.552.887.552 1.44v4.178c.093-.09.152-.14.206-.194.913-.91 1.817-1.828 2.734-2.734.434-.43.985-.652 1.532-.652.416 0 .827.127 1.193.385 1.048.74 1.18 2.24.267 3.164-.918.928-1.844 1.842-2.77 2.76-.06.06-.13.1-.2.146.014.023.023.05.037.073h2.602c.515 0 1.025 0 1.54.004 1.198.01 2.11.928 2.106 2.11-.01 1.146-.93 2.047-2.114 2.056-.51.004-1.022.004-1.532.004h-2.666c.212.208.375.367.537.53.8.797 1.605 1.594 2.4 2.395.858.86.89 2.155.072 2.98-.416.42-.94.628-1.473.628-.542 0-1.093-.217-1.536-.656-.91-.9-1.812-1.81-2.716-2.72-.054-.06-.08-.14-.122-.214l-.095.068v.24c0 1.304.005 2.612 0 3.916-.004 1.064-.76 1.91-1.816 2.065-.09.012-.186.017-.276.017-.876 0-1.694-.584-1.96-1.458-.068-.227-.095-.476-.1-.712-.01-1.276-.004-2.55-.004-3.825v-.24l-.1-.073c-.04.073-.063.16-.117.217-.91.915-1.813 1.834-2.73 2.74-.44.434-.985.643-1.523.643-.687 0-1.36-.345-1.762-.997-.497-.814-.375-1.86.316-2.558.918-.923 1.845-1.842 2.766-2.766.055-.055.11-.12.195-.21h-.284c-.773 0-1.545.005-2.318.005-.53 0-1.062 0-1.59-.004-.818-.008-1.456-.37-1.844-1.1-.37-.688-.348-1.398.06-2.07.41-.67 1.033-.99 1.815-.995.523 0 1.047-.004 1.572-.004h2.584c-.29-.29-.538-.547-.795-.8-.71-.71-1.418-1.418-2.123-2.128-.845-.852-.876-2.142-.072-2.966.416-.426.953-.638 1.49-.638.534 0 1.072.212 1.506.638.918.906 1.822 1.825 2.735 2.735.058.06.117.114.225.213v-.285c0-1.304-.004-2.612 0-3.916.005-.883.525-1.64 1.324-1.95.24-.106.493-.155.746-.155zM9.575 6.98c-.054-.062-.1-.13-.158-.19-1.048-1.05-2.1-2.1-3.154-3.145-.357-.353-.827-.535-1.302-.535-.378 0-.753.114-1.078.35-.945.683-1.035 2.005-.186 2.86C4.73 7.362 5.776 8.4 6.814 9.435c.054.055.104.118.185.204H2.304c-.692 0-1.248.28-1.618.868-.38.603-.402 1.246-.063 1.87.348.643.917.97 1.644.974.62.004 1.243.004 1.862.004h2.824c.01.018.018.037.032.06-.09.076-.18.153-.262.235L3.7 16.67c-.474.476-.682 1.046-.555 1.707.14.72.57 1.21 1.27 1.422.203.062.402.09.592.09.47 0 .903-.19 1.278-.562 1.053-1.046 2.102-2.096 3.154-3.147.054-.053.108-.103.203-.193v4.705c0 .556.185 1.04.6 1.412.376.33.787.502 1.22.502.254 0 .51-.06.774-.172.732-.32 1.102-.915 1.107-1.716.01-1.47 0-2.943 0-4.414v-.313c.104.1.162.15.22.21 1.054 1.05 2.102 2.1 3.155 3.146.36.358.835.544 1.31.544.38 0 .763-.118 1.084-.354.935-.683 1.026-1.996.185-2.847-1.04-1.052-2.088-2.09-3.137-3.134-.054-.055-.104-.11-.18-.195h2.946c.586 0 1.174 0 1.756-.004 1.085-.004 1.903-.824 1.894-1.883-.01-1.014-.832-1.825-1.885-1.825-.59-.004-1.183-.004-1.78-.004H16.023c-.01-.018-.018-.04-.03-.06.062-.053.13-.103.184-.162 1.048-1.04 2.096-2.083 3.136-3.133.745-.757.74-1.916.01-2.64-.363-.358-.824-.535-1.29-.535-.487 0-.975.195-1.364.58-1.04 1.036-2.08 2.078-3.123 3.114-.054.054-.113.104-.212.194V2.317c0-.452-.122-.86-.407-1.217-.353-.448-.9-.693-1.455-.693-.203 0-.407.032-.6.1-.747.258-1.24.95-1.244 1.766-.005 1.48 0 2.956 0 4.437 0 .086-.01.167-.01.253-.004.005-.027.014-.045.018zM11.5.04c-.276 0-.542.05-.8.15-.42.163-.777.444-1.026.81-.253.367-.384.806-.388 1.268-.005.915-.005 1.848 0 2.75v1.135c-.285-.285-.57-.57-.85-.856C7.822 4.68 7.19 4.043 6.56 3.423c-.442-.435-1.01-.675-1.6-.675-.59 0-1.155.24-1.585.68-.415.425-.637.982-.623 1.57.013.59.262 1.15.696 1.585l1.22 1.223.904.905c.17.173.343.35.528.535.014.014.023.027.036.036H3.877c-.61 0-1.107 0-1.572.006-.855.005-1.5.362-1.93 1.06-.434.71-.456 1.47-.063 2.204.406.756 1.084 1.164 1.96 1.17.47.003.977.003 1.59.003h2.293l-.882.878c-.61.613-1.242 1.242-1.86 1.867-.733.738-.87 1.856-.336 2.725.407.666 1.112 1.064 1.88 1.064.6 0 1.175-.24 1.618-.68.813-.8 1.626-1.624 2.417-2.417l.303-.304v.964c0 .933 0 1.898.004 2.848 0 .28.036.53.103.752.28.914 1.14 1.553 2.088 1.553.1 0 .2-.01.295-.023 1.134-.163 1.925-1.064 1.934-2.196.003-.914.003-1.842.003-2.74v-1.158c.913.924 1.808 1.82 2.702 2.708.452.448 1.035.697 1.632.697.587 0 1.143-.24 1.572-.67.42-.425.645-.986.627-1.575-.013-.588-.266-1.154-.705-1.594-.65-.65-1.315-1.312-1.956-1.95l-.443-.444c-.095-.095-.194-.19-.303-.294h2.332c.592 0 1.08 0 1.532-.004 1.25-.005 2.236-.97 2.245-2.187.004-.6-.222-1.163-.633-1.584-.416-.425-.99-.66-1.61-.66-.455-.005-.943-.005-1.54-.005h-2.331c.194-.194.388-.39.587-.584.714-.706 1.45-1.44 2.17-2.168.464-.47.695-1.114.64-1.76-.054-.65-.393-1.233-.92-1.613-.376-.267-.82-.408-1.27-.408-.602 0-1.176.245-1.628.693-.62.616-1.247 1.245-1.852 1.852-.285.285-.57.575-.86.86V2.3c0-.598-.198-1.114-.586-1.535C12.707.303 12.115.04 11.5.04zM9.53 7.145l.09-.036.063-.022.086-.032.004-.09c0-.028.004-.055.004-.078.005-.058.01-.117.01-.18V2.267c.004-.75.45-1.394 1.152-1.64.18-.062.366-.094.56-.094.524 0 1.03.24 1.347.643.253.322.38.693.38 1.132-.005 1.05 0 2.118 0 3.15v1.843l.225-.208c.036-.032.063-.06.09-.082.05-.045.09-.08.127-.118 1.038-1.036 2.078-2.078 3.12-3.114.35-.348.8-.538 1.27-.538.448 0 .873.176 1.194.498.682.674.678 1.752-.01 2.45-.754.77-1.535 1.54-2.285 2.29-.286.28-.566.562-.846.842-.037.036-.077.068-.118.104-.023.018-.04.037-.063.055l-.082.07.05.094.024.045.01.013.035.072H18.94c.687 0 1.252 0 1.78.005.972.004 1.74.747 1.75 1.693.004.47-.168.905-.49 1.227-.324.33-.776.516-1.273.516-.52 0-1.08.004-1.76.004h-3.269l.212.227c.027.032.05.054.072.08.04.047.077.083.113.124.33.33.665.662 1 .992.7.697 1.427 1.422 2.136 2.137.38.384.574.896.534 1.403-.04.498-.29.937-.7 1.24-.295.213-.642.326-1.008.326-.462 0-.892-.177-1.217-.503-.682-.68-1.378-1.372-2.047-2.042-.366-.367-.737-.734-1.103-1.1-.036-.037-.076-.077-.126-.123-.027-.027-.06-.054-.095-.09l-.23-.213v1.919c0 1.022.004 2.077-.005 3.114-.004.76-.348 1.294-1.026 1.593-.243.11-.482.163-.717.163-.398 0-.782-.158-1.13-.466-.37-.326-.556-.765-.556-1.31v-5.013l-.226.212c-.03.03-.062.06-.084.08-.046.047-.086.078-.122.114l-1.03 1.033c-.696.69-1.415 1.41-2.124 2.113-.348.35-.746.52-1.184.52-.177 0-.362-.026-.552-.085-.65-.2-1.048-.643-1.174-1.318-.113-.597.058-1.132.52-1.59.447-.447.894-.89 1.34-1.34.562-.56 1.122-1.117 1.682-1.68.054-.053.113-.103.172-.153.027-.027.06-.05.086-.077l.08-.072-.05-.095-.02-.046-.006-.013-.036-.073h-2.91c-.723 0-1.315 0-1.862-.003-.69-.005-1.202-.308-1.527-.9-.317-.585-.3-1.17.058-1.735.334-.534.84-.802 1.5-.806H7.32l-.208-.226c-.027-.032-.05-.06-.072-.082-.04-.045-.077-.086-.117-.127-.344-.338-.683-.682-1.026-1.022C5.21 7.624 4.5 6.914 3.805 6.212c-.384-.39-.583-.906-.538-1.422.04-.498.294-.937.71-1.236.29-.208.637-.32.998-.32.456 0 .886.175 1.207.492l2.887 2.88.266.267c.03.032.063.072.094.113.02.023.032.045.05.063l.05.094z"/><path d="M16.04 9.644h.245c1.478 0 2.95-.005 4.43 0 1.047.004 1.87.81 1.883 1.824.01 1.06-.814 1.88-1.893 1.884-1.47.004-2.938 0-4.406 0h-.304c.08.086.13.145.18.194 1.045 1.046 2.097 2.083 3.137 3.134.84.85.75 2.164-.185 2.847-.733.535-1.75.458-2.4-.185-1.053-1.046-2.1-2.097-3.154-3.147-.06-.054-.117-.11-.22-.208v.312c0 1.47.003 2.942 0 4.414-.006.8-.376 1.394-1.108 1.716-.72.316-1.406.194-1.998-.33-.415-.372-.6-.852-.6-1.414v-4.704c-.096.09-.154.14-.204.195-1.053 1.05-2.1 2.1-3.154 3.147-.53.525-1.166.683-1.87.47-.7-.212-1.13-.7-1.27-1.42-.127-.667.08-1.233.555-1.708 1.008-1.005 2.016-2.015 3.023-3.02.082-.08.177-.158.262-.235-.01-.017-.018-.036-.03-.058h-.236c-1.482 0-2.97.004-4.45-.005-.73-.004-1.293-.33-1.646-.973-.34-.625-.316-1.268.063-1.87.372-.59.928-.865 1.62-.87h4.695c-.082-.09-.132-.15-.186-.203C5.78 8.395 4.735 7.358 3.7 6.317c-.85-.856-.758-2.182.186-2.86.728-.527 1.744-.45 2.38.184C7.32 4.686 8.37 5.736 9.422 6.787c.06.06.105.127.16.19.022-.01.04-.014.063-.023.004-.086.01-.167.01-.253 0-1.48-.006-2.956 0-4.436.003-.815.49-1.508 1.24-1.766.738-.254 1.574-.014 2.057.593.285.36.407.766.407 1.22-.004 1.457 0 2.91 0 4.368v.317c.1-.09.158-.14.213-.195 1.04-1.036 2.078-2.078 3.122-3.115.755-.756 1.916-.774 2.652-.045.732.725.737 1.884-.01 2.64-1.033 1.05-2.086 2.09-3.135 3.133-.06.06-.127.108-.186.163.005.027.018.05.027.068zm-5.457 4.075v6.803c0 .123.004.24.022.363.104.67.868.99 1.424.602.315-.227.392-.553.392-.915V13.723c.095.09.158.145.212.2 1.577 1.575 3.154 3.155 4.736 4.73.388.39.962.394 1.328.014.357-.376.33-.928-.072-1.336-1.568-1.565-3.136-3.132-4.7-4.698-.058-.06-.117-.127-.203-.222h6.954c.104 0 .213-.004.312-.027.45-.118.727-.548.66-1.02-.064-.433-.444-.76-.905-.76H13.76c-.01-.022-.023-.045-.032-.067.072-.055.15-.105.212-.168 1.564-1.562 3.127-3.12 4.686-4.68.41-.413.434-.975.06-1.35-.376-.376-.937-.354-1.343.054-1.573 1.57-3.145 3.142-4.718 4.717-.05.05-.104.1-.2.185V2.49c0-.122-.003-.24-.02-.362-.114-.68-.878-1-1.434-.61-.315.225-.392.55-.392.913v6.851c-.095-.09-.158-.143-.212-.198C8.79 7.507 7.212 5.927 5.63 4.352c-.388-.39-.962-.395-1.328-.015-.357.376-.33.93.072 1.336 1.568 1.567 3.136 3.133 4.7 4.7.058.058.117.126.207.22H2.328c-.104 0-.212.006-.312.03-.452.116-.727.546-.66 1.017.064.435.443.76.904.76h6.985c.01.024.023.046.032.07-.072.053-.15.103-.213.166-1.563 1.562-3.126 3.12-4.685 4.682-.413.412-.435.978-.06 1.35.38.375.935.352 1.342-.055 1.572-1.57 3.145-3.142 4.717-4.718.054-.04.108-.09.203-.176z"/></g></svg>